<svg width="60" height="60" viewBox="0 0 60 60" fill="none" xmlns="http://www.w3.org/2000/svg">
<circle cx="30" cy="30" r="29.25" fill="#111C55" stroke="#2D3A7B" stroke-width="1.5"/>
<path d="M22.8325 21.0865C22.7043 21.0904 22.5782 21.1184 22.4617 21.1687C22.3453 21.2191 22.2408 21.2908 22.1545 21.3797C22.0681 21.4686 22.0017 21.5728 21.9591 21.6861C21.9166 21.7995 21.8987 21.9197 21.9066 22.0396C22.0347 24.0966 22.6385 29.1158 25.5295 32.246C28.9914 36.0172 33.4999 37.3166 38.1255 37.1246C38.3734 37.1107 38.6065 37.0092 38.7776 36.8406C38.9488 36.6719 39.0453 36.4487 39.0476 36.2161V32.9214C39.0448 32.614 38.9317 32.3164 38.7266 32.0764C38.5216 31.8364 38.2364 31.6679 37.9169 31.598L35.6004 31.118C35.3139 31.0608 35.0157 31.0854 34.7443 31.1887C34.4729 31.292 34.2408 31.4692 34.0781 31.6974L33.5657 32.4242C33.5187 32.4908 33.4484 32.5398 33.3669 32.563C33.2854 32.5861 33.1978 32.5819 33.1193 32.5511C31.9409 32.0745 27.2458 30.0175 26.7298 26.548C26.7197 26.4809 26.731 26.4126 26.7622 26.3516C26.7935 26.2906 26.8433 26.2396 26.9055 26.2051L27.835 25.6737C28.0899 25.5257 28.2902 25.3079 28.4087 25.0497C28.5271 24.7916 28.5581 24.5055 28.4973 24.2304L27.9887 22.0225C27.9143 21.7131 27.7278 21.4375 27.4609 21.2424C27.194 21.0474 26.8633 20.9451 26.5249 20.9528L22.8325 21.0865Z" stroke="white" stroke-width="2"/>
</svg>
