<svg width="100" height="100" viewBox="0 0 100 100" fill="none" xmlns="http://www.w3.org/2000/svg">
<circle cx="50" cy="50" r="50" fill="#100E3F" fill-opacity="0.05"/>
<g clip-path="url(#clip0_533_15656)">
<path d="M43.4863 25.3906C42.9199 25.7324 42.8711 25.9375 42.8711 28.2129C42.8711 30.0781 42.8516 30.2637 42.7051 30.3125C42.6074 30.3418 40.6836 30.6738 38.4277 31.0547C35.5273 31.543 34.2578 31.7969 34.082 31.9238C33.9453 32.0215 33.75 32.2559 33.6426 32.4512C33.457 32.793 33.457 32.8027 33.6816 34.1797C33.7988 34.9414 33.8867 35.5859 33.8574 35.6055C33.8379 35.625 32.1777 36.2109 30.166 36.9043C28.1543 37.5977 26.2598 38.2617 25.9473 38.3789C25.2734 38.6328 25 38.9941 25 39.6191C25 40.1172 30.293 54.9219 30.5762 55.2148C30.8105 55.4688 31.3672 55.4688 31.6406 55.2246C31.7676 55.1074 31.8359 54.9219 31.8359 54.6973C31.8359 54.4922 30.8008 51.4844 29.248 47.1582C27.8223 43.2031 26.6602 39.9219 26.6602 39.873C26.6602 39.8242 26.8066 39.7266 26.9824 39.6777C27.1484 39.6191 28.8281 39.043 30.7129 38.3984C32.5879 37.7441 34.1504 37.2363 34.1699 37.2656C34.1992 37.2852 35.4297 44.4238 36.9238 53.125C38.418 61.8262 39.6875 69.0332 39.7461 69.1406C39.9121 69.4531 40.4395 69.7266 40.8691 69.7266C41.084 69.7266 44.1602 69.2188 47.7051 68.6133C51.25 67.998 54.1602 67.5098 54.1699 67.5195C54.1895 67.5293 50.6934 68.7988 46.416 70.3418C42.1387 71.8848 38.623 73.125 38.6035 73.1055C38.584 73.0859 37.3047 69.5508 35.752 65.2441C34.209 60.9375 32.8613 57.334 32.7637 57.2266C32.4902 56.9238 31.9043 56.9629 31.6504 57.2852C31.5332 57.4316 31.4453 57.6367 31.4453 57.7441C31.4453 57.998 37.1875 73.9941 37.3926 74.3066C37.5586 74.5703 38.0469 74.8047 38.4277 74.8047C38.5645 74.8047 44.2383 72.8027 51.0352 70.3613L63.3984 65.918L65.1367 65.625C66.8555 65.332 66.9238 65.332 70.5078 65.332C73.5547 65.332 74.1797 65.3125 74.4141 65.1855C75.0391 64.8633 75 66.084 75 48.0469V31.6406L74.6289 31.2695C73.291 29.9512 68.4961 25.4199 68.3203 25.3223C68.1641 25.2344 65.3125 25.2051 55.957 25.1953C44.0723 25.1953 43.7891 25.2051 43.4863 25.3906ZM66.6211 29.2188C66.6504 32.0801 66.6895 32.2363 67.4707 32.6953L67.9199 32.959L70.7324 32.9883L73.5352 33.0176V48.3984V63.7695H58.9844H44.4336V56.543V49.3066L44.1895 49.0723C43.8867 48.7598 43.4082 48.75 43.0957 49.043L42.8711 49.248V56.8164C42.8711 63.3301 42.8906 64.4141 43.0176 64.6875C43.3203 65.3125 42.9395 65.2832 50.4395 65.332L57.2754 65.3809L49.2188 66.7578C44.7852 67.5195 41.1426 68.1055 41.1133 68.0664C41.0254 67.9199 35.1172 33.3008 35.1758 33.252C35.2246 33.1934 42.4707 31.9336 42.7246 31.9336C42.8516 31.9336 42.8711 32.8418 42.8711 39.209V46.4941L43.1152 46.7285C43.3984 47.0215 43.8379 47.041 44.1504 46.7871L44.3848 46.6016L44.4141 36.6797L44.4336 26.7578H55.5176H66.5918L66.6211 29.2188ZM71.3867 30.3711L72.5098 31.4355L70.459 31.4453C68.9844 31.4453 68.3691 31.416 68.2813 31.3281C68.1934 31.2402 68.1641 30.6445 68.1641 29.2676V27.3242L69.2188 28.3105C69.7949 28.8477 70.7715 29.7754 71.3867 30.3711Z" fill="#AF1E22"/>
<path d="M48.0957 36.084C47.9395 36.2305 47.8516 36.4355 47.8516 36.6211C47.8516 36.8066 47.9395 37.0117 48.0957 37.1582L48.3301 37.4023H59.0625C69.7754 37.4023 69.7949 37.4023 70.0586 37.1973C70.4004 36.9336 70.4102 36.3574 70.0879 36.0547L69.8633 35.8398H59.0918H48.3301L48.0957 36.084Z" fill="#AF1E22"/>
<path d="M48.2715 41.1133C47.832 41.2891 47.7246 41.8945 48.0566 42.3242L48.2519 42.5781H59.0918C69.7949 42.5781 69.9219 42.5781 70.1172 42.3828C70.4199 42.0801 70.3808 41.4746 70.0586 41.2207C69.7949 41.0156 69.7754 41.0156 59.1406 41.0254C53.2519 41.0254 48.3887 41.0645 48.2715 41.1133Z" fill="#AF1E22"/>
<path d="M48.0469 46.5039C47.9395 46.6211 47.8516 46.8457 47.8516 47.0215C47.8516 47.1973 47.9395 47.4219 48.0469 47.5391L48.252 47.7539H59.082C69.7949 47.7539 69.9219 47.7539 70.1172 47.5586C70.2344 47.4414 70.3125 47.2363 70.3125 47.0215C70.3125 46.8066 70.2344 46.6016 70.1172 46.4844C69.9219 46.2891 69.7949 46.2891 59.082 46.2891H48.252L48.0469 46.5039Z" fill="#AF1E22"/>
<path d="M48.0566 51.7188C47.8027 52.041 47.793 52.4512 48.0371 52.7441L48.2227 52.9785L59.0137 53.0078L69.7949 53.0273L70.0488 52.8223C70.3809 52.5684 70.4199 51.9629 70.1172 51.6602C69.9219 51.4648 69.7949 51.4648 59.0918 51.4648H48.252L48.0566 51.7188Z" fill="#AF1E22"/>
<path d="M48.0957 56.8848C47.9395 57.0312 47.8516 57.2363 47.8516 57.4219C47.8516 57.6074 47.9395 57.8125 48.0957 57.959L48.3301 58.2031H59.1113H69.8926L70.0977 57.9785C70.4102 57.6465 70.3906 57.1094 70.0586 56.8457C69.7949 56.6406 69.7754 56.6406 59.0625 56.6406H48.3301L48.0957 56.8848Z" fill="#AF1E22"/>
</g>
<defs>
<clipPath id="clip0_533_15656">
<rect width="50" height="50" fill="white" transform="translate(25 25)"/>
</clipPath>
</defs>
</svg>
