<svg width="100" height="100" viewBox="0 0 100 100" fill="none" xmlns="http://www.w3.org/2000/svg">
<circle cx="50" cy="50" r="50" fill="#100E3F" fill-opacity="0.05"/>
<g clip-path="url(#clip0_533_9035)">
<path d="M27.0996 25.9668C26.8848 26.0644 26.5723 26.2988 26.3965 26.4746C25.7812 27.1191 25.7812 27.1484 25.7812 31.2695C25.7812 35.4394 25.791 35.4492 26.4746 36.1035C27.0703 36.6699 27.3145 36.7187 29.5605 36.7187H31.5918L33.6914 38.8281C34.8438 39.9804 35.9766 41.0449 36.2109 41.1816C36.5723 41.3964 36.709 41.4257 37.3047 41.3867C37.8711 41.3574 38.0273 41.3085 38.3398 41.0546C39.0039 40.5175 39.0625 40.3027 39.0625 38.4082V36.7187H43.291C47.998 36.7187 47.9395 36.7187 48.6035 36.0253C49.2188 35.3808 49.2188 35.3515 49.2188 31.25C49.2188 27.1484 49.2188 27.1191 48.6035 26.4746C48.4277 26.2988 48.1152 26.0644 47.9004 25.9668C47.5293 25.791 47.041 25.7812 37.5 25.7812C27.959 25.7812 27.4707 25.791 27.0996 25.9668ZM47.0703 27.4511C47.627 27.6464 47.6562 27.8515 47.6562 31.25C47.6562 34.6484 47.627 34.8535 47.0703 35.0488C46.8457 35.1171 45.3223 35.1562 42.1289 35.1562H37.5V37.2656C37.5 39.3261 37.4414 39.746 37.1777 39.746C37.1094 39.746 36.0254 38.7109 34.7656 37.4511L32.4707 35.1562H30.3613C27.9688 35.1562 27.6855 35.1074 27.4805 34.6093C27.3047 34.1894 27.2852 28.4277 27.4512 27.9296C27.666 27.3242 27.2559 27.3535 37.4609 27.3437C44.1504 27.3437 46.8359 27.373 47.0703 27.4511Z" fill="#AF1E22"/>
<path d="M30.2246 29.0918C29.375 29.4824 28.9062 30.2637 28.9062 31.2695C28.916 32.6562 29.8535 33.5938 31.25 33.5938C32.6562 33.5938 33.5938 32.6562 33.5938 31.25C33.5938 30.2344 33.0762 29.4238 32.207 29.0625C31.6992 28.8477 30.7129 28.8672 30.2246 29.0918ZM31.7383 30.7617C32.1582 31.1816 31.8457 31.9336 31.25 31.9336C30.8789 31.9336 30.5664 31.6211 30.5664 31.25C30.5664 30.8789 30.8789 30.5664 31.25 30.5664C31.416 30.5664 31.6309 30.6543 31.7383 30.7617Z" fill="#AF1E22"/>
<path d="M36.4746 29.0918C35.625 29.4824 35.1562 30.2637 35.1562 31.2695C35.166 32.6562 36.1035 33.5938 37.5 33.5938C38.9062 33.5938 39.8438 32.6562 39.8438 31.25C39.8438 30.2344 39.3262 29.4238 38.457 29.0625C37.9492 28.8477 36.9629 28.8672 36.4746 29.0918ZM37.9883 30.7617C38.0957 30.8691 38.1836 31.084 38.1836 31.25C38.1836 31.416 38.0957 31.6309 37.9883 31.7383C37.5684 32.1582 36.8164 31.8457 36.8164 31.25C36.8164 30.8789 37.1289 30.5664 37.5 30.5664C37.666 30.5664 37.8809 30.6543 37.9883 30.7617Z" fill="#AF1E22"/>
<path d="M42.7246 29.0918C41.875 29.4824 41.4062 30.2637 41.4062 31.2695C41.416 32.6562 42.3535 33.5938 43.75 33.5938C45.1562 33.5938 46.0938 32.6562 46.0938 31.25C46.0938 30.2344 45.5762 29.4238 44.707 29.0625C44.1992 28.8477 43.2129 28.8672 42.7246 29.0918ZM44.2383 30.7617C44.3457 30.8691 44.4336 31.084 44.4336 31.25C44.4336 31.416 44.3457 31.6309 44.2383 31.7383C44.1309 31.8457 43.916 31.9336 43.75 31.9336C43.584 31.9336 43.3691 31.8457 43.2617 31.7383C43.1543 31.6309 43.0664 31.416 43.0664 31.25C43.0664 31.084 43.1543 30.8691 43.2617 30.7617C43.3691 30.6543 43.584 30.5664 43.75 30.5664C43.916 30.5664 44.1309 30.6543 44.2383 30.7617Z" fill="#AF1E22"/>
<path d="M60.1367 25.9668C58.9356 26.2305 58.3887 26.416 57.2754 26.9629C54.2676 28.4277 51.9824 31.2402 51.1035 34.541C50.7715 35.8008 50.6836 38.1641 50.9082 39.502C50.9961 39.9805 51.0449 40.3906 51.0352 40.4102C51.0156 40.4297 50.7617 40.3711 50.4688 40.2832C48.8965 39.834 46.416 39.707 44.6289 39.9902C39.1699 40.8789 34.6973 45.3418 33.75 50.8301C33.5547 51.9629 33.5449 54.1699 33.7402 55.3711C33.916 56.4258 34.4141 57.998 34.8535 58.877C35.0195 59.1992 35.1563 59.5117 35.1563 59.5605C35.1563 59.6094 33.3008 61.2109 31.0352 63.1152C26.8164 66.6602 26.5527 66.9141 26.0547 68.0176C25.8594 68.4473 25.8301 68.6621 25.8301 69.7266C25.8301 70.9375 25.8301 70.957 26.1914 71.6895C26.6406 72.5977 27.4805 73.4277 28.418 73.8672C29.0234 74.1504 29.1113 74.1699 30.2734 74.1699C31.3379 74.1699 31.5527 74.1406 31.9824 73.9453C33.0859 73.4473 33.3398 73.1836 36.8848 68.9746C38.7891 66.6992 40.3906 64.8438 40.4395 64.8438C40.4883 64.8438 40.8008 64.9805 41.123 65.1465C41.9727 65.5664 43.5547 66.0742 44.6191 66.25C45.791 66.4453 47.9102 66.4551 49.1016 66.2598C54.5996 65.3613 59.1113 60.8594 60.0098 55.3711C60.293 53.584 60.166 51.1035 59.7168 49.5312C59.6289 49.2383 59.5703 48.9844 59.5996 48.9648C59.6191 48.9453 60 49.0039 60.459 49.082C61.7188 49.3262 64.1895 49.2285 65.459 48.8965C66.543 48.6133 68.125 47.8906 69.043 47.2656C71.6211 45.5176 73.4082 42.8516 74.0234 39.8438C74.3262 38.3984 74.2676 35.9473 73.8965 34.5703C73.3496 32.4707 72.3438 30.7324 70.8106 29.1895C69.2676 27.6562 67.5293 26.6504 65.4297 26.1035C64.1309 25.7617 61.416 25.6934 60.1367 25.9668ZM63.6231 27.4805C65.7129 27.6465 67.9883 28.7402 69.6387 30.3906C70.8691 31.6211 71.6992 33.0469 72.2266 34.8145C72.5391 35.8887 72.6563 37.9395 72.4609 39.1211C72.1191 41.2598 71.0547 43.2227 69.3945 44.7852C67.4316 46.6406 65.1367 47.5684 62.5 47.5684C60.6836 47.5684 59.0332 47.1289 57.4902 46.2402L56.7383 45.8008L54.0527 47.4609C52.2559 48.5742 51.2891 49.1211 51.1426 49.1016C50.7031 49.043 50.8203 48.6523 52.2559 45.498C53.5645 42.5977 53.6328 42.4219 53.5156 42.1387C52.5684 39.8535 52.4023 39.0527 52.4707 37.1191C52.5 36.084 52.5781 35.4785 52.7344 34.9121C53.8477 30.8301 57.4219 27.8125 61.5723 27.4512C62.0606 27.4121 62.5586 27.3926 62.6953 27.4023C62.832 27.4219 63.252 27.4512 63.6231 27.4805ZM48.6328 41.6113C49.8535 41.7871 51.6602 42.4023 51.6602 42.6367C51.6602 42.7441 51.2402 43.6816 51.1328 43.8184C51.123 43.8281 50.7617 43.7109 50.3223 43.5547C49.1016 43.125 48.1934 42.9688 46.8262 42.9688C44.873 42.9688 43.2324 43.4082 41.582 44.3945C40.4688 45.0488 38.7988 46.7188 38.1445 47.832C37.1484 49.502 36.7188 51.1133 36.7188 53.125C36.7188 55.9082 37.6074 58.1445 39.4922 60.127C40.8203 61.5234 42.1973 62.373 44.1113 62.959C44.9219 63.2031 45.0879 63.2227 46.875 63.2227C48.6621 63.2227 48.8281 63.2031 49.6387 62.959C51.5527 62.373 52.9297 61.5234 54.2578 60.127C56.1426 58.1543 57.0313 55.8984 57.0313 53.1543C57.0313 51.6504 56.8164 50.498 56.3086 49.2578C56.1133 48.7793 55.957 48.3594 55.957 48.3203C55.957 48.2812 56.1426 48.1445 56.3672 48.0078C56.7481 47.7832 56.7871 47.7734 57.0606 47.9102C57.4121 48.0957 57.8027 48.916 58.1738 50.2637C58.418 51.1523 58.4375 51.3574 58.4375 53.125C58.4375 54.8828 58.418 55.1074 58.1738 55.9863C57.6074 58.0762 56.6113 59.8047 55.0879 61.3379C53.0762 63.3398 50.5469 64.5215 47.8223 64.7266C44.3359 64.9902 41.1328 63.8086 38.6621 61.3379C37.1387 59.8047 36.1426 58.0762 35.5762 55.9863C35.332 55.1074 35.3125 54.8828 35.3125 53.125C35.3125 51.3672 35.332 51.1426 35.5762 50.2637C36.1426 48.1445 37.041 46.5723 38.5742 45.0098C41.2793 42.2559 44.8145 41.0645 48.6328 41.6113ZM47.7148 45.0391C48.0273 45.3223 48.3008 45.7422 48.6426 46.4258C48.9063 46.9727 49.1211 47.4707 49.1211 47.5293C49.1211 47.627 48.6133 47.6562 46.875 47.6562C45.6445 47.6562 44.6289 47.6172 44.6289 47.5781C44.6289 47.3828 45.1563 46.2207 45.4492 45.7617C45.9277 45.0098 46.4063 44.6289 46.8848 44.6289C47.1973 44.6289 47.3438 44.6973 47.7148 45.0391ZM43.75 45.2539C43.75 45.2734 43.623 45.5664 43.4668 45.9082C43.3105 46.25 43.1055 46.7871 43.0078 47.0898L42.832 47.6562H41.5625L40.2832 47.6465L40.8887 47.0801C41.5625 46.4355 42.168 45.9961 43.0176 45.5371C43.5645 45.2344 43.75 45.166 43.75 45.2539ZM50.3906 45.4492C50.3906 45.5078 50.3516 45.6152 50.3125 45.6836C50.2539 45.7715 50.1953 45.7324 50.1172 45.5566C49.9609 45.2246 49.9707 45.2246 50.1953 45.2832C50.3027 45.3125 50.3906 45.3809 50.3906 45.4492ZM42.4316 49.4336C42.334 49.8633 42.1875 51.3184 42.1875 51.8262V52.3438H40.2832C38.623 52.3438 38.3789 52.3242 38.3789 52.1875C38.3789 51.8359 38.7109 50.5859 38.9844 49.9219L39.2773 49.2188H40.8789H42.4805L42.4316 49.4336ZM49.2676 49.4336C49.3066 49.5605 49.4434 49.8145 49.5605 50C49.7559 50.2832 49.8047 50.5273 49.8633 51.3379L49.9316 52.3438H46.875H43.8184L43.877 51.4648C43.916 50.9863 43.9941 50.2832 44.0527 49.9023L44.1699 49.2188H46.6895H49.209L49.2676 49.4336ZM55.1074 50.9375C55.1953 51.25 55.2832 51.6992 55.3223 51.9238L55.3906 52.3438H53.4766H51.5625V51.8652C51.5625 51.6016 51.5332 51.2598 51.5039 51.1035C51.4551 50.8301 51.4746 50.8008 51.7578 50.752C51.9238 50.7129 52.5977 50.3516 53.252 49.9512L54.4434 49.209L54.707 49.7852C54.8535 50.0977 55.0293 50.6152 55.1074 50.9375ZM42.1875 54.4238C42.1875 54.9316 42.334 56.3867 42.4316 56.8066L42.4805 57.0312H40.8789H39.2773L38.9844 56.3184C38.7109 55.6641 38.3789 54.4141 38.3789 54.0625C38.3789 53.9258 38.623 53.9062 40.2832 53.9062H42.1875V54.4238ZM49.873 54.707C49.8438 55.1562 49.7656 55.8594 49.6973 56.2695L49.5898 57.0312H46.875H44.1699L44.0527 56.3477C43.9941 55.9668 43.916 55.2637 43.877 54.7852L43.8184 53.9062H46.875H49.9316L49.873 54.707ZM55.3711 54.0625C55.3711 54.4141 55.0391 55.6641 54.7656 56.3184L54.4727 57.0312H52.8711H51.2695L51.3184 56.8066C51.416 56.3867 51.5625 54.9316 51.5625 54.4238V53.9062H53.4668C55.127 53.9062 55.3711 53.9258 55.3711 54.0625ZM43.0078 59.1504C43.1055 59.4629 43.3105 60 43.4668 60.3418C43.623 60.6836 43.7305 60.9863 43.7109 61.0059C43.6523 61.0645 42.6953 60.5664 42.0801 60.1465C41.4551 59.7266 40.4297 58.8086 40.4297 58.6816C40.4297 58.6328 40.9668 58.5938 41.6309 58.5938H42.832L43.0078 59.1504ZM49.1211 58.6719C49.1211 58.8672 48.5938 60.0293 48.3008 60.4883C47.334 61.9922 46.416 61.9922 45.4492 60.4883C45.1563 60.0293 44.6289 58.8672 44.6289 58.6719C44.6289 58.6328 45.6445 58.5938 46.875 58.5938C48.1152 58.5938 49.1211 58.6328 49.1211 58.6719ZM53.1152 58.9453C52.5488 59.541 51.6309 60.2246 50.8398 60.6543C50.4297 60.8789 50.0684 61.0352 50.0391 61.0156C50.0195 60.9863 50.127 60.6836 50.2832 60.3418C50.4395 60 50.6445 59.4629 50.7422 59.1504L50.918 58.5938H52.1875H53.457L53.1152 58.9453ZM36.4063 61.3574C36.6406 61.709 38.3887 63.4473 38.75 63.6914L38.9844 63.8477L35.8789 67.5488C32.3047 71.8066 32.2266 71.9043 31.6504 72.2461C31.0059 72.627 29.9023 72.666 29.1895 72.3438C28.4375 72.002 28.0859 71.6602 27.7441 70.9766C27.2559 70 27.3438 68.8574 27.959 68.0469C28.2129 67.7148 35.9668 61.0645 36.1328 61.0449C36.1621 61.0352 36.2793 61.1816 36.4063 61.3574Z" fill="#AF1E22"/>
<path d="M55.4688 32.0312V32.8125H56.6895C57.3633 32.8125 57.9102 32.8223 57.9102 32.8418C57.9102 32.8613 58.1934 34.2969 58.5449 36.0352C58.9844 38.2422 59.1504 39.2188 59.0723 39.248C58.8086 39.3359 58.1641 40.0195 57.998 40.3809C57.7539 40.9082 57.7539 41.9141 57.998 42.4316C58.3887 43.2812 59.1699 43.75 60.1758 43.75C60.9375 43.75 61.4551 43.5254 61.9336 42.9883C62.3828 42.5 62.5293 42.0117 62.4805 41.2305L62.4512 40.625H64.0625H65.6738L65.6445 41.2305C65.5957 42.0117 65.7422 42.5 66.1914 42.9883C66.6797 43.5352 67.1875 43.75 67.9688 43.75C69.3848 43.75 70.3125 42.8125 70.3125 41.3867C70.3125 40.6152 70.0781 40.0781 69.5508 39.6387L69.1602 39.3164L69.7363 38.1641C70.2539 37.1387 70.3125 36.9531 70.3125 36.4258C70.3125 35.5566 69.9512 34.9414 69.2188 34.5605C68.877 34.3848 68.584 34.375 64.375 34.375H59.9023L59.6289 32.9297C59.4727 32.1387 59.3262 31.4355 59.2969 31.3672C59.2676 31.2793 58.7891 31.25 57.3633 31.25H55.4688V32.0312ZM68.3984 36.0352C68.7793 36.1816 68.7207 36.4746 68.0469 37.8418L67.4316 39.0625H64.1406C62.3242 39.0625 60.8398 39.043 60.8398 39.0332C60.8398 39.0137 60.7129 38.3398 60.5469 37.5488C60.3906 36.7578 60.2539 36.0645 60.2539 36.0156C60.2539 35.8984 68.0957 35.918 68.3984 36.0352ZM60.6445 40.918C60.752 41.0254 60.8398 41.2402 60.8398 41.4062C60.8398 41.5723 60.752 41.7871 60.6445 41.8945C60.5371 42.002 60.3223 42.0898 60.1562 42.0898C59.9902 42.0898 59.7754 42.002 59.668 41.8945C59.5605 41.7871 59.4727 41.5723 59.4727 41.4062C59.4727 41.2402 59.5605 41.0254 59.668 40.918C59.7754 40.8105 59.9902 40.7227 60.1562 40.7227C60.3223 40.7227 60.5371 40.8105 60.6445 40.918ZM68.457 40.918C68.5645 41.0254 68.6523 41.2402 68.6523 41.4062C68.6523 41.5723 68.5645 41.7871 68.457 41.8945C68.3496 42.002 68.1348 42.0898 67.9688 42.0898C67.8027 42.0898 67.5879 42.002 67.4805 41.8945C67.373 41.7871 67.2852 41.5723 67.2852 41.4062C67.2852 41.2402 67.373 41.0254 67.4805 40.918C67.5879 40.8105 67.8027 40.7227 67.9688 40.7227C68.1348 40.7227 68.3496 40.8105 68.457 40.918Z" fill="#AF1E22"/>
<path d="M34.7852 63.9941C34.502 64.2773 34.2773 64.5508 34.2773 64.6094C34.2773 64.7363 35.2832 65.7227 35.4102 65.7227C35.459 65.7227 35.7422 65.4785 36.0352 65.1855L36.5625 64.6484L35.9863 64.0625C35.6641 63.7402 35.3809 63.4766 35.3516 63.4766C35.3223 63.4766 35.0684 63.7109 34.7852 63.9941Z" fill="#AF1E22"/>
<path d="M32.5684 66.2109L31.9824 66.7969L32.5977 67.4023L33.2031 68.0176L33.7402 67.4805C34.0332 67.1875 34.2773 66.9043 34.2773 66.8457C34.2773 66.7871 34.0234 66.4941 33.7109 66.1816L33.1445 65.625L32.5684 66.2109Z" fill="#AF1E22"/>
<path d="M30.3711 68.4082L29.834 68.9453L30.4492 69.5605L31.0547 70.166L31.6113 69.5996L32.1777 69.043L31.5918 68.457C31.2695 68.1348 30.9863 67.8711 30.957 67.8711C30.9277 67.8711 30.6641 68.1152 30.3711 68.4082Z" fill="#AF1E22"/>
<path d="M67.9688 62.5V72.6562H67.1875H66.4062V66.4062V60.1562H63.2812H60.1562V66.4062V72.6562H59.375H58.5938V69.5312V66.4062H55.4688H52.3438V70.3125V74.2188H63.2812H74.2188V63.2812V52.3438H71.0938H67.9688V62.5ZM72.6562 63.2812V72.6562H71.0938H69.5312V63.2812V53.9062H71.0938H72.6562V63.2812ZM64.8438 67.1875V72.6562H63.2812H61.7188V67.1875V61.7188H63.2812H64.8438V67.1875ZM57.0312 70.3125V72.6562H55.4688H53.9062V70.3125V67.9688H55.4688H57.0312V70.3125Z" fill="#AF1E22"/>
</g>
<defs>
<clipPath id="clip0_533_9035">
<rect width="50" height="50" fill="white" transform="translate(25 25)"/>
</clipPath>
</defs>
</svg>
