<svg width="60" height="60" viewBox="0 0 60 60" fill="none" xmlns="http://www.w3.org/2000/svg">
<circle cx="30" cy="30" r="29.25" fill="#111C55" stroke="#2D3A7B" stroke-width="1.5"/>
<path d="M39.75 21H21.75C21.5511 21 21.3603 21.0843 21.2197 21.2343C21.079 21.3843 21 21.5878 21 21.8V35.4C21 35.8243 21.158 36.2313 21.4393 36.5314C21.7206 36.8314 22.1022 37 22.5 37H39C39.3978 37 39.7794 36.8314 40.0607 36.5314C40.342 36.2313 40.5 35.8243 40.5 35.4V21.8C40.5 21.5878 40.421 21.3843 40.2803 21.2343C40.1397 21.0843 39.9489 21 39.75 21ZM37.8216 22.6L30.75 29.515L23.6784 22.6H37.8216ZM39 35.4H22.5V23.619L30.2428 31.19C30.3812 31.3255 30.5622 31.4007 30.75 31.4007C30.9378 31.4007 31.1188 31.3255 31.2572 31.19L39 23.619V35.4Z" fill="white"/>
</svg>
