<svg width="100" height="100" viewBox="0 0 100 100" fill="none" xmlns="http://www.w3.org/2000/svg">
<circle cx="50" cy="50" r="50" fill="#100E3F" fill-opacity="0.05"/>
<g clip-path="url(#clip0_533_9003)">
<path d="M49.4141 25.9766C49.2383 26.1523 49.2188 26.2988 49.2188 27.7344C49.2188 29.1699 49.2383 29.3164 49.4141 29.4922C49.541 29.6191 49.7363 29.6875 50 29.6875C50.2637 29.6875 50.459 29.6191 50.5859 29.4922C50.7617 29.3164 50.7812 29.1699 50.7812 27.7344C50.7812 26.2988 50.7617 26.1523 50.5859 25.9766C50.459 25.8496 50.2637 25.7812 50 25.7812C49.7363 25.7812 49.541 25.8496 49.4141 25.9766Z" fill="#AF1E22"/>
<path d="M42.7051 28.7109C42.4316 28.8184 42.2852 29.1016 42.2852 29.502C42.2852 29.7852 42.4316 29.9707 43.3398 30.8789C44.2871 31.8262 44.4336 31.9336 44.7461 31.9336C45.2051 31.9336 45.498 31.6797 45.5762 31.2207C45.6348 30.8496 45.625 30.8398 44.5117 29.7266C43.3691 28.584 43.2227 28.5059 42.7051 28.7109Z" fill="#AF1E22"/>
<path d="M55.4981 29.7168C54.375 30.8398 54.3653 30.8496 54.4239 31.2207C54.502 31.6797 54.795 31.9336 55.2539 31.9336C55.5664 31.9336 55.7129 31.8262 56.6602 30.8789C57.6075 29.9316 57.7149 29.7852 57.7149 29.4727C57.7149 29.0137 57.461 28.7207 57.002 28.6426C56.6309 28.584 56.6211 28.5937 55.4981 29.7168Z" fill="#AF1E22"/>
<path d="M49.5313 31.3184C49.4629 31.3477 48.9649 32.2559 48.418 33.3301C47.8809 34.4141 47.4219 35.3223 47.4024 35.3418C47.3731 35.3711 46.3867 35.5273 45.2051 35.7031C43.6719 35.9277 42.9981 36.0742 42.8711 36.1816C42.627 36.4063 42.5391 36.8555 42.6856 37.1289C42.7442 37.2559 43.4766 38.0078 44.3067 38.8184L45.8203 40.2832L45.4688 42.3242C45.2735 43.4473 45.1172 44.4629 45.1172 44.5801C45.1172 44.6973 45.2051 44.9121 45.3223 45.0586C45.6836 45.5176 46.0352 45.4297 48.1348 44.3262L50 43.3496L51.8653 44.3262C53.9063 45.4102 54.2774 45.5078 54.668 45.0879C54.9512 44.7852 54.9414 44.6387 54.541 42.3047L54.1992 40.3125L55.8106 38.7402C57.2071 37.373 57.4219 37.1191 57.4219 36.8652C57.4219 36.4648 57.1973 36.1719 56.8067 36.0449C56.6407 35.9961 55.625 35.8301 54.5606 35.6836L52.6172 35.4199L51.6114 33.3984C51.0547 32.2852 50.5274 31.3477 50.4395 31.3086C50.2539 31.2402 49.7168 31.2402 49.5313 31.3184ZM51.4942 36.7969C51.5821 36.875 52.2754 37.0215 53.0469 37.1289C53.8184 37.2363 54.502 37.3438 54.5801 37.3633C54.668 37.3926 54.3262 37.8125 53.584 38.5645C52.9297 39.2285 52.4414 39.7949 52.4414 39.9023C52.4414 40 52.5489 40.7031 52.6856 41.4453C52.8223 42.1973 52.9297 42.8516 52.9297 42.9004C52.9297 42.9395 52.3438 42.6758 51.6211 42.2949C50.791 41.8555 50.2051 41.6016 50 41.6016C49.8047 41.6016 49.2188 41.8555 48.3789 42.2949C47.6563 42.6758 47.0703 42.9492 47.0703 42.9004C47.0703 42.8516 47.1778 42.1973 47.3145 41.4453C47.4512 40.7031 47.5586 40 47.5586 39.9023C47.5586 39.7949 47.0703 39.2285 46.416 38.5645C45.6739 37.8125 45.3321 37.3926 45.42 37.3633C45.4981 37.3438 46.1817 37.2363 46.9532 37.1289C47.7246 37.0215 48.418 36.875 48.4961 36.8066C48.584 36.7383 48.9551 36.0742 49.3262 35.3223L50.0098 33.9746L50.6739 35.3223C51.0352 36.0645 51.4063 36.7285 51.4942 36.7969Z" fill="#AF1E22"/>
<path d="M32.4414 38.3887C32.2071 38.457 32.0606 38.6035 31.8555 38.9648C31.6211 39.3945 31.5235 39.4727 30.9278 39.6973C30.3711 39.9219 30.2246 39.9414 29.961 39.8535C29.3555 39.6387 29.0528 39.7168 28.4375 40.2246C27.7735 40.7812 27.2852 41.3672 27.1973 41.709C27.168 41.8359 27.2071 42.1289 27.2852 42.3438C27.4219 42.7344 27.4121 42.793 27.168 43.4375C26.9336 44.043 26.8555 44.1406 26.4649 44.3457C26.2305 44.4727 25.9766 44.6875 25.9082 44.8242C25.752 45.1367 25.7422 47.0703 25.8887 47.3926C25.9473 47.5293 26.1914 47.7441 26.4356 47.8809C26.8164 48.0859 26.9141 48.2129 27.1485 48.7695C27.4219 49.4043 27.4219 49.4238 27.2656 49.8926C27.0606 50.5469 27.1778 50.791 28.1836 51.7578C29.0625 52.5977 29.2188 52.6562 29.9805 52.4316C30.293 52.334 30.4297 52.3535 30.9473 52.5488C31.4942 52.7637 31.5918 52.832 31.8555 53.3008C32.2071 53.916 32.3145 53.9551 33.7598 53.9551C34.9805 53.9551 35.0586 53.916 35.4883 53.1738C35.6446 52.9004 35.8301 52.7637 36.2793 52.5781C36.8164 52.3535 36.9043 52.3438 37.3633 52.4512C37.6465 52.5098 37.9883 52.5391 38.1446 52.5C38.4961 52.4121 39.9121 50.9961 40 50.6445C40.0391 50.4883 40.0098 50.1465 39.9512 49.8633C39.8438 49.4043 39.8535 49.3164 40.0781 48.7793C40.2637 48.3301 40.4004 48.1445 40.6739 47.9883C41.416 47.5586 41.4551 47.4805 41.4551 46.2598C41.4551 44.8242 41.416 44.6973 40.8301 44.3652C40.4102 44.1309 40.3028 44.0137 40.0781 43.4766C39.8438 42.9297 39.834 42.8125 39.9317 42.4902C40.166 41.6895 40.1172 41.5527 39.1699 40.6152C38.2422 39.6777 38.0469 39.5996 37.3242 39.8535C37.0606 39.9414 36.9141 39.9219 36.3184 39.6875C35.6934 39.4434 35.6055 39.375 35.3906 38.9551C35.2051 38.5742 35.0879 38.4668 34.7949 38.3887C34.3457 38.2617 32.8809 38.2617 32.4414 38.3887ZM34.1309 40.0879C34.1895 40.166 34.2969 40.3516 34.3848 40.5078C34.502 40.7227 34.6875 40.8398 35.0684 40.9668C35.3614 41.0645 35.8789 41.2695 36.2207 41.4355C36.836 41.7188 36.8555 41.7285 37.3047 41.582L37.7735 41.4355L38.0664 41.7188L38.3496 42.0117L38.2129 42.4902C38.0762 42.959 38.0762 42.9883 38.3692 43.5938C38.5352 43.9258 38.7403 44.4336 38.8281 44.7168C38.9551 45.166 39.0235 45.2441 39.4043 45.4297C39.834 45.6348 39.8438 45.6543 39.8438 46.0938C39.8438 46.5332 39.834 46.5527 39.4043 46.7578C39.0235 46.9434 38.9551 47.0215 38.8281 47.4707C38.7403 47.7539 38.5352 48.2617 38.3692 48.5938C38.0762 49.1992 38.0762 49.2285 38.2129 49.6973L38.3496 50.1758L38.0664 50.4688L37.7735 50.752L37.3047 50.6055C36.8653 50.4688 36.8262 50.4688 36.3672 50.6836C36.1133 50.8105 35.5957 51.0254 35.2149 51.1719C34.6192 51.3867 34.4922 51.4746 34.3067 51.8066C33.9356 52.4707 33.418 52.4512 32.9004 51.7676C32.627 51.416 32.461 51.2988 32.0313 51.1719C31.7383 51.084 31.2598 50.8887 30.9668 50.7422C30.4785 50.4883 30.4199 50.4785 29.961 50.5859C29.4922 50.7031 29.4629 50.6934 29.209 50.4492C28.9356 50.1855 28.9356 50.1855 29.0723 49.6875C29.2188 49.1992 29.2188 49.1895 28.877 48.4473C28.6914 48.0371 28.4863 47.5488 28.4278 47.3535C28.3399 47.0801 28.2031 46.9434 27.8321 46.7383C27.3731 46.4844 27.3438 46.4453 27.3438 46.0938C27.3438 45.7422 27.3828 45.6836 27.7051 45.5176C28.2031 45.2637 28.3594 45.0684 28.5645 44.4336C28.6621 44.1406 28.8477 43.6914 28.9746 43.4375C29.1992 42.998 29.209 42.9395 29.1016 42.4707C28.9844 41.9922 28.9942 41.9727 29.2383 41.709L29.502 41.4355L30.0196 41.582C30.5176 41.7188 30.5371 41.7188 31.1133 41.4258C31.4356 41.2695 31.8946 41.084 32.1289 41.0156C32.627 40.8887 32.9395 40.6348 33.1055 40.2344C33.2617 39.8438 33.8867 39.7656 34.1309 40.0879Z" fill="#AF1E22"/>
<path d="M32.3535 42.666C31.7188 42.9004 31.4062 43.1152 30.8691 43.7012C30.1953 44.4336 30.0391 44.8926 30.0391 46.0938C30.0391 46.9434 30.0684 47.1973 30.2539 47.5879C30.5469 48.2324 31.3672 49.0625 32.0215 49.3848C32.5195 49.6289 32.666 49.6582 33.5938 49.6582C34.4434 49.6484 34.6973 49.6094 35.0879 49.4336C35.7324 49.1406 36.5625 48.3203 36.8848 47.666C37.1289 47.1777 37.1582 47.0117 37.1582 46.0938C37.1582 45.1758 37.1289 45.0098 36.8848 44.5215C36.5625 43.8574 35.7324 43.0469 35.0879 42.7539C34.4043 42.4512 33.0371 42.4121 32.3535 42.666ZM34.4727 44.3555C34.7266 44.4922 35.0293 44.7559 35.2051 45C35.459 45.3711 35.498 45.5078 35.498 46.0938C35.498 46.6797 35.459 46.8164 35.2051 47.1875C34.3555 48.4082 32.5391 48.291 31.8555 46.9727C31.6699 46.6211 31.6309 46.416 31.6602 45.9668C31.7578 44.5703 33.2227 43.7305 34.4727 44.3555Z" fill="#AF1E22"/>
<path d="M64.4531 38.4863C60.9375 39.3945 58.584 42.4512 58.584 46.0938C58.584 48.5449 59.6094 50.7227 61.4844 52.2266C62.8809 53.3496 64.5215 53.9062 66.4062 53.9062C68.291 53.9062 69.9316 53.3496 71.3281 52.2266C73.2031 50.7227 74.2285 48.5547 74.2285 46.0938C74.2285 44.6875 74.0039 43.7598 73.3691 42.4805C72.9785 41.6895 72.7637 41.4062 71.9238 40.5664C71.0742 39.7168 70.8203 39.5215 70.0195 39.1211C68.7109 38.4863 67.8223 38.2812 66.3672 38.291C65.5273 38.291 64.9707 38.3496 64.4531 38.4863ZM67.9199 40.1074C69.6484 40.5371 71.1621 41.7676 71.9629 43.418C72.373 44.2578 72.5586 45.0879 72.5586 46.1328C72.5586 48.4863 71.2793 50.5176 69.1211 51.6113C67.2852 52.5293 65.0391 52.4316 63.2031 51.3477C62.002 50.6445 60.8008 49.082 60.4492 47.7539C59.8438 45.498 60.5176 43.1348 62.2168 41.5527C63.7695 40.1172 65.8496 39.5898 67.9199 40.1074Z" fill="#AF1E22"/>
<path d="M65.8692 40.7617C65.7422 40.8496 65.6641 41.0645 65.625 41.416L65.5762 41.9434L65.1856 42.002C63.3399 42.2559 62.5293 44.4922 63.7207 46.0547C64.0137 46.4355 64.8633 46.875 65.3028 46.875H65.625V47.7051C65.625 48.6816 65.5567 48.7207 64.9903 48.1445C64.6778 47.8223 64.5411 47.7539 64.2383 47.7539C63.8282 47.7539 63.5157 47.9883 63.418 48.3887C63.2813 48.9453 64.1211 49.873 64.9707 50.1074C65.1954 50.166 65.4395 50.2344 65.5079 50.2539C65.5762 50.2734 65.625 50.459 65.625 50.7324C65.625 51.2988 65.8692 51.5625 66.3868 51.5625C66.9434 51.5625 67.1192 51.377 67.1875 50.7715L67.2364 50.2441L67.6465 50.1855C68.5743 50.0684 69.4336 49.209 69.6192 48.2227C69.8633 46.8652 68.9161 45.4785 67.627 45.3418L67.1875 45.2832V44.4727C67.1875 43.9746 67.2266 43.6523 67.2852 43.6523C67.3438 43.6523 67.5782 43.8281 67.8125 44.043C68.1348 44.3457 68.3106 44.4336 68.584 44.4336C69.0821 44.4336 69.3848 44.1504 69.3848 43.6719C69.3848 42.9883 68.6426 42.2754 67.6758 42.0312L67.2364 41.9238L67.1875 41.4062C67.1192 40.8105 66.9336 40.625 66.4063 40.625C66.211 40.625 65.9668 40.6836 65.8692 40.7617ZM65.625 44.4336C65.625 45.3027 65.5079 45.4297 65.1465 44.9609C64.8731 44.6094 64.8829 44.1895 65.1856 43.8965C65.5664 43.5059 65.625 43.584 65.625 44.4336ZM67.6661 47.2266C67.9395 47.5781 67.9297 47.998 67.627 48.291C67.2461 48.6816 67.1875 48.6035 67.1875 47.7539C67.1875 46.8848 67.3047 46.7578 67.6661 47.2266Z" fill="#AF1E22"/>
<path d="M48.2422 49.4727C45.9277 50.2637 44.5312 52.2168 44.5312 54.6778C44.5312 55.7618 44.6777 56.377 45.1855 57.334C45.6836 58.3008 46.4746 59.0723 47.5098 59.6094L47.998 59.8731L47.4121 59.8047C46.5039 59.7168 44.873 59.3946 43.8965 59.1211C42.7734 58.8086 42.0605 58.5547 38.7891 57.2852C36.2793 56.3086 36.0742 56.2501 35.4199 56.2501C33.8379 56.2598 32.8125 57.2754 32.8125 58.8282C32.8125 59.629 33.0078 60.1368 33.5059 60.6348C33.7305 60.8594 35.2832 61.6797 38.4082 63.2422C41.748 64.9122 42.998 65.586 43.0762 65.752C43.1348 65.8985 43.0859 67.1094 42.8906 69.7266C42.6465 72.8907 42.627 73.5352 42.7344 73.7989C42.8711 74.1309 43.1348 74.2579 43.6035 74.1993C44.1699 74.1309 44.209 73.9844 44.4824 70.2833C44.834 65.42 44.8145 65.1172 44.1602 64.4141C43.9941 64.2481 42.1387 63.2618 39.3359 61.8555C36.5332 60.459 34.7266 59.4922 34.6289 59.3555C34.2285 58.7891 34.6777 57.9102 35.3613 57.9102C35.5371 57.9102 36.9727 58.4083 38.5645 59.0235C42.041 60.3711 42.6074 60.5567 44.1602 60.9376C46.3184 61.4551 47.373 61.5723 50 61.5723C52.7539 61.5723 53.8672 61.4356 56.2012 60.8399C57.7148 60.459 58.4766 60.1856 62.1582 58.7501C63.3398 58.2911 64.4531 57.9102 64.6289 57.9102C65.3223 57.9102 65.7715 58.7891 65.3711 59.3555C65.2734 59.4922 63.4668 60.459 60.6445 61.8653C56.7188 63.8282 56.0352 64.1993 55.7422 64.5508C55.1367 65.254 55.127 65.3614 55.4102 69.3458C55.7227 73.7012 55.7324 73.7989 55.9766 74.043C56.2598 74.3262 56.9922 74.2579 57.2461 73.9161C57.4414 73.6622 57.4414 73.6329 57.1582 69.8145C56.9727 67.4024 56.9043 65.8887 56.9531 65.7715C57.0117 65.6348 58.5547 64.8145 61.6602 63.2618C66.7871 60.6934 66.8359 60.6543 67.1582 59.5801C67.666 57.8223 66.4551 56.2598 64.5898 56.2501C63.9258 56.2501 63.7207 56.3184 60.6348 57.5098C56.6211 59.0528 54.8145 59.5704 52.5879 59.8047L52.002 59.8731L52.6562 59.5118C53.8867 58.8477 54.9023 57.5684 55.3125 56.1622C55.4102 55.8301 55.4688 55.2637 55.4688 54.6485C55.4688 53.8184 55.4199 53.5352 55.1953 52.8711C54.6094 51.1915 53.3789 49.9805 51.7285 49.4629C50.6445 49.1211 49.2773 49.1211 48.2422 49.4727ZM50.9766 50.9864C52.002 51.2208 53.0078 52.0606 53.4961 53.1055C53.7305 53.5938 53.7598 53.7793 53.7598 54.6876C53.7598 55.5958 53.7305 55.7813 53.4961 56.2696C53.1348 57.0508 52.4512 57.754 51.6699 58.1348C51.0742 58.4278 50.9668 58.4473 50 58.4473C49.0918 58.4473 48.916 58.418 48.4082 58.1836C47.6855 57.8418 46.8457 57.002 46.5039 56.2793C46.2695 55.7715 46.2402 55.5958 46.2402 54.6876C46.2402 53.7793 46.2695 53.5938 46.5039 53.1055C47.041 51.9629 48.2422 51.045 49.4336 50.8887C49.9805 50.8106 50.2637 50.8301 50.9766 50.9864Z" fill="#AF1E22"/>
<path d="M33.7402 63.6523C32.3828 64.3945 31.3477 65.3613 30.8398 66.3379C30.5371 66.9043 30.5176 67.002 30.5176 67.9688C30.5176 68.9551 30.5273 69.0137 30.8594 69.6289C31.0449 69.9805 31.4453 70.5078 31.748 70.8105C32.627 71.6895 34.0039 72.5586 34.5215 72.5586C34.873 72.5586 35.2539 72.1484 35.2539 71.7773C35.2539 71.3086 35.1074 71.1328 34.375 70.7031C33.5059 70.1953 32.5879 69.3457 32.334 68.8086C32.0703 68.2813 32.0703 67.6563 32.334 67.1289C32.5879 66.5918 33.5059 65.7422 34.375 65.2344C34.7461 65.0195 35.0977 64.7559 35.1563 64.6484C35.332 64.3262 35.2734 63.877 35.0098 63.623C34.6973 63.3105 34.3457 63.3105 33.7402 63.6523Z" fill="#AF1E22"/>
<path d="M64.209 63.623C63.9453 63.877 63.8867 64.3262 64.0625 64.6484C64.1211 64.7559 64.4727 65.0195 64.8438 65.2344C65.7129 65.7422 66.6309 66.5918 66.8848 67.1289C67.3242 68.0176 67.0606 68.877 66.1035 69.7656C65.7813 70.0684 65.2149 70.4883 64.8438 70.7031C64.1113 71.1328 63.9649 71.3086 63.9649 71.7773C63.9649 72.1484 64.3457 72.5586 64.6973 72.5586C65.2149 72.5586 66.5918 71.6895 67.4707 70.8105C67.7735 70.5078 68.1738 69.9805 68.3594 69.6289C68.6914 69.0137 68.7012 68.9551 68.7012 67.9688C68.7012 66.9824 68.6914 66.9238 68.3594 66.3086C67.8223 65.3125 66.6309 64.2383 65.3613 63.584C64.8242 63.3105 64.502 63.3203 64.209 63.623Z" fill="#AF1E22"/>
</g>
<defs>
<clipPath id="clip0_533_9003">
<rect width="50" height="50" fill="white" transform="translate(25 25)"/>
</clipPath>
</defs>
</svg>
