<svg width="100" height="100" viewBox="0 0 100 100" fill="none" xmlns="http://www.w3.org/2000/svg">
<circle cx="50" cy="50" r="50" fill="#100E3F" fill-opacity="0.05"/>
<path d="M31.2109 30.2344C29.8535 30.5664 28.5839 31.5918 27.9785 32.8614C26.8652 35.1661 27.6171 37.8907 29.746 39.2676L30.371 39.6778V52.8809V66.084L29.8828 66.1329C28.8964 66.2305 28.2128 67.002 28.2128 68.0176C28.2128 68.5645 28.4375 69.1504 28.7792 69.4532C29.3261 69.9512 28.0957 69.9219 50.3613 69.9219C70.2636 69.9219 71.0644 69.9122 71.4355 69.7364C72.9492 69.0332 72.9101 66.9141 71.3671 66.2598C71.1621 66.1817 70.8691 66.1133 70.7031 66.1133H70.4101V63.6231V61.1231L70.166 60.8887C69.9316 60.6446 69.9023 60.6446 68.2128 60.6446H66.5039V54.5606C66.5039 49.961 66.4746 48.4473 66.3867 48.3594C66.2988 48.2715 65.332 48.2422 62.6269 48.2422H58.9843V42.2266C58.9843 36.211 58.9746 35.9278 58.6523 35.7227C58.5937 35.6836 55.7324 35.6446 52.2851 35.6446C46.3476 35.6446 46.0156 35.6543 45.8691 35.8204C45.7226 35.9864 45.7031 36.5625 45.7031 42.1192V48.2422H42.0605C38.6425 48.2422 38.3984 48.252 38.2519 48.418C38.1054 48.584 38.0859 49.1504 38.0859 54.6192V60.6446H36.3281H34.5703V50.1172V39.5997L34.9999 39.375C35.9472 38.8672 37.0019 37.4805 37.3046 36.3477C37.3632 36.1133 37.4121 35.5567 37.4121 35.1075C37.4218 33.6524 36.9628 32.5489 35.9472 31.5332C34.6874 30.2832 32.9785 29.8047 31.2109 30.2344ZM33.9843 31.6993C35.1367 32.2461 35.9375 33.2911 36.1328 34.5411C36.3867 36.0938 35.5078 37.7051 34.0332 38.4375C33.5058 38.6914 33.3496 38.7207 32.4707 38.7207C31.5624 38.7207 31.4453 38.7012 30.8398 38.3985C29.1796 37.5782 28.3496 35.7129 28.8964 34.0039C29.2675 32.8516 30.1269 31.9629 31.2695 31.5332C32.0507 31.25 33.1542 31.3184 33.9843 31.6993ZM57.7148 42.5293V48.1446H52.3437H46.9726V42.5293V36.9141H52.3437H57.7148V42.5293ZM33.3007 53.0762V66.1133H32.4707H31.6406V53.0762V40.0391H32.4707H33.3007V53.0762ZM50.0976 55.0293V60.6446H44.7265H39.3554V55.0293V49.4141H44.7265H50.0976V55.0293ZM53.2226 55.0293V60.6446H52.2949H51.3671V55.0293V49.4141H52.2949H53.2226V55.0293ZM65.332 55.0293V60.6446H59.9121H54.4921V55.0293V49.4141H59.9121H65.332V55.0293ZM69.1406 64.0137V66.1133H51.8554H34.5703V65.3809V64.6485H35.2539C36.0156 64.6485 36.3281 64.4629 36.3281 64.0137C36.3281 63.5645 36.0156 63.3789 35.2539 63.3789H34.5703V62.6465V61.9141H51.8554H69.1406V64.0137ZM71.0644 67.5977C71.3378 67.8614 71.3476 68.1543 71.0937 68.4375L70.8886 68.6524H50.3515C30.0585 68.6524 29.8144 68.6524 29.6386 68.4571C29.4042 68.1934 29.4238 67.7735 29.6874 67.5586C29.8925 67.3926 30.7617 67.3829 50.371 67.3829H70.8398L71.0644 67.5977Z" fill="#AF1E22"/>
<path d="M33.5253 32.8809C33.203 33.2422 33.1737 33.252 32.539 33.252C31.5136 33.252 30.8495 33.7696 30.6737 34.6973C30.4393 35.9473 31.4159 37.0313 32.6659 36.8946C33.7987 36.7579 34.5897 35.4981 34.1893 34.4434C34.1112 34.2579 34.16 34.1407 34.4335 33.7891C34.8046 33.3204 34.8632 32.9297 34.5897 32.6856C34.2772 32.4024 33.9061 32.4805 33.5253 32.8809ZM32.8124 34.668C33.0761 34.9317 33.0663 35.3028 32.7929 35.4883C32.4804 35.7129 32.2655 35.6836 32.0409 35.3907C31.7772 35.0586 31.787 35 32.08 34.7168C32.3632 34.4239 32.5585 34.4141 32.8124 34.668Z" fill="#AF1E22"/>
<path d="M48.7793 40.3125C48.3984 40.5957 47.3633 41.8164 47.3633 41.9824C47.3633 42.4316 48.1055 42.7734 48.418 42.4609C48.5059 42.373 48.5352 42.666 48.5352 43.8086C48.5352 45.4102 48.5645 45.5078 49.082 45.5078C49.6582 45.5078 49.707 45.3613 49.707 43.7891C49.707 42.3828 49.707 42.373 49.9121 42.4805C50.3613 42.7246 50.9473 42.2656 50.8301 41.7676C50.791 41.6309 50.4688 41.2305 50.0977 40.8789C49.5898 40.3906 49.3652 40.2344 49.1504 40.2344C49.0039 40.2344 48.8379 40.2734 48.7793 40.3125Z" fill="#AF1E22"/>
<path d="M52.2851 40.9278C51.4843 41.7481 51.4452 41.8164 51.5234 42.1387C51.621 42.5391 52.246 42.7344 52.5194 42.461C52.6073 42.3731 52.6366 42.666 52.6366 43.7696C52.6366 45.4004 52.6855 45.5371 53.3105 45.4883C53.8183 45.4493 53.9062 45.2051 53.9062 43.7305V42.4805L54.1894 42.5391C54.414 42.5879 54.5312 42.5489 54.7265 42.3535C55.1269 41.9532 55.0585 41.7383 54.2675 40.9473C53.3105 39.9903 53.1835 39.9903 52.2851 40.9278Z" fill="#AF1E22"/>
<path d="M48.0664 45.8594C47.793 46.0449 47.7734 46.582 48.0273 46.8066C48.1836 46.9531 48.5547 46.9727 51.1914 46.9727C53.9551 46.9727 54.1797 46.9629 54.3262 46.7969C54.5703 46.5332 54.541 46.0352 54.2773 45.8594C54.0918 45.7227 53.623 45.7031 51.1719 45.7031C48.7207 45.7031 48.252 45.7227 48.0664 45.8594Z" fill="#AF1E22"/>
<path d="M40.5566 53.4376C39.873 54.1114 39.834 54.1603 39.8633 54.5411C39.9023 55.0099 40.2344 55.2442 40.6641 55.0782L40.918 54.9806V56.3966C40.918 57.7345 40.9277 57.8126 41.1328 57.9493C41.4551 58.1739 41.7578 58.1349 41.9824 57.8517C42.168 57.6173 42.1875 57.461 42.1875 56.3087V55.0196L42.5684 55.0587C42.8711 55.088 42.9785 55.0587 43.1055 54.8731C43.3691 54.4923 43.291 54.2481 42.7051 53.6134C42.1582 53.0177 41.748 52.7345 41.4453 52.7345C41.3574 52.7345 40.957 53.047 40.5566 53.4376Z" fill="#AF1E22"/>
<path d="M44.6679 53.4473C43.9746 54.1309 43.9355 54.1992 43.9648 54.5508C44.0039 55.0098 44.3457 55.2441 44.7656 55.0781L45.0195 54.9805V56.3477C45.0195 57.5879 45.039 57.7344 45.2148 57.9102C45.3222 58.0176 45.5176 58.1055 45.6543 58.1055C45.791 58.1055 45.9863 58.0176 46.0937 57.9102C46.2695 57.7344 46.289 57.5879 46.289 56.3672V55.0195L46.6308 55.0586C47.0703 55.1074 47.3633 54.873 47.3633 54.4629C47.3633 54.0723 46.1914 52.8613 45.7226 52.7734C45.4199 52.7148 45.3515 52.7539 44.6679 53.4473Z" fill="#AF1E22"/>
<path d="M40.4004 58.4766C40.1953 58.7012 40.1855 59.082 40.3711 59.3359C40.5078 59.5117 40.6738 59.5215 43.4863 59.5508C46.2695 59.5801 46.4648 59.5703 46.6797 59.3945C46.8359 59.2676 46.9043 59.1113 46.9043 58.8867C46.9043 58.3105 46.8652 58.3008 43.5547 58.3008C40.7715 58.3008 40.5469 58.3105 40.4004 58.4766Z" fill="#AF1E22"/>
<path d="M55.7421 53.4864C55.078 54.1309 54.9706 54.2871 54.9999 54.5313C55.039 54.9317 55.4393 55.2149 55.7909 55.0879L56.0546 54.9805V56.25C56.0546 57.002 56.1034 57.6075 56.1718 57.7637C56.3085 58.0762 56.6893 58.1836 57.0214 57.9981C57.2753 57.8516 57.2753 57.8418 57.3046 56.4258L57.3339 55L57.6952 55.0489C58.1542 55.1075 58.3983 54.9024 58.3983 54.4532C58.3983 54.1895 58.2811 54.0235 57.6757 53.4375C57.2167 52.9883 56.8749 52.7344 56.7382 52.7344C56.6015 52.7344 56.2401 53.0079 55.7421 53.4864Z" fill="#AF1E22"/>
<path d="M59.9023 53.4376C59.502 53.8282 59.1504 54.2384 59.1211 54.3556C59.0039 54.8243 59.5606 55.2931 59.9707 55.0782C60.1465 54.9806 60.1563 55.0196 60.1563 56.2794C60.1563 57.461 60.1758 57.6173 60.3613 57.8517C60.5859 58.1349 60.8887 58.1739 61.2109 57.9493C61.416 57.8126 61.4258 57.7345 61.4258 56.3966V55.0001L61.7969 55.0489C62.2754 55.1075 62.5293 54.9122 62.5293 54.4923C62.5293 54.2286 62.4121 54.0626 61.7969 53.4571C61.3281 52.9981 60.9766 52.7345 60.8398 52.7345C60.7031 52.7345 60.3613 52.9884 59.9023 53.4376Z" fill="#AF1E22"/>
<path d="M55.625 58.4277C55.3711 58.6133 55.3906 59.1699 55.6641 59.3945C55.8789 59.5703 56.0742 59.5801 58.8574 59.5508C61.6699 59.5215 61.8359 59.5117 61.9727 59.3359C62.1582 59.0723 62.1484 58.6523 61.9336 58.4668C61.7773 58.3203 61.4062 58.3008 58.7793 58.3008C56.5137 58.3008 55.7617 58.3301 55.625 58.4277Z" fill="#AF1E22"/>
<path d="M39.6973 63.623C39.5605 63.75 39.4531 63.9062 39.4531 63.9648C39.4531 64.1211 39.6582 64.4824 39.7852 64.5703C39.8438 64.6094 40.9961 64.6484 42.3438 64.6484C44.9609 64.6484 45.0488 64.6289 45.166 64.1602C45.2051 63.9844 45.166 63.8281 45.0195 63.6426L44.8145 63.3789H42.373H39.9316L39.6973 63.623Z" fill="#AF1E22"/>
<path d="M48.5352 63.5742C48.4277 63.6816 48.3398 63.877 48.3398 64.0137C48.3398 64.1504 48.4277 64.3457 48.5352 64.4531C48.7109 64.6289 48.8574 64.6484 49.8535 64.6484C50.8496 64.6484 50.9961 64.6289 51.1719 64.4531C51.2793 64.3457 51.3672 64.1504 51.3672 64.0137C51.3672 63.877 51.2793 63.6816 51.1719 63.5742C50.9961 63.3984 50.8496 63.3789 49.8535 63.3789C48.8574 63.3789 48.7109 63.3984 48.5352 63.5742Z" fill="#AF1E22"/>
</svg>
