<svg width="100" height="100" viewBox="0 0 100 100" fill="none" xmlns="http://www.w3.org/2000/svg">
<circle cx="50" cy="50" r="50" fill="#100E3F" fill-opacity="0.05"/>
<path d="M43.8965 26.8066C43.8477 26.8262 43.6426 26.8652 43.4473 26.8945C43.252 26.9336 42.4609 27.334 41.6992 27.7832C40.9375 28.2422 40.2832 28.6133 40.2441 28.6133C40.1172 28.6133 39.5801 29.2383 39.3945 29.5898C39.2773 29.8242 39.2188 30.1465 39.209 30.6152C39.209 31.2402 39.248 31.377 39.6875 32.2266C40.3223 33.4766 40.459 33.6133 41.0059 33.584L41.4355 33.5547L41.6602 34.0723C41.7871 34.3555 42.0117 34.9512 42.1582 35.3906C42.3828 36.084 42.4121 36.3086 42.3828 37.207C42.3047 40.2246 42.2949 40.0977 42.7441 41.0156C42.9688 41.4746 43.4766 42.4023 43.8867 43.0859L44.6191 44.3359H40.8691H37.1094V37.1094C37.1094 28.6621 37.1777 29.248 36.0449 28.1152C35.166 27.2363 34.5898 27.0215 33.3008 27.0703C32.4707 27.0996 32.3047 27.1387 31.7578 27.4414C30.9766 27.8516 30.2539 28.6426 29.9902 29.3457C29.7852 29.8828 29.7852 30.0488 29.7852 37.1094V44.3359H28.4863C27.2852 44.3359 27.1484 44.3555 26.6797 44.5898C26.0547 44.9023 25.3613 45.6543 25.1562 46.2598C25.0684 46.5137 25 47.0312 25 47.4121C25 48.4668 25.4492 49.2969 26.3477 49.9023C26.543 50.0293 26.8848 51.3574 29.1406 60.5957C30.5566 66.3965 31.7676 71.2695 31.8262 71.416C31.8848 71.5723 31.9336 71.709 31.9336 71.7383C31.9336 71.7578 31.5039 71.7773 30.9766 71.7773C30.166 71.7773 29.9805 71.8066 29.8535 71.9531C29.6289 72.1973 29.6387 72.7832 29.8633 72.9785C30.0293 73.1348 31.5723 73.1445 50.0195 73.1445C69.2383 73.1445 70 73.1348 70.1465 72.9688C70.3711 72.7246 70.3613 72.1387 70.1367 71.9434C69.9902 71.8066 69.7461 71.7773 68.9551 71.7773C68.0371 71.7773 67.9492 71.7676 68.0176 71.6016C68.0566 71.5137 69.2969 66.6309 70.7617 60.7617L73.4277 50.0879L73.9844 49.5801C74.7363 48.8965 75 48.3203 75 47.3633C75 46.4355 74.6973 45.7422 74.0137 45.0977C73.3398 44.4727 72.8906 44.3359 71.4258 44.3359H70.2246L70.1953 38.4961L70.166 32.666L69.8828 31.8359C69.3848 30.3418 68.7305 29.2676 67.8223 28.4375C66.7285 27.4316 65.7812 27.0508 64.4141 27.0508C61.6797 27.0605 59.541 29.1797 58.8477 32.5586C58.7109 33.2129 58.6816 34.1211 58.6914 38.8281V44.3359H58.0176H57.3438L57.2754 43.9746C57.1875 43.4961 57.2168 43.5449 54.9805 39.7461C53.9258 37.9492 53.0371 36.4062 53.0078 36.3281C52.8809 35.9766 52.0117 34.8438 51.5918 34.4727C51.3477 34.2578 50.7422 33.8672 50.2637 33.6133C49.1602 33.0371 48.3008 32.3145 47.4414 31.2598C46.8457 30.5176 46.7969 30.4199 46.9238 30.2734C47.1973 29.9707 47.0898 29.5703 46.4844 28.5645C45.8398 27.4902 45.4395 27.0898 44.9219 26.9629C44.4336 26.8359 44.0137 26.7773 43.8965 26.8066ZM44.5312 28.3691C44.8242 28.5254 45.2832 29.3652 45.1465 29.502C45.0098 29.6191 41.1816 31.8457 41.1621 31.8164C41.1426 31.7969 41.0156 31.5625 40.8691 31.2793C40.5762 30.7031 40.5957 30.3223 40.9473 30.0098C41.2207 29.7656 43.5742 28.3496 43.8086 28.291C44.1406 28.2129 44.248 28.2227 44.5312 28.3691ZM65.752 28.7891C65.9961 28.8965 66.2109 29.0234 66.2402 29.0723C66.2891 29.1504 60.4492 32.5488 60.3711 32.4805C60.2832 32.3828 61.0059 30.791 61.3672 30.3027C62.5879 28.6426 64.1797 28.0957 65.752 28.7891ZM34.6484 28.8379C35.1758 29.1797 35.5176 29.707 35.6445 30.3613C35.7031 30.6836 35.7422 33.457 35.7422 37.6074V44.3359H33.4473H31.1523V37.6074C31.1523 33.5059 31.1914 30.6836 31.25 30.3613C31.377 29.6777 31.7773 29.1211 32.373 28.7793C32.8027 28.5449 32.9492 28.5156 33.5547 28.5352C34.1113 28.5645 34.3262 28.6133 34.6484 28.8379ZM68.2129 31.6211C68.3496 31.9629 68.5254 32.5098 68.6035 32.8223L68.7305 33.4082L68.2324 33.6914C67.9492 33.8477 66.0156 34.9609 63.916 36.1621L60.1074 38.3496L60.0781 36.4453C60.0586 34.9316 60.0781 34.502 60.1855 34.4043C60.2637 34.3262 61.9238 33.3496 63.877 32.2363L67.4316 30.2051L67.6953 30.6055C67.8418 30.8203 68.0762 31.2891 68.2129 31.6211ZM46.0156 31.8555C47.0996 33.291 48.1836 34.2188 49.8047 35.0977C50.6152 35.5371 51.3477 36.1914 51.2012 36.3379C51.1523 36.377 49.541 37.334 47.6074 38.4668L44.0918 40.5273L43.9062 40.1172C43.7598 39.7559 43.7402 39.5703 43.8086 38.8184C43.8574 38.3301 43.8867 37.4512 43.8867 36.8652C43.877 35.9277 43.8379 35.6738 43.5742 34.8926C43.4082 34.3945 43.125 33.7109 42.959 33.3789C42.793 33.0469 42.6953 32.7539 42.7344 32.7441C42.793 32.7148 45.3516 31.2402 45.4688 31.1621C45.4785 31.1523 45.7227 31.4746 46.0156 31.8555ZM68.7793 38.291C68.7012 38.3594 67.6074 39.0039 62.2852 42.0703L60.0586 43.3496V41.7188V40.0879L64.4336 37.5781L68.7988 35.0781L68.8281 36.6504C68.8379 37.5098 68.8184 38.252 68.7793 38.291ZM52.627 38.6523C52.9492 39.209 53.2227 39.6973 53.2227 39.7266C53.2129 39.7852 46.4746 43.6914 46.1719 43.7988C46.084 43.8379 45.8496 43.5254 45.4785 42.8711C45.1758 42.3438 44.9219 41.8652 44.9219 41.8262C44.9219 41.7578 51.9824 37.5879 52.0117 37.627C52.0215 37.6367 52.2949 38.1055 52.627 38.6523ZM68.8477 42.1875V44.3359L65.1172 44.3262C62.5781 44.3262 61.4258 44.2969 61.5234 44.2285C61.8555 44.0039 68.7109 40.0586 68.7793 40.0488C68.8184 40.0391 68.8477 41.0059 68.8477 42.1875ZM54.9512 42.6172C55.4395 43.4473 55.8008 44.1699 55.7715 44.2285C55.7227 44.3066 54.6582 44.3262 52.0605 44.3164L48.418 44.2871L51.1426 42.7051C52.6367 41.8262 53.9062 41.1133 53.9648 41.1133C54.0234 41.1133 54.4727 41.7871 54.9512 42.6172ZM72.793 46.0352C73.8086 46.8066 73.7891 47.9395 72.7734 48.6426L72.4219 48.877L50.3027 48.9062C35.0684 48.916 28.0176 48.8965 27.6758 48.8281C26.9238 48.6719 26.4648 48.1152 26.4648 47.3438C26.4648 46.5918 26.9434 45.9668 27.6465 45.8008C27.832 45.7617 37.9785 45.7324 50.2051 45.7324L72.4316 45.752L72.793 46.0352ZM71.7773 50.3613C71.7773 50.4102 70.625 55.0781 69.2188 60.7422C67.5391 67.4902 66.582 71.1328 66.4551 71.3281C66.3477 71.4941 66.1523 71.6504 66.0156 71.6895C65.6152 71.7969 34.375 71.7871 33.9746 71.6797C33.7305 71.6113 33.5742 71.4844 33.4277 71.2207C33.2617 70.9277 28.2227 50.7324 28.2227 50.3711C28.2227 50.2734 71.7773 50.2637 71.7773 50.3613Z" fill="#AF1E22"/>
<path d="M38.252 52.9102C38.0957 53.0762 38.0859 53.7989 38.0859 61.25C38.0859 69.0235 38.0957 69.4141 38.2617 69.5606C38.5059 69.7852 39.0918 69.7754 39.2871 69.5508C39.4434 69.3848 39.4531 68.6622 39.4531 61.211C39.4531 53.4375 39.4434 53.0469 39.2773 52.9004C39.0332 52.6758 38.4473 52.6856 38.252 52.9102Z" fill="#AF1E22"/>
<path d="M43.8184 52.9102C43.6621 53.0762 43.6523 53.7989 43.6523 61.25C43.6523 69.0235 43.6621 69.4141 43.8281 69.5606C44.0723 69.7852 44.6582 69.7754 44.8535 69.5508C45.0098 69.3848 45.0195 68.6622 45.0195 61.211C45.0195 53.4375 45.0098 53.0469 44.8438 52.9004C44.5996 52.6758 44.0137 52.6856 43.8184 52.9102Z" fill="#AF1E22"/>
<path d="M49.4824 52.9102C49.3262 53.0762 49.3164 53.7989 49.3164 61.25C49.3164 69.0235 49.3262 69.4141 49.4922 69.5606C49.7363 69.7852 50.3223 69.7754 50.5176 69.5508C50.6738 69.3848 50.6836 68.6622 50.6836 61.211C50.6836 53.4375 50.6738 53.0469 50.5078 52.9004C50.2637 52.6758 49.6777 52.6856 49.4824 52.9102Z" fill="#AF1E22"/>
<path d="M55.0488 52.9102C54.8926 53.0762 54.8828 53.7989 54.8828 61.25C54.8828 69.0235 54.8926 69.4141 55.0586 69.5606C55.3027 69.7852 55.8887 69.7754 56.084 69.5508C56.2402 69.3848 56.25 68.6622 56.25 61.211C56.25 53.4375 56.2402 53.0469 56.0742 52.9004C55.8301 52.6758 55.2441 52.6856 55.0488 52.9102Z" fill="#AF1E22"/>
<path d="M60.7129 52.9102C60.5566 53.0762 60.5469 53.7989 60.5469 61.25C60.5469 69.0235 60.5566 69.4141 60.7227 69.5606C60.9668 69.7852 61.5527 69.7754 61.748 69.5508C61.9043 69.3848 61.9141 68.6622 61.9141 61.211C61.9141 53.4375 61.9043 53.0469 61.7383 52.9004C61.4941 52.6758 60.9082 52.6856 60.7129 52.9102Z" fill="#AF1E22"/>
</svg>
