<svg width="100" height="100" viewBox="0 0 100 100" fill="none" xmlns="http://www.w3.org/2000/svg">
<circle cx="50" cy="50" r="50" fill="#100E3F" fill-opacity="0.05"/>
<g clip-path="url(#clip0_533_15620)">
<path d="M36.0839 25.1855C35.8691 25.2832 35.5566 25.5176 35.3808 25.6934C34.746 26.3672 34.7656 26.1426 34.7656 32.7148V38.6719H35.5468H36.3281V33.0566C36.3281 26.8359 36.3281 26.8848 36.914 26.6699C37.1386 26.6016 38.6132 26.5625 41.6601 26.5625H46.0937V43.3594V60.1562H45.3124H44.5312V60.6348C44.5312 60.8984 44.5019 61.25 44.4726 61.416L44.414 61.7188H48.3886H52.3632L52.3144 61.4941C52.2851 61.377 52.207 61.0254 52.1386 60.7129L52.0214 60.1562H49.8339H47.6562V54.2969V48.4375H52.0507H56.4355L56.582 48.1641C56.9433 47.4707 57.7441 46.9629 58.5058 46.9531H58.9843V36.8555C58.9843 25.7129 59.0234 26.3867 58.3691 25.6934C58.1933 25.5176 57.8808 25.2832 57.666 25.1855C57.2949 25.0098 56.7968 25 46.8749 25C36.9531 25 36.455 25.0098 36.0839 25.1855ZM56.8749 26.6992C57.0996 26.7871 57.2363 26.9336 57.3144 27.1484C57.3925 27.3828 57.4218 30.1855 57.4218 37.168V46.875H52.539H47.6562V36.7188V26.5625H52.0996C55.6835 26.5625 56.6113 26.5918 56.8749 26.6992Z" fill="#AF1E22"/>
<path d="M48.6328 35.7422C48.457 35.918 48.4375 36.0645 48.4375 37.1094C48.4375 38.4766 48.5352 38.6719 49.2188 38.6719C49.9023 38.6719 50 38.4766 50 37.1094C50 35.7422 49.9023 35.5469 49.2188 35.5469C48.9551 35.5469 48.7598 35.6152 48.6328 35.7422Z" fill="#AF1E22"/>
<path d="M65.3808 36.123C65.166 36.2207 64.8535 36.4551 64.6777 36.6309C64.0429 37.3047 64.0624 37.0215 64.0624 44.2383V50.791L64.4824 51.2793C64.707 51.543 65.0585 52.0312 65.2636 52.3633L65.6249 52.9688V45.6641C65.6249 37.6172 65.6054 37.8223 66.2109 37.6074C66.4257 37.5391 67.5488 37.5 69.5507 37.5C72.9296 37.5 73.1347 37.5293 73.33 38.0859C73.4863 38.5449 73.4863 56.7676 73.33 57.2266C73.1347 57.7734 72.8906 57.8125 69.9804 57.8125H67.3925L67.5781 58.2227C67.6757 58.457 67.7929 58.8086 67.8222 59.0039C67.8906 59.3652 67.9003 59.375 68.3203 59.375H68.7499V63.0859V66.7969H67.5781C66.2109 66.7969 66.0156 66.8945 66.0156 67.5781C66.0156 67.8418 66.0839 68.0371 66.2109 68.1641C66.3964 68.3496 66.5331 68.3594 69.5312 68.3594C72.5292 68.3594 72.666 68.3496 72.8515 68.1641C72.9785 68.0371 73.0468 67.8418 73.0468 67.5781C73.0468 66.8945 72.8515 66.7969 71.4843 66.7969H70.3124V63.0859V59.375H71.7773C73.4179 59.375 73.7402 59.2969 74.3066 58.7598C74.4824 58.584 74.7167 58.2715 74.8144 58.0566C74.9902 57.6855 74.9999 57.1973 74.9999 47.6758C74.9999 36.6602 75.039 37.3242 74.3847 36.6309C73.7304 35.9473 73.7206 35.9375 69.5312 35.9375C66.0742 35.9375 65.7421 35.957 65.3808 36.123Z" fill="#AF1E22"/>
<path d="M68.5059 39.248C67.6562 39.6387 67.1875 40.4199 67.1875 41.4258C67.1973 42.8125 68.1348 43.75 69.5312 43.75C70.9375 43.75 71.875 42.8125 71.875 41.4062C71.875 40.3906 71.3574 39.5801 70.4883 39.2188C69.9805 39.0039 68.9941 39.0234 68.5059 39.248ZM70.0195 40.918C70.127 41.0254 70.2148 41.2402 70.2148 41.4062C70.2148 41.5723 70.127 41.7871 70.0195 41.8945C69.9121 42.002 69.6973 42.0898 69.5312 42.0898C69.3652 42.0898 69.1504 42.002 69.043 41.8945C68.9355 41.7871 68.8477 41.5723 68.8477 41.4062C68.8477 41.2402 68.9355 41.0254 69.043 40.918C69.1504 40.8105 69.3652 40.7227 69.5312 40.7227C69.6973 40.7227 69.9121 40.8105 70.0195 40.918Z" fill="#AF1E22"/>
<path d="M26.3183 40.4199C26.1035 40.5176 25.791 40.752 25.6152 40.9277C24.9609 41.6211 25 40.957 25 51.9727C25 61.4941 25.0097 61.9824 25.1855 62.3535C25.5273 63.0762 26.3574 63.6719 27.0507 63.6719H27.3437V64.2578C27.3437 64.9902 27.539 65.2344 28.125 65.2344C28.7109 65.2344 28.9062 64.9902 28.9062 64.2578V63.6719H33.9843H39.0625V64.2578C39.0625 64.9902 39.2578 65.2344 39.8437 65.2344C40.4296 65.2344 40.625 64.9902 40.625 64.2578V63.6719H40.9179C41.6113 63.6719 42.4414 63.0762 42.7832 62.3535C42.9589 61.9824 42.9687 61.4941 42.9687 51.9727C42.9687 40.957 43.0078 41.6211 42.3535 40.9277C42.1777 40.752 41.8652 40.5176 41.6503 40.4199C41.2793 40.2441 40.8691 40.2344 33.9843 40.2344C27.0996 40.2344 26.6894 40.2441 26.3183 40.4199ZM40.8593 41.9336C41.3476 42.1387 41.4062 42.4316 41.4062 44.5898V46.4844H33.9843H26.5625V44.5898C26.5625 42.4609 26.6308 42.1387 27.0898 41.9336C27.5488 41.7383 40.3808 41.7383 40.8593 41.9336ZM41.4062 54.6289C41.4062 59.2773 41.3769 61.2988 41.2988 61.5234C41.0839 62.1191 41.2207 62.1094 34.0039 62.1094C29.3847 62.1094 27.373 62.0801 27.1484 62.002C26.5527 61.7871 26.5625 61.9238 26.5625 54.6387V48.0469H33.9843H41.4062V54.6289Z" fill="#AF1E22"/>
<path d="M35.3516 43.5547C35.2246 43.6816 35.1562 43.877 35.1562 44.1406C35.1562 44.6582 35.4199 44.9219 35.9375 44.9219C36.4551 44.9219 36.7188 44.6582 36.7188 44.1406C36.7188 43.623 36.4551 43.3594 35.9375 43.3594C35.6738 43.3594 35.4785 43.4277 35.3516 43.5547Z" fill="#AF1E22"/>
<path d="M38.4766 43.5547C38.3496 43.6816 38.2812 43.877 38.2812 44.1406C38.2812 44.6582 38.5449 44.9219 39.0625 44.9219C39.5801 44.9219 39.8438 44.6582 39.8438 44.1406C39.8438 43.877 39.7754 43.6816 39.6484 43.5547C39.5215 43.4277 39.3262 43.3594 39.0625 43.3594C38.7988 43.3594 38.6035 43.4277 38.4766 43.5547Z" fill="#AF1E22"/>
<path d="M32.246 49.8633C30.5272 50.4395 29.3358 51.6406 28.7597 53.3496C28.4374 54.3262 28.4179 55.7129 28.7206 56.6992C29.1015 57.9395 29.9218 59.0234 30.996 59.7168C32.7538 60.8398 35.2147 60.8398 36.9628 59.7168C38.037 59.0332 38.789 58.0566 39.2089 56.8066C39.5116 55.9082 39.5507 54.4629 39.2968 53.6035C38.7499 51.7578 37.3046 50.3125 35.4589 49.7656C34.6093 49.5117 33.1249 49.5605 32.246 49.8633ZM35.1464 51.4258C36.162 51.748 37.0214 52.5195 37.4804 53.4961C37.7147 53.9844 37.744 54.1699 37.744 55.0781C37.744 55.9863 37.7147 56.1621 37.4804 56.6699C37.1386 57.3926 36.2987 58.2324 35.5761 58.5742C35.0683 58.8086 34.8925 58.8379 33.9843 58.8379C33.0175 58.8379 32.9101 58.8184 32.3144 58.5254C31.5331 58.1445 30.8495 57.4414 30.4882 56.6602C30.2538 56.1719 30.2245 55.9863 30.2245 55.0781C30.2245 54.1699 30.2538 53.9844 30.4882 53.4961C31.3085 51.7383 33.3202 50.8398 35.1464 51.4258Z" fill="#AF1E22"/>
<path d="M32.959 52.9199C32.1094 53.3105 31.6406 54.0918 31.6406 55.0977C31.6504 56.4844 32.5879 57.4219 33.9844 57.4219C35.3906 57.4219 36.3281 56.4844 36.3281 55.0781C36.3281 54.0625 35.8105 53.252 34.9414 52.8906C34.4336 52.6758 33.4473 52.6953 32.959 52.9199ZM34.4727 54.5898C34.5801 54.6973 34.668 54.9121 34.668 55.0781C34.668 55.2441 34.5801 55.459 34.4727 55.5664C34.0527 55.9863 33.3008 55.6738 33.3008 55.0781C33.3008 54.707 33.6133 54.3945 33.9844 54.3945C34.1504 54.3945 34.3652 54.4824 34.4727 54.5898Z" fill="#AF1E22"/>
<path d="M68.5059 45.498C67.6562 45.8887 67.1875 46.6699 67.1875 47.6758C67.1973 49.0625 68.1348 50 69.5312 50C70.9375 50 71.875 49.0625 71.875 47.6562C71.875 46.6406 71.3574 45.8301 70.4883 45.4688C69.9805 45.2539 68.9941 45.2734 68.5059 45.498ZM70.0195 47.168C70.127 47.2754 70.2148 47.4902 70.2148 47.6562C70.2148 47.8223 70.127 48.0371 70.0195 48.1445C69.9121 48.252 69.6973 48.3398 69.5312 48.3398C69.3652 48.3398 69.1504 48.252 69.043 48.1445C68.9355 48.0371 68.8477 47.8223 68.8477 47.6562C68.8477 47.4902 68.9355 47.2754 69.043 47.168C69.1504 47.0605 69.3652 46.9727 69.5312 46.9727C69.6973 46.9727 69.9121 47.0605 70.0195 47.168Z" fill="#AF1E22"/>
<path d="M58.0078 48.6328C57.8613 48.7793 57.8125 48.9551 57.8125 49.4043V49.9707L57.1582 50.127C54.3848 50.8008 52.3535 53.2715 52.3438 55.9863C52.3438 56.5723 52.373 56.6797 52.5977 56.8848C52.8223 57.0898 52.9297 57.4902 53.6328 60.7617C54.0625 62.7637 54.4824 64.4727 54.5508 64.5605C54.6484 64.668 54.6875 64.9707 54.6875 65.5371L54.6777 66.3574L54.1895 66.5918C53.8672 66.7383 53.6133 66.9531 53.4375 67.2168L53.1738 67.6074L53.1445 70.6348L53.1152 73.6523L53.3691 74.082C53.5156 74.3359 53.7891 74.6094 54.043 74.7559L54.4629 75H58.5937H62.7246L63.1445 74.7559C63.3984 74.6094 63.6719 74.3359 63.8184 74.082L64.0723 73.6523L64.043 70.6348L64.0137 67.6074L63.75 67.2168C63.5742 66.9531 63.3203 66.7383 62.998 66.5918L62.5098 66.3574L62.5 65.5176C62.5 64.9023 62.5391 64.6387 62.6367 64.5605C62.7148 64.4922 62.8027 64.2773 62.8418 64.0723C62.9004 63.7207 62.9297 63.6914 63.3008 63.6328C64.3652 63.457 65.5469 62.5488 66.0645 61.4844C66.3965 60.8105 66.5137 59.5605 66.3086 58.9355C66.0742 58.2227 65.1172 57.4316 64.4824 57.4219C64.1797 57.4219 64.1992 57.2949 64.5508 56.9336C64.8145 56.6602 64.8437 56.5723 64.8437 56.0059C64.8437 55.0879 64.6875 54.4531 64.1992 53.4375C63.5937 52.168 62.6758 51.2598 61.4062 50.6445C60.9082 50.4102 60.2441 50.1562 59.9414 50.0977L59.375 49.9902V49.4043C59.375 48.6816 59.1797 48.4375 58.5937 48.4375C58.3301 48.4375 58.1348 48.5059 58.0078 48.6328ZM59.873 51.8164C60.6738 52.0508 61.1133 52.3145 61.7383 52.9102C62.373 53.5156 62.793 54.1895 63.0273 54.9512L63.1738 55.4688H58.5937H54.0137L54.1602 54.9512C54.4727 53.916 55.332 52.8125 56.2793 52.2461C57.2363 51.6797 58.7793 51.4941 59.873 51.8164ZM62.5977 57.1484C62.5977 57.207 62.3047 58.6133 61.9434 60.2734L61.2891 63.2812H58.5937H55.8984L55.2441 60.2734C54.8828 58.6133 54.5898 57.207 54.5898 57.1484C54.5898 57.0605 55.6055 57.0312 58.5937 57.0312C61.582 57.0312 62.5977 57.0605 62.5977 57.1484ZM64.6484 59.375C64.9023 59.8535 64.668 60.752 64.1309 61.3086C63.7695 61.6895 63.2617 61.9922 63.3203 61.7969C63.3496 61.7285 63.4766 61.123 63.623 60.4492C63.7598 59.7754 63.8965 59.1797 63.916 59.1113C63.9746 58.9453 64.5215 59.1406 64.6484 59.375ZM60.9375 65.625V66.4062H58.5937H56.25V65.625V64.8438H58.5937H60.9375V65.625ZM62.3047 68.1641C62.4707 68.3301 62.5 68.4863 62.5 69.1406V69.9219H61.9141C61.1816 69.9219 60.9375 70.1172 60.9375 70.7031C60.9375 71.2891 61.1816 71.4844 61.9141 71.4844H62.5V72.2656C62.5 73.5254 62.7832 73.4375 58.5937 73.4375C54.4043 73.4375 54.6875 73.5254 54.6875 72.2656V71.4844H55.2734C56.0059 71.4844 56.25 71.2891 56.25 70.7031C56.25 70.1172 56.0059 69.9219 55.2734 69.9219H54.6875V69.1406C54.6875 67.8809 54.4043 67.9688 58.5937 67.9688C61.9824 67.9688 62.1191 67.9785 62.3047 68.1641Z" fill="#AF1E22"/>
<path d="M58.0078 70.1172C57.8809 70.2441 57.8125 70.4395 57.8125 70.7031C57.8125 71.2207 58.0762 71.4844 58.5938 71.4844C59.1113 71.4844 59.375 71.2207 59.375 70.7031C59.375 70.1855 59.1113 69.9219 58.5938 69.9219C58.3301 69.9219 58.1348 69.9902 58.0078 70.1172Z" fill="#AF1E22"/>
<path d="M68.5059 51.748C67.6562 52.1387 67.1875 52.9199 67.1875 53.9258C67.1973 55.3125 68.1348 56.25 69.5312 56.25C70.9375 56.25 71.875 55.3125 71.875 53.9062C71.875 52.8906 71.3574 52.0801 70.4883 51.7188C69.9805 51.5039 68.9941 51.5234 68.5059 51.748ZM70.0195 53.418C70.127 53.5254 70.2148 53.7402 70.2148 53.9062C70.2148 54.0723 70.127 54.2871 70.0195 54.3945C69.9121 54.502 69.6973 54.5898 69.5312 54.5898C69.3652 54.5898 69.1504 54.502 69.043 54.3945C68.9355 54.2871 68.8477 54.0723 68.8477 53.9062C68.8477 53.7402 68.9355 53.5254 69.043 53.418C69.1504 53.3105 69.3652 53.2227 69.5312 53.2227C69.6973 53.2227 69.9121 53.3105 70.0195 53.418Z" fill="#AF1E22"/>
<path d="M37.2559 67.373C36.8359 67.5586 36.1914 68.2031 36.084 68.5449C36.0449 68.6816 35.9375 68.75 35.7812 68.75C35.4199 68.75 35.1562 69.0723 35.1562 69.5312C35.1562 69.9707 35.4199 70.3125 35.7422 70.3125C35.9277 70.3125 35.9375 70.3809 35.9375 71.4062C35.9375 72.2656 35.9863 72.5977 36.123 72.9004C36.2988 73.3008 36.8555 73.8574 37.2656 74.043C37.4121 74.1113 37.5 74.2383 37.5 74.3848C37.5 74.7363 37.832 75 38.2812 75C38.7207 75 39.0625 74.7363 39.0625 74.4141C39.0625 74.2285 39.1309 74.2188 41.4062 74.2188C43.6816 74.2188 43.75 74.2285 43.75 74.4141C43.75 74.7363 44.0918 75 44.5312 75C44.9902 75 45.3125 74.7363 45.3125 74.375C45.3125 74.2188 45.3809 74.1113 45.5176 74.0723C45.8594 73.9648 46.5039 73.3203 46.6895 72.9004C46.8262 72.5977 46.875 72.2656 46.875 71.4062C46.875 70.3809 46.8848 70.3125 47.0703 70.3125C47.3926 70.3125 47.6562 69.9707 47.6562 69.5312C47.6562 69.0723 47.3926 68.75 47.0312 68.75C46.875 68.75 46.7676 68.6816 46.7285 68.5449C46.6211 68.2031 45.9766 67.5586 45.5566 67.373C45.2051 67.207 44.834 67.1875 41.4062 67.1875C37.9785 67.1875 37.6074 67.207 37.2559 67.373ZM44.7656 68.8867C45.2051 69.0723 45.3125 69.4238 45.3125 70.7031C45.3125 71.9824 45.2051 72.334 44.7656 72.5195C44.2969 72.7148 38.5156 72.7148 38.0469 72.5195C37.6074 72.334 37.5 71.9824 37.5 70.7031C37.5 69.4434 37.6074 69.0723 38.0273 68.8867C38.4766 68.6914 44.2969 68.6914 44.7656 68.8867Z" fill="#AF1E22"/>
<path d="M40.8203 70.1172C40.6934 70.2441 40.625 70.4395 40.625 70.7031C40.625 71.2207 40.8887 71.4844 41.4062 71.4844C41.9238 71.4844 42.1875 71.2207 42.1875 70.7031C42.1875 70.1855 41.9238 69.9219 41.4062 69.9219C41.1426 69.9219 40.9473 69.9902 40.8203 70.1172Z" fill="#AF1E22"/>
</g>
<defs>
<clipPath id="clip0_533_15620">
<rect width="50" height="50" fill="white" transform="translate(25 25)"/>
</clipPath>
</defs>
</svg>
