<svg width="296" height="102" viewBox="0 0 296 102" fill="none" xmlns="http://www.w3.org/2000/svg">
<path d="M296 102L295.06 96.3035L290.597 99.9656L296 102ZM160 78L160.245 78.4361L160 78ZM-4 0L-6.58365 5.16315L-0.820404 4.81908L-4 0ZM293.523 98.1931C293.481 98.1442 293.438 98.0952 293.395 98.0462L292.642 98.7037C292.684 98.7522 292.726 98.8006 292.768 98.849L293.523 98.1931ZM286.804 91.2345C284.606 89.1704 282.203 87.0955 279.608 85.0555L278.99 85.8417C281.562 87.8634 283.942 89.9193 286.12 91.9636L286.804 91.2345ZM271.932 79.5275C269.361 77.8352 266.65 76.202 263.807 74.6586L263.33 75.5374C266.147 77.0669 268.834 78.6855 271.382 80.3628L271.932 79.5275ZM255.293 70.5033C252.448 69.2661 249.496 68.1299 246.444 67.1189L246.13 68.0682C249.152 69.0694 252.075 70.1947 254.894 71.4204L255.293 70.5033ZM237.323 64.5615C234.297 63.8645 231.188 63.2969 228.002 62.8784L227.872 63.8699C231.026 64.2841 234.103 64.846 237.098 65.5359L237.323 64.5615ZM218.564 62.1006C215.469 61.996 212.312 62.0361 209.095 62.2366L209.157 63.2346C212.342 63.0361 215.467 62.9965 218.53 63.1001L218.564 62.1006ZM199.675 63.2705C196.626 63.7495 193.531 64.3757 190.391 65.1611L190.634 66.1312C193.744 65.353 196.811 64.7327 199.83 64.2584L199.675 63.2705ZM181.325 67.8424C178.409 68.8378 175.459 69.9731 172.478 71.2571L172.874 72.1755C175.831 70.9016 178.757 69.7756 181.648 68.7888L181.325 67.8424ZM163.945 75.3039C162.555 76.024 161.158 76.7771 159.755 77.5639L160.245 78.4361C161.638 77.6546 163.025 76.9068 164.405 76.1919L163.945 75.3039ZM159.755 77.5639C158.301 78.3799 156.847 79.1624 155.394 79.912L155.853 80.8007C157.316 80.0457 158.78 79.2577 160.245 78.4361L159.755 77.5639ZM146.511 84.0973C143.447 85.4053 140.392 86.5709 137.349 87.5995L137.67 88.5468C140.737 87.5099 143.816 86.3351 146.904 85.017L146.511 84.0973ZM127.914 90.3682C124.682 91.1731 121.471 91.8267 118.284 92.336L118.442 93.3234C121.657 92.8097 124.896 92.1503 128.156 91.3386L127.914 90.3682ZM108.537 93.4561C105.23 93.6879 101.956 93.7663 98.7219 93.6993L98.7012 94.6991C101.966 94.7667 105.27 94.6876 108.607 94.4537L108.537 93.4561ZM88.9214 93.0455C85.6421 92.6744 82.4116 92.1544 79.2367 91.4945L79.0332 92.4736C82.2379 93.1397 85.4988 93.6646 88.809 94.0391L88.9214 93.0455ZM69.7186 89.0527C66.5694 88.0881 63.4865 86.9844 60.4773 85.7515L60.0981 86.6768C63.1354 87.9212 66.247 89.0352 69.4257 90.0088L69.7186 89.0527ZM51.566 81.6168C48.6475 80.0979 45.8139 78.4541 43.0729 76.6959L42.533 77.5377C45.2992 79.312 48.1589 80.9709 51.1043 82.5039L51.566 81.6168ZM35.052 71.024C32.455 69.0055 29.9626 66.879 27.5835 64.6559L26.9007 65.3866C29.302 67.6303 31.8174 69.7764 34.4384 71.8136L35.052 71.024ZM20.721 57.6262C18.5337 55.1678 16.4731 52.6205 14.5482 49.9962L13.7419 50.5876C15.6855 53.2375 17.7659 55.8093 19.974 58.2909L20.721 57.6262ZM9.13168 41.8067C7.45319 38.976 5.92603 36.0775 4.55963 33.124L3.65204 33.5439C5.03299 36.5288 6.57602 39.4574 8.27155 42.3167L9.13168 41.8067ZM0.919861 24.0164C-0.132477 20.9046 -1.00772 17.7491 -1.69601 14.5634L-2.67346 14.7746C-1.97702 17.9981 -1.09158 21.19 -0.0274353 24.3367L0.919861 24.0164ZM-3.19476 4.87772C-3.20813 4.7346 -3.22113 4.59145 -3.23373 4.44827L-4.22989 4.536C-4.2171 4.68097 -4.20395 4.82591 -4.1904 4.97082L-3.19476 4.87772Z" fill="#AF1E22"/>
</svg>
