<svg width="100" height="100" viewBox="0 0 100 100" fill="none" xmlns="http://www.w3.org/2000/svg">
<circle cx="50" cy="50" r="50" fill="#100E3F" fill-opacity="0.05"/>
<g clip-path="url(#clip0_533_9020)">
<path d="M29.834 25.6738C29.1601 25.8398 28.6133 26.2891 28.2617 26.9531C28.0957 27.2559 28.0761 27.6172 28.0273 29.9316L27.9687 32.5684L26.6797 37.334C25.2929 42.4512 25.2343 42.8027 25.498 44.0625C25.7519 45.2539 26.6601 46.4844 27.6172 46.9141L28.0273 47.0996V60.7617V74.4141H49.707H71.3867V60.8398C71.3867 50.0488 71.416 47.2656 71.5136 47.2656C71.8457 47.2656 72.9101 46.6309 73.3691 46.1621C74.2285 45.2832 74.6093 44.248 74.6093 42.8027C74.6093 42.0898 74.5605 41.9434 73.0175 37.8516L71.4355 33.6426L71.3867 30.4688C71.3379 27.4414 71.3281 27.2754 71.123 26.8945C71.0058 26.6797 70.7519 26.3574 70.5664 26.1914C69.8242 25.5469 71.2207 25.5859 49.6679 25.5957C38.916 25.6055 30 25.6348 29.834 25.6738ZM69.5019 27.4609C69.7265 27.666 69.7265 27.6953 69.7265 30V32.3242H49.707H29.6875V30.0098C29.6875 27.7734 29.6972 27.6953 29.9023 27.4707L30.1074 27.2461H49.6972H69.2773L69.5019 27.4609ZM32.9883 37.6172C32.5781 39.9023 32.2851 41.8359 32.2363 42.5977C32.1386 44.043 31.9726 44.4922 31.2988 45.1074C30.8789 45.498 30.1269 45.8008 29.5898 45.8008C29.1015 45.8008 28.3593 45.5078 27.959 45.166C27.3242 44.6289 27.0508 43.9746 27.0508 43.0078C27.0508 42.3047 27.1777 41.748 28.125 38.1738C28.7207 35.9473 29.2285 34.0723 29.248 34.0039C29.2773 33.916 29.8144 33.8867 31.4746 33.8867H33.6523L32.9883 37.6172ZM39.6484 34.2188C39.6484 34.3945 39.5117 36.0938 39.3554 37.9883C39.1894 39.8828 39.0136 42.0215 38.9746 42.7344C38.9062 43.877 38.8672 44.082 38.6328 44.4629C38.291 45.0586 37.7539 45.4785 37.1191 45.6738C35.4199 46.1621 33.7988 44.8535 33.789 42.9785C33.789 42.7344 34.1211 40.5859 34.541 38.2031L35.3027 33.8867H37.4707H39.6484V34.2188ZM45.7519 36.0547C45.791 37.2559 45.8008 39.502 45.7812 41.0645C45.7519 43.7695 45.7422 43.916 45.5371 44.2969C45.0293 45.2539 44.2383 45.7422 43.2129 45.752C42.6367 45.752 42.4511 45.7031 42.0117 45.459C41.0351 44.9219 40.625 44.1406 40.625 42.832C40.625 42.4023 40.7812 40.2637 40.9668 38.0859C41.1523 35.9082 41.3086 34.0723 41.3086 34.0039C41.3086 33.916 41.8066 33.8867 43.4961 33.8867H45.6836L45.7519 36.0547ZM51.8066 34.2969C52.0117 35.8496 52.539 41.9238 52.539 42.7734C52.539 43.6426 52.5 43.877 52.3047 44.2969C51.9043 45.1465 50.9082 45.8008 50 45.8008C49.1015 45.8008 48.1445 45.1855 47.6758 44.2969L47.4121 43.7988L47.3828 38.8379L47.3535 33.8867H49.5508H51.748L51.8066 34.2969ZM57.8125 33.9746C57.8125 34.0234 58.164 35.8984 58.5937 38.1445C59.5215 42.9688 59.5508 43.3984 59.0527 44.3555C58.2324 45.9375 56.2402 46.2695 54.9902 45.0098C54.3945 44.4238 54.2675 44.0332 54.1894 42.5293C54.1504 41.7773 53.955 39.5898 53.7695 37.6758C53.5742 35.7617 53.4179 34.1211 53.4179 34.043C53.4179 33.9062 53.6816 33.8867 55.6152 33.8867C56.8847 33.8867 57.8125 33.9258 57.8125 33.9746ZM65.0097 38.1348C66.2793 42.6172 66.3379 42.9785 66.0547 43.9355C65.8789 44.5312 65.2929 45.2246 64.7168 45.5273C63.4765 46.1523 61.9336 45.6055 61.289 44.3164C61.084 43.9062 61.0351 43.6719 61.0351 43.0664C61.0351 42.5586 60.8008 41.084 60.2539 38.2031C59.8242 35.9375 59.4726 34.043 59.4726 33.9844C59.4726 33.916 60.1953 33.8965 61.6406 33.9062L63.8183 33.9355L65.0097 38.1348ZM69.873 34.0527C69.9121 34.1504 70.6152 36.0449 71.4453 38.2617C72.8711 42.0898 72.9492 42.334 72.9492 42.998C72.9492 43.9453 72.8125 44.375 72.3535 44.873C71.8261 45.4395 71.123 45.7422 70.3125 45.7422C69.5508 45.7422 69.0527 45.5176 68.5156 44.9219C67.998 44.3457 67.8515 43.9355 67.8027 42.9199C67.7636 42.1875 67.5683 41.3867 66.6406 38.0273C66.0254 35.8203 65.5273 33.9844 65.5273 33.9551C65.5273 33.916 66.4941 33.8867 67.666 33.8867C69.6093 33.8867 69.8047 33.9062 69.873 34.0527ZM40.9277 46.7383C41.5918 47.1582 42.334 47.3633 43.164 47.3633C44.414 47.3633 45.3906 46.9629 46.2207 46.1133L46.582 45.7422L47.0605 46.2012C47.3144 46.4453 47.832 46.8066 48.2031 46.9824C48.8476 47.3047 48.916 47.3145 50 47.3145C51.0547 47.3145 51.1621 47.2949 51.7773 47.002C52.1289 46.8359 52.6465 46.4844 52.9199 46.2207L53.4179 45.7422L53.7793 46.1133C54.6777 47.041 55.6738 47.4121 57.08 47.3438C57.8515 47.3145 58.0761 47.2656 58.6133 46.9922C58.9648 46.8164 59.4629 46.4746 59.7265 46.2109L60.1953 45.752L60.664 46.2109C60.9179 46.4648 61.4258 46.8164 61.7871 46.9922C62.4218 47.3047 62.5 47.3145 63.5742 47.3145C64.6386 47.3145 64.7363 47.2949 65.3515 47.002C65.7129 46.8359 66.2304 46.4844 66.5039 46.2305L66.9922 45.7715L67.4707 46.2207C67.9883 46.6992 68.6621 47.0801 69.3164 47.2559L69.7265 47.373V60.0586V72.7539H49.707H29.6875V60.0684V47.3926L30.2343 47.334C30.957 47.2559 31.914 46.7969 32.5195 46.2305L33.0078 45.7715L33.4961 46.2305C33.7695 46.4844 34.2871 46.8359 34.6484 47.002C35.2636 47.2949 35.3613 47.3145 36.4258 47.3145C37.5097 47.3145 37.5781 47.3047 38.2129 46.9922C38.5742 46.8066 39.082 46.4551 39.3359 46.2012L39.7949 45.7324L40.1562 46.1035C40.3613 46.3086 40.7031 46.5918 40.9277 46.7383Z" fill="#AF1E22"/>
<path d="M32.6172 29.7852V30.5762L33.3301 30.5469L34.0332 30.5176V29.7852V29.0527L33.3301 29.0234L32.6172 28.9941V29.7852Z" fill="#AF1E22"/>
<path d="M36.6211 29.7852V30.5664H37.3047H37.9883V29.7852V29.0039H37.3047H36.6211V29.7852Z" fill="#AF1E22"/>
<path d="M40.5273 29.7852V30.5664H41.2598H41.9922V29.7852V29.0039H41.2598H40.5273V29.7852Z" fill="#AF1E22"/>
<path d="M52.6367 29.7852V30.5664H59.7168H66.7969V29.7852V29.0039H59.7168H52.6367V29.7852Z" fill="#AF1E22"/>
<path d="M38.6719 50.8789V51.6602H40.3809H42.0801L42.1777 52.0215C42.2363 52.2266 42.9883 55.3613 43.8477 58.9844C44.7168 62.6074 45.459 65.7422 45.5176 65.9375L45.6152 66.3086H46.2109H46.8164L46.4258 66.5625C45.459 67.1875 45.1562 68.3105 45.6836 69.3457C46.0645 70.1074 46.582 70.4395 47.4609 70.4883C48.0469 70.5273 48.1934 70.498 48.623 70.2637C49.3555 69.8633 49.6484 69.375 49.6875 68.5059C49.7363 67.5195 49.3945 66.8848 48.584 66.4648C48.3105 66.3184 48.5645 66.3086 51.8555 66.3086H55.4102L55.0098 66.5625C53.2031 67.7344 54.0234 70.5078 56.1719 70.5078C56.8555 70.5078 57.3535 70.2832 57.8027 69.7656C58.2129 69.3066 58.3008 69.0527 58.3008 68.3789C58.291 67.5 57.9102 66.8457 57.1777 66.4648C56.8848 66.3086 56.8945 66.3086 57.5977 66.3086H58.3008V65.5273V64.7461H52.5977H46.8945L46.6895 63.916C46.582 63.4668 46.4844 63.0664 46.4844 63.0371C46.4844 63.0078 49.2676 62.9883 52.666 62.9883H58.8477L60.2441 58.0273C61.0156 55.3027 61.6699 53.0176 61.6992 52.9492C61.7285 52.8613 59.9316 52.832 52.9004 52.832C45.918 52.832 44.0527 52.8027 44.0234 52.7051C44.0039 52.6465 43.8477 52.0312 43.6914 51.3477L43.4082 50.0977H41.0449H38.6719V50.8789ZM59.5312 54.5605C59.502 54.6582 59.082 56.1426 58.5938 57.8613C58.1055 59.5801 57.6855 61.0645 57.6562 61.1621C57.6074 61.3184 57.2656 61.3281 51.8359 61.3086L46.0645 61.2793L45.2539 57.9102C44.8047 56.0547 44.4434 54.5117 44.4434 54.4629C44.4336 54.4238 47.8418 54.3945 52.0117 54.3945C59.1797 54.3945 59.5801 54.4043 59.5312 54.5605ZM47.998 68.0664C48.3984 68.5059 47.8223 69.1406 47.3145 68.8086C47.0508 68.6328 46.9824 68.1934 47.1875 67.9883C47.3633 67.8125 47.8027 67.8516 47.998 68.0664ZM56.5918 68.0664C56.9922 68.5059 56.416 69.1406 55.9082 68.8086C55.6445 68.6328 55.5762 68.1934 55.7812 67.9883C55.957 67.8125 56.3965 67.8516 56.5918 68.0664Z" fill="#AF1E22"/>
<path d="M47.7539 57.9102V60.1562H48.584H49.4141V57.9102V55.6641H48.584H47.7539V57.9102Z" fill="#AF1E22"/>
<path d="M51.2695 57.9102V60.1562H52.0508H52.832V57.9102V55.6641H52.0508H51.2695V57.9102Z" fill="#AF1E22"/>
<path d="M54.6875 57.9102V60.1562H55.4688H56.25V57.9102V55.6641H55.4688H54.6875V57.9102Z" fill="#AF1E22"/>
</g>
<defs>
<clipPath id="clip0_533_9020">
<rect width="50" height="50" fill="white" transform="translate(25 25)"/>
</clipPath>
</defs>
</svg>
