<svg width="100" height="100" viewBox="0 0 100 100" fill="none" xmlns="http://www.w3.org/2000/svg">
<circle cx="50" cy="50" r="50" fill="#100E3F" fill-opacity="0.05"/>
<path d="M48.5839 25.1855C47.7441 25.4883 47.3144 25.752 46.7382 26.3281C45.7617 27.3047 45.3711 28.3301 45.4296 29.7656C45.498 31.2793 46.0839 32.4316 47.2461 33.291C48.1152 33.9551 48.7011 34.1211 50 34.1211C51.2988 34.1211 51.8847 33.9551 52.7539 33.291C53.916 32.4316 54.5019 31.2793 54.5703 29.7656C54.6289 28.3301 54.2382 27.3047 53.2617 26.3281C52.666 25.7324 52.2558 25.4785 51.3769 25.1855C50.6738 24.9414 49.2675 24.9414 48.5839 25.1855ZM50.7324 26.7676C51.748 27.0508 52.6367 28.0176 52.8515 29.0527C53.1543 30.5566 52.1191 32.0801 50.5664 32.4219C48.6328 32.8516 46.7578 31.0059 47.1484 29.0527C47.4121 27.7441 48.6425 26.6992 49.9511 26.6699C50.166 26.6602 50.5175 26.709 50.7324 26.7676Z" fill="#AF1E22"/>
<path d="M42.6074 30.0586C42.2266 30.2051 41.875 30.3516 41.8359 30.3907C41.7774 30.459 42.2363 31.6895 42.3926 31.875C42.4805 31.9727 43.9453 31.4551 44.0039 31.3086C44.0723 31.1231 43.5938 29.834 43.4473 29.8145C43.3691 29.8047 42.9981 29.9121 42.6074 30.0586Z" fill="#AF1E22"/>
<path d="M56.416 29.8535C56.25 30.1465 55.9473 31.2793 56.0156 31.3477C56.1035 31.4355 57.3926 31.9336 57.5195 31.9336C57.6465 31.9336 58.2422 30.4688 58.1445 30.3809C58.0469 30.293 56.6797 29.7852 56.543 29.7852C56.4941 29.7852 56.4355 29.8145 56.416 29.8535Z" fill="#AF1E22"/>
<path d="M39.3262 31.5918C38.916 31.8359 38.5742 32.0605 38.5742 32.0996C38.5742 32.207 39.4043 33.4863 39.4727 33.4961C39.541 33.4961 39.9609 33.2617 40.7812 32.7539L40.9961 32.627L40.6055 31.8848C40.4004 31.4844 40.1953 31.1523 40.1562 31.1523C40.1172 31.1523 39.7461 31.3477 39.3262 31.5918Z" fill="#AF1E22"/>
<path d="M59.375 31.8945C59.1504 32.3047 58.9843 32.6465 59.0039 32.6562C59.0527 32.6953 60.3906 33.4473 60.4687 33.4766C60.5371 33.5059 61.4258 32.2168 61.4258 32.0898C61.4258 32.0312 59.9511 31.1523 59.8535 31.1523C59.8144 31.1523 59.5996 31.4844 59.375 31.8945Z" fill="#AF1E22"/>
<path d="M36.3965 33.6523C36.0352 33.9453 35.7422 34.248 35.7422 34.3066C35.752 34.375 35.9863 34.6777 36.2793 34.9902L36.8164 35.5566L37.5 35C37.8711 34.6875 38.1445 34.3945 38.1152 34.3359C37.9687 34.082 37.1777 33.1055 37.1191 33.1055C37.0801 33.1055 36.7578 33.3496 36.3965 33.6523Z" fill="#AF1E22"/>
<path d="M62.373 33.6621C62.1386 33.9746 61.9238 34.2773 61.8847 34.3359C61.8554 34.3945 62.1289 34.6875 62.5 35L63.1835 35.5566L63.7207 34.9902C64.0136 34.6777 64.248 34.375 64.2578 34.3066C64.2578 34.1992 63.0078 33.1055 62.871 33.1055C62.832 33.1055 62.6074 33.3594 62.373 33.6621Z" fill="#AF1E22"/>
<path d="M31.1621 35.3125C29.5703 35.7422 28.3691 36.9238 27.8711 38.5644C27.7148 39.0723 27.6953 40.293 27.8418 40.9082C28.1055 42.0703 29.1016 43.3496 30.1563 43.8867C32.0606 44.8535 34.2773 44.4824 35.6836 42.9687C36.5234 42.0508 36.9141 41.0644 36.9141 39.7949C36.9141 38.4668 36.5137 37.4902 35.5957 36.5625C34.4141 35.3613 32.7344 34.8926 31.1621 35.3125ZM33.3301 37.0703C33.9258 37.2754 34.6973 37.998 34.9707 38.623C35.2734 39.2871 35.2832 40.3027 35 40.9277C34.5117 41.9824 33.4766 42.6758 32.3633 42.6758C31.543 42.6758 30.9473 42.4512 30.3809 41.9141C29.7266 41.2988 29.4531 40.6738 29.4434 39.7949C29.4434 39.2383 29.4922 39.0039 29.7168 38.5547C30.0391 37.9102 30.6934 37.2852 31.2793 37.0703C31.8262 36.8848 32.7734 36.875 33.3301 37.0703Z" fill="#AF1E22"/>
<path d="M66.5332 35.3028C64.9121 35.7422 63.545 37.1192 63.1934 38.6817C63.0664 39.2285 63.0664 40.3516 63.1836 40.8887C63.4571 42.0508 64.3848 43.2813 65.4102 43.8281C67.334 44.8535 69.4336 44.5508 70.9473 43.0274C71.875 42.0996 72.2559 41.1426 72.2657 39.7364C72.2754 36.7676 69.3848 34.541 66.5332 35.3028ZM68.6817 37.0703C69.2969 37.2754 69.9512 37.8809 70.2832 38.5547C70.5078 39.0039 70.5567 39.2383 70.5567 39.7949C70.5469 40.6739 70.2735 41.2989 69.6192 41.9141C67.793 43.6328 64.795 42.3145 64.8047 39.7852C64.8047 38.1836 66.0352 36.9336 67.6368 36.9239C67.959 36.9141 68.4278 36.9824 68.6817 37.0703Z" fill="#AF1E22"/>
<path d="M49.1211 37.5488V39.7461H50H50.8789V37.5488V35.3516H50H49.1211V37.5488Z" fill="#AF1E22"/>
<path d="M48.1445 41.0645C44.7656 41.8164 42.1387 44.2871 41.1914 47.6074C40.9961 48.2812 40.9668 48.6133 40.9668 50C40.9668 51.3867 40.9961 51.7188 41.1914 52.3926C42.0801 55.4883 44.5117 57.9199 47.6074 58.8086C48.2812 59.0039 48.6133 59.0332 50 59.0332C51.3867 59.0332 51.7188 59.0039 52.3926 58.8086C55.4883 57.9199 57.9199 55.4883 58.8086 52.3926C59.0039 51.7188 59.0332 51.3867 59.0332 50C59.0332 48.6133 59.0039 48.2812 58.8086 47.6074C57.9297 44.5312 55.4883 42.0801 52.4414 41.2012C51.4844 40.9277 49.1016 40.8496 48.1445 41.0645ZM51.9531 42.8711C53.9062 43.4277 55.5273 44.7363 56.5137 46.5527C57.1387 47.7051 57.373 48.6426 57.3633 50C57.3633 51.3281 57.1387 52.2656 56.5332 53.418C56.1816 54.1113 55.2637 55.2734 55.0781 55.2734C55.0391 55.2734 54.9512 55.1465 54.8926 54.9902C54.6973 54.5312 53.9941 53.8965 53.3203 53.5742L52.6855 53.2715H50H47.3145L46.6797 53.5742C46.0059 53.8965 45.3027 54.5312 45.1074 54.9902C45.0488 55.1465 44.9609 55.2734 44.9219 55.2734C44.7363 55.2734 43.8184 54.1113 43.4668 53.418C42.8613 52.2656 42.6367 51.3281 42.6367 50C42.627 48.6426 42.8613 47.7051 43.4863 46.5527C45.1562 43.4668 48.6719 41.9336 51.9531 42.8711ZM52.5684 55.1172C52.8711 55.2441 53.5156 55.8789 53.5156 56.0547C53.5156 56.0938 53.5449 56.2012 53.5742 56.2891C53.6133 56.3867 53.4863 56.5039 53.125 56.6895C51.3574 57.5879 48.6426 57.5879 46.875 56.6895C46.5137 56.5039 46.3867 56.3867 46.4258 56.2891C46.4551 56.2012 46.4844 56.0938 46.4844 56.0547C46.4844 55.8789 47.1191 55.2441 47.4121 55.1172C47.832 54.9316 52.1289 54.9316 52.5684 55.1172Z" fill="#AF1E22"/>
<path d="M49.3067 45.0195C47.4512 45.3418 46.1426 47.2559 46.4844 49.1406C46.8458 51.1133 48.6622 52.4023 50.6055 52.0508C53.4669 51.5234 54.5704 48.0566 52.5196 45.9961C51.7383 45.2148 50.4493 44.8145 49.3067 45.0195ZM50.9962 46.9727C51.5919 47.373 51.8067 47.793 51.8067 48.5352C51.8067 49.0918 51.7676 49.2383 51.543 49.541C51.0645 50.1563 50.713 50.3418 50.0001 50.3418C49.2872 50.3418 48.9356 50.1563 48.4669 49.5508C48.1739 49.1504 48.0665 48.4375 48.2325 47.9297C48.3692 47.5293 48.8575 47.002 49.2676 46.8066C49.7071 46.6113 50.5958 46.6895 50.9962 46.9727Z" fill="#AF1E22"/>
<path d="M37.334 42.6953C37.1094 43.0859 36.9531 43.4375 36.9922 43.4766C37.1094 43.584 40.6445 45.6055 40.7129 45.6055C40.7617 45.6055 40.8399 45.5078 40.8984 45.3809C40.957 45.2637 41.1328 44.9414 41.2988 44.6582L41.6016 44.1504L39.7363 43.0762C38.7109 42.4805 37.8418 41.9922 37.8027 41.9922C37.7637 41.9922 37.5488 42.3145 37.334 42.6953Z" fill="#AF1E22"/>
<path d="M60.2539 43.0664C59.2578 43.6426 58.4473 44.1504 58.4473 44.1797C58.4473 44.2969 59.2285 45.6055 59.2969 45.6055C59.3262 45.6055 60.1953 45.1172 61.2207 44.5215L63.0859 43.4375L62.7734 42.8906C62.2949 42.041 62.2656 41.9922 62.1582 42.002C62.1094 42.002 61.25 42.4805 60.2539 43.0664Z" fill="#AF1E22"/>
<path d="M29.1992 45.5273C29.1992 45.5469 29.1309 45.9277 29.0527 46.3867C28.9746 46.8457 28.9062 47.2461 28.9062 47.2754C28.9062 47.3633 30.5078 47.5586 30.5762 47.4805C30.6641 47.3828 30.8887 45.8984 30.8301 45.8398C30.7031 45.7129 29.1992 45.4297 29.1992 45.5273Z" fill="#AF1E22"/>
<path d="M69.7461 45.6543C69.4531 45.7227 69.1992 45.8008 69.1699 45.8301C69.1113 45.8984 69.3359 47.3828 69.4238 47.4805C69.4922 47.5586 71.0937 47.3633 71.0937 47.2754C71.0937 47.2461 71.0254 46.8457 70.9472 46.3867C70.8691 45.9277 70.8008 45.5469 70.8008 45.5273C70.8008 45.4688 70.2148 45.5371 69.7461 45.6543Z" fill="#AF1E22"/>
<path d="M28.7109 50V51.0059L29.3066 50.9375C29.6387 50.9082 30.0391 50.8789 30.1855 50.8789H30.4688V50V49.1211H30.1074C29.9023 49.1211 29.502 49.0918 29.2285 49.0625L28.7109 48.9941V50Z" fill="#AF1E22"/>
<path d="M70.0488 49.0918L69.5312 49.1309V50.0098V50.8789H69.9023C70.0977 50.8789 70.498 50.9082 70.7812 50.9375L71.2891 51.0059V50.0098V49.0234L70.9277 49.043C70.7227 49.0527 70.3223 49.0723 70.0488 49.0918Z" fill="#AF1E22"/>
<path d="M29.6191 52.5586C29.2285 52.6172 28.9062 52.6855 28.9062 52.7148C28.9062 52.9004 29.1992 54.4336 29.248 54.4727C29.3066 54.5313 30.6055 54.2969 30.7617 54.1992C30.9375 54.0918 30.6641 52.5 30.4688 52.4805C30.3906 52.4707 30 52.5098 29.6191 52.5586Z" fill="#AF1E22"/>
<path d="M69.3946 52.5586C69.3653 52.627 69.2969 53.0078 69.2383 53.4082C69.1407 53.9551 69.1504 54.1406 69.2383 54.1992C69.3946 54.2969 70.6934 54.5313 70.752 54.4727C70.8008 54.4336 71.0938 52.9004 71.0938 52.7246C71.0938 52.6855 70.8399 52.627 70.5372 52.5977C70.2247 52.5586 69.8536 52.5098 69.6973 52.4805C69.5313 52.4414 69.4141 52.4707 69.3946 52.5586Z" fill="#AF1E22"/>
<path d="M38.7695 55.4785C37.7734 56.0645 36.9726 56.5918 36.9922 56.6504C37.041 56.8457 37.7344 58.0078 37.8027 58.0078C37.8711 58.0078 41.416 55.9766 41.5234 55.8789C41.6113 55.791 40.8008 54.3945 40.6738 54.4043C40.625 54.4043 39.7656 54.8926 38.7695 55.4785Z" fill="#AF1E22"/>
<path d="M59.0723 54.668C58.9941 54.8145 58.8086 55.1367 58.6621 55.3809L58.3887 55.8398L60.2539 56.9238C61.2891 57.5195 62.1582 58.0078 62.1875 58.0078C62.3047 58.0078 63.0762 56.5918 63.0078 56.5234C62.9004 56.4258 59.3652 54.3945 59.2871 54.3945C59.2578 54.3945 59.1602 54.5117 59.0723 54.668Z" fill="#AF1E22"/>
<path d="M31.1816 55.7129C29.5605 56.1523 28.1934 57.5293 27.8418 59.0918C27.7148 59.6387 27.7148 60.7715 27.8418 61.3184C28.3984 63.75 31.0156 65.3223 33.4473 64.6973C35.0684 64.2676 36.4453 62.8809 36.8066 61.3184C36.9336 60.7715 36.9336 59.6484 36.8164 59.1113C36.25 56.6602 33.5938 55.0684 31.1816 55.7129ZM33.5449 57.5977C34.6094 58.1055 35.2051 59.0332 35.1953 60.2051C35.1953 61.084 34.9219 61.709 34.2676 62.3242C32.8711 63.6328 30.6836 63.2422 29.7363 61.5137C29.1309 60.4102 29.4434 58.8672 30.4297 58.0273C31.3379 57.2656 32.4902 57.0996 33.5449 57.5977Z" fill="#AF1E22"/>
<path d="M66.5137 55.7226C64.8926 56.1621 63.5547 57.5195 63.1836 59.1113C63.0664 59.6484 63.0664 60.7715 63.1934 61.3183C63.3594 62.0605 63.7989 62.8223 64.4043 63.4375C66.9239 65.9863 71.0645 64.9121 72.1289 61.4355C72.2852 60.9277 72.3047 59.707 72.1582 59.0918C71.9825 58.3203 71.5625 57.5879 70.9473 56.9726C69.7559 55.7715 68.086 55.3027 66.5137 55.7226ZM68.6817 57.4805C69.2676 57.6758 70.0489 58.4082 70.3321 59.0332C70.6641 59.7656 70.6446 60.7129 70.2832 61.4453C69.7754 62.4805 68.8184 63.0859 67.6758 63.0859C66.8946 63.0859 66.2989 62.8515 65.7325 62.3242C65.0782 61.709 64.8047 61.084 64.8047 60.2051C64.795 59.0332 65.3907 58.1055 66.4551 57.5976C67.1387 57.2754 67.959 57.2265 68.6817 57.4805Z" fill="#AF1E22"/>
<path d="M49.1211 62.4512V64.6484H50H50.8789V62.4512V60.2539H50H49.1211V62.4512Z" fill="#AF1E22"/>
<path d="M36.2598 65.0391C35.9766 65.3516 35.7422 65.6445 35.7422 65.7031C35.7422 65.8105 37.002 66.8945 37.1289 66.8945C37.1875 66.8945 37.9492 65.9473 38.1152 65.6641C38.1641 65.5762 36.9141 64.4336 36.7969 64.4629C36.7773 64.4629 36.5332 64.7168 36.2598 65.0391Z" fill="#AF1E22"/>
<path d="M62.5 65C62.1484 65.293 61.875 65.5859 61.8945 65.6445C61.9336 65.791 62.8125 66.8945 62.8809 66.8945C63.0078 66.8945 64.2578 65.8008 64.2578 65.7031C64.2578 65.6055 63.3106 64.5312 63.1836 64.4824C63.1543 64.4727 62.8516 64.707 62.5 65Z" fill="#AF1E22"/>
<path d="M48.6133 66.0059C45.7911 66.9336 44.5899 69.9902 45.9766 72.7148C46.2305 73.2227 47.1876 74.1797 47.6954 74.4336C48.5059 74.8438 49.1309 75 50.0001 75C51.338 75 52.3438 74.5898 53.2618 73.6719C53.8477 73.0859 54.1504 72.5684 54.4434 71.6992C54.6778 70.9766 54.6094 69.502 54.3067 68.7305C53.8575 67.5781 52.8223 66.543 51.6895 66.1035C50.8887 65.8008 49.3946 65.752 48.6133 66.0059ZM50.6641 67.5977C52.1485 67.959 53.1446 69.4824 52.8516 70.9473C52.5391 72.4902 50.9571 73.584 49.463 73.2715C48.3399 73.0273 47.3731 72.0605 47.1485 70.9473C46.8653 69.5215 47.8223 68.0176 49.2579 67.6074C49.795 67.4609 50.1172 67.4609 50.6641 67.5977Z" fill="#AF1E22"/>
<path d="M39.0137 67.1777C38.7695 67.5488 38.5742 67.8809 38.5742 67.9102C38.5742 67.9688 40.0488 68.8477 40.1465 68.8477C40.2148 68.8477 41.0449 67.373 40.9961 67.334C40.9375 67.2949 39.5996 66.5527 39.5312 66.5234C39.4922 66.5039 39.2578 66.7969 39.0137 67.1777Z" fill="#AF1E22"/>
<path d="M59.7266 66.9336C59.3555 67.1484 59.0625 67.373 59.0723 67.4121C59.1016 67.5879 59.7754 68.8477 59.8437 68.8477C59.9512 68.8477 61.4258 67.9688 61.4258 67.9004C61.4258 67.7637 60.5859 66.5137 60.498 66.5137C60.4492 66.5234 60.0976 66.709 59.7266 66.9336Z" fill="#AF1E22"/>
<path d="M42.0899 68.7989C41.9043 69.2285 41.8067 69.5703 41.8555 69.6192C42.0411 69.7852 43.4668 70.2442 43.545 70.1563C43.7012 69.9903 44.0625 68.7305 43.9844 68.6524C43.8965 68.5645 42.6075 68.0664 42.4805 68.0664C42.4414 68.0664 42.2657 68.3985 42.0899 68.7989Z" fill="#AF1E22"/>
<path d="M56.7383 68.3203C56.3868 68.457 56.0645 68.6035 56.0157 68.6523C55.9376 68.7305 56.2989 69.9902 56.4551 70.1562C56.543 70.2539 58.1055 69.7265 58.1641 69.5801C58.2325 69.4238 57.6465 68.1152 57.5001 68.0957C57.4317 68.0859 57.0899 68.1836 56.7383 68.3203Z" fill="#AF1E22"/>
</svg>
