<svg width="48" height="48" viewBox="0 0 48 48" fill="none" xmlns="http://www.w3.org/2000/svg">
<circle cx="24" cy="24" r="23.5" fill="white" stroke="#9A0202"/>
<line x1="6.66848" y1="39.6257" x2="41.6685" y2="8.62571" stroke="#AF1E22"/>
<path d="M19.7031 24C19.7031 24.3778 19.7523 24.7444 19.8444 25.0938H28.1556C28.2476 24.7444 28.2969 24.3778 28.2969 24C28.2969 23.6221 28.2476 23.2556 28.1556 22.9062H19.8444C19.7523 23.2556 19.7031 23.6221 19.7031 24Z" fill="black"/>
<path d="M27.4922 21.5C26.7117 20.4128 25.437 19.7031 23.9995 19.7031C22.5621 19.7031 21.2873 20.4128 20.5068 21.5H27.4922Z" fill="black"/>
<path d="M20.5068 26.5C21.2873 27.5872 22.562 28.2969 23.9995 28.2969C25.437 28.2969 26.7118 27.5872 27.4922 26.5H20.5068Z" fill="black"/>
<path d="M29.3037 12H15.0107V36H29.3037C31.3358 36 32.9891 34.3467 32.9891 32.3146V15.6854C32.9891 13.6533 31.3358 12 29.3037 12ZM23.9999 29.7031C20.8552 29.7031 18.2968 27.1447 18.2968 24C18.2968 20.8553 20.8552 18.2969 23.9999 18.2969C27.1446 18.2969 29.7031 20.8553 29.7031 24C29.7031 27.1447 27.1446 29.7031 23.9999 29.7031ZM28.4999 31.2969V32.7031H19.4999V31.2969H28.4999ZM21.4999 16.7031V15.2969H26.4999V16.7031H21.4999Z" fill="black"/>
</svg>
