<svg width="100" height="100" viewBox="0 0 100 100" fill="none" xmlns="http://www.w3.org/2000/svg">
<circle cx="50" cy="50" r="50" fill="#100E3F" fill-opacity="0.05"/>
<path d="M43.877 29.2285C40.7031 31.0645 38.0078 32.6562 37.9004 32.7539C37.6953 32.9395 37.6953 32.9883 37.6758 39.5801L37.6465 46.2305L32.1777 49.3848C29.1699 51.1133 26.5625 52.6465 26.3867 52.7832L26.0742 53.0371V60C26.0742 66.4941 26.084 66.9824 26.2402 67.1777C26.3379 67.2949 29.043 68.8965 32.2559 70.752C36.5332 73.2227 38.1836 74.1211 38.4082 74.1211C38.6328 74.1211 40.2051 73.2617 44.2969 70.8984C47.3633 69.1309 49.9316 67.6758 50 67.6758C50.0684 67.6758 52.6367 69.1211 55.7129 70.8984C59.8242 73.2715 61.377 74.1211 61.6016 74.1211C61.8262 74.1211 63.4277 73.2422 67.6953 70.791C70.8789 68.9551 73.584 67.3535 73.7109 67.2168L73.9258 66.9824V60.0098V53.0371L73.6133 52.7832C73.4375 52.6465 70.8301 51.1133 67.8223 49.375L62.3535 46.2207L62.3242 39.5801L62.3047 32.9395L62.0801 32.7441C61.9629 32.6367 59.2676 31.0449 56.0938 29.209C51.5625 26.6016 50.2441 25.8789 49.9902 25.8789C49.7363 25.8887 48.252 26.6992 43.877 29.2285ZM55.0586 30.332C57.7246 31.875 59.9512 33.1641 59.9902 33.2031C60.0684 33.2715 57.6074 34.7656 57.4219 34.7656C57.3242 34.7656 47.5684 29.1504 47.4414 29.0234C47.3438 28.9258 49.9121 27.4316 50.0781 27.4902C50.1367 27.5098 52.3828 28.7891 55.0586 30.332ZM50.8008 32.7148C53.4961 34.2773 55.7422 35.5859 55.791 35.6348C55.8691 35.7129 54.3848 36.6211 54.1797 36.6211C54.0723 36.6211 44.4336 31.0742 44.2578 30.918C44.1602 30.8203 44.3066 30.7031 44.9414 30.3418C45.3906 30.0879 45.7812 29.8828 45.8203 29.8828C45.8594 29.8828 48.0957 31.1621 50.8008 32.7148ZM47.5684 34.5801C50.2734 36.1426 52.5293 37.4512 52.5684 37.4902C52.6172 37.5391 52.0508 37.9102 51.3184 38.3301L50 39.0918L48.8477 38.4277C42.3535 34.6875 39.9414 33.2715 39.9805 33.2324C40.0684 33.1445 42.5293 31.7383 42.5879 31.7383C42.627 31.7383 44.8633 33.0176 47.5684 34.5801ZM44.7266 37.7734L49.2676 40.3906L49.2969 46.2305C49.3066 49.4434 49.2773 52.0508 49.2383 52.0312C49.1895 52.0215 46.9043 50.7031 44.1602 49.1211L39.1602 46.2402V40.4004V34.5605L39.6777 34.8535C39.9512 35.0098 42.2266 36.3281 44.7266 37.7734ZM60.8398 40.4004V46.2402L55.8398 49.1211C53.0957 50.7031 50.8105 52.0215 50.7617 52.0312C50.7227 52.0508 50.6934 49.4824 50.7031 46.2305L50.7324 40.3906L52.0508 39.6387L53.3691 38.877L53.418 41.1719C53.4668 43.4473 53.4668 43.4766 53.7012 43.6621C53.8281 43.7598 54.0332 43.8477 54.1699 43.8477C54.3359 43.8477 57.5488 42.1191 58.0273 41.7676C58.0371 41.7578 58.0762 40.4785 58.1055 38.9355L58.1543 36.1133L59.4727 35.3418C60.1953 34.9219 60.8008 34.5703 60.8203 34.5703C60.8301 34.5703 60.8398 37.1973 60.8398 40.4004ZM56.6016 40.7812C56.5625 40.8789 55.0586 41.7969 54.9316 41.7969C54.9023 41.7969 54.8828 40.9473 54.8828 39.9023V38.0078L55.7422 37.5098L56.5918 37.0117L56.6211 38.8379C56.6309 39.8438 56.6211 40.7227 56.6016 40.7812ZM43.3398 50.3516C46.0059 51.8945 48.252 53.2031 48.3203 53.2715C48.4277 53.3691 48.1934 53.5352 47.1289 54.1504L45.8105 54.9023L40.8496 52.041C38.125 50.4688 35.8496 49.1602 35.8105 49.1211C35.7422 49.0527 38.2324 47.5586 38.4082 47.5586C38.4473 47.5586 40.6738 48.8184 43.3398 50.3516ZM65.3418 49.668C67.3438 50.8301 69.5996 52.1289 70.3418 52.5586L71.6992 53.3496L70.8301 53.8477C70.3613 54.1309 69.7559 54.4824 69.4824 54.6289L68.9941 54.9023L64.1113 52.0801C61.4258 50.5273 59.1602 49.209 59.0625 49.1602C58.9355 49.0918 59.1602 48.9258 60.1855 48.3203C60.8984 47.9102 61.5234 47.5684 61.582 47.5586C61.6309 47.5586 63.3301 48.5059 65.3418 49.668ZM39.6191 53.0469C42.1582 54.5117 44.2383 55.7422 44.2383 55.7715C44.2383 55.8008 43.8672 56.0352 43.4082 56.2891L42.5781 56.7578L37.5488 53.8574C34.7754 52.2559 32.5391 50.9277 32.5586 50.8984C32.5879 50.8789 32.9785 50.6445 33.418 50.3906L34.2285 49.9219L34.6191 50.1562C34.834 50.2832 37.0898 51.582 39.6191 53.0469ZM62.3828 52.793C65.0586 54.3359 67.2949 55.6348 67.3633 55.6934C67.4512 55.7617 67.2656 55.918 66.6406 56.2695C66.1816 56.5332 65.7715 56.7383 65.7227 56.7188C65.6836 56.6992 63.4082 55.3906 60.6641 53.8086L55.6738 50.9277L56.4746 50.4688C56.9141 50.2148 57.334 50 57.4023 50C57.4805 50 59.7168 51.2598 62.3828 52.793ZM38.6914 56.2402C39.9707 56.9727 41.0156 57.5977 41.0156 57.627C41.0156 57.6562 40.4297 58.0176 39.707 58.4277L38.3984 59.1797L33.3887 56.2891C30.625 54.6973 28.3594 53.3789 28.3398 53.3691C28.3301 53.3594 28.916 52.998 29.6484 52.5684L30.9863 51.7871L33.6816 53.3496C35.166 54.1992 37.4219 55.498 38.6914 56.2402ZM59.1602 54.6582C61.8262 56.1914 64.0625 57.5 64.1309 57.5586C64.2188 57.6367 63.916 57.8516 62.9199 58.4277L61.5918 59.1797L56.5723 56.2793C53.7305 54.6387 51.5918 53.3496 51.6406 53.3008C51.7969 53.1445 54.0527 51.8652 54.1797 51.8555C54.248 51.8555 56.4844 53.1152 59.1602 54.6582ZM49.3164 60.4297V66.2793L44.2969 69.1699C41.5332 70.7715 39.248 72.0703 39.2188 72.0703C39.1895 72.0703 39.1602 69.4629 39.1602 66.2695V60.4688L40.5078 59.6875L41.8457 58.916L41.875 61.2402L41.8945 63.5645L42.168 63.7695C42.334 63.9062 42.5098 63.9648 42.6758 63.9258C43.1348 63.8379 46.3574 61.9043 46.4746 61.6504C46.543 61.5039 46.582 60.4883 46.582 58.7988V56.1816L47.9297 55.3906C48.6621 54.9609 49.2773 54.5996 49.2969 54.5996C49.3066 54.5898 49.3164 57.2168 49.3164 60.4297ZM57.5684 58.5742L60.791 60.4395L60.8203 66.25C60.8301 69.4531 60.8203 72.0703 60.7812 72.0703C60.752 72.0703 58.4668 70.7617 55.7031 69.1699L50.6836 66.2793V60.4395V54.5996L52.5195 55.6641C53.5254 56.2402 55.8008 57.5586 57.5684 58.5742ZM32.7051 57.6172L37.6953 60.498V66.3379V72.1777L37.2363 71.9043C36.9727 71.7578 34.707 70.4395 32.1777 68.9844L27.5879 66.3281L27.5586 60.498C27.5488 56.9043 27.5684 54.6875 27.627 54.707C27.6758 54.7168 29.9609 56.0352 32.7051 57.6172ZM72.4414 60.5078L72.4121 66.3281L67.7734 69.0137C65.2246 70.4883 62.9492 71.7969 62.7246 71.9336L62.3047 72.1777V66.3379V60.4883L63.623 59.7363C64.3457 59.3262 64.9609 58.9844 64.9902 58.9844C65.0195 58.9844 65.0391 60 65.0391 61.2305V63.4863L65.2832 63.7207C65.4102 63.8574 65.6152 63.9648 65.7422 63.9648C66.0059 63.9648 69.3066 62.0898 69.5605 61.7969C69.707 61.6211 69.7266 61.3281 69.7266 58.8965V56.2012L71.0254 55.4492C71.7285 55.0391 72.3438 54.6973 72.3926 54.6973C72.4316 54.6875 72.4512 57.3047 72.4414 60.5078ZM45.1172 58.9648V60.8984L44.2383 61.3965L43.3594 61.9043V59.9707V58.0469L44.2188 57.5488C44.6875 57.2656 45.0781 57.041 45.0977 57.0312C45.1074 57.0312 45.1172 57.9004 45.1172 58.9648ZM68.2617 59.0234V60.918L67.4609 61.377C67.0117 61.6309 66.6211 61.8652 66.582 61.8848C66.5332 61.9043 66.5039 61.0547 66.5039 59.9902L66.5137 58.0566L67.3145 57.5977C67.7539 57.3438 68.1445 57.1289 68.1934 57.1289C68.2324 57.1289 68.2617 57.9785 68.2617 59.0234Z" fill="#AF1E22"/>
</svg>
