<svg width="277" height="105" viewBox="0 0 277 105" fill="none" xmlns="http://www.w3.org/2000/svg">
<g clip-path="url(#clip0_699_3)">
<path d="M27.86 49.38H25.413V56.877H18.662V32.374H29.282C34.565 32.374 38.394 35.924 38.394 41.046C38.394 44.053 36.925 46.517 34.504 47.966L39.369 56.877H31.835L27.86 49.38ZM25.413 43.693H28.496C30.384 43.693 31.47 42.556 31.47 41.025C31.47 39.494 30.384 38.373 28.496 38.373H25.413V43.693Z" fill="white"/>
<path d="M61.702 37.955V56.856H56.669L56.111 55.519C54.563 56.773 52.602 57.496 50.407 57.496C44.628 57.496 40.496 53.279 40.496 47.405C40.496 41.551 44.628 37.384 50.407 37.384C52.634 37.384 54.622 38.127 56.182 39.415L56.849 37.953L61.702 37.955ZM55.508 47.421C55.508 44.967 53.716 43.124 51.278 43.124C48.824 43.124 47.047 44.967 47.047 47.421C47.047 49.889 48.839 51.732 51.278 51.732C53.716 51.731 55.508 49.888 55.508 47.421Z" fill="white"/>
<path d="M86.866 47.4399C86.866 53.3139 82.756 57.4959 76.935 57.4959C74.729 57.4959 72.769 56.7559 71.233 55.4739L70.62 56.8769H65.802V31.1489H72.239V38.6869C73.592 37.8519 75.188 37.3839 76.936 37.3839C82.755 37.3839 86.866 41.5649 86.866 47.4399ZM80.295 47.4399C80.295 44.9709 78.502 43.1279 76.064 43.1279C73.626 43.1279 71.833 44.9709 71.833 47.4399C71.833 49.8879 73.626 51.7299 76.064 51.7299C78.488 51.7299 80.295 49.8879 80.295 47.4399Z" fill="white"/>
<path d="M110.911 47.4399C110.911 53.3139 106.801 57.4959 100.98 57.4959C98.7739 57.4959 96.8139 56.7559 95.2779 55.4739L94.6649 56.8769H89.8469V31.1489H96.2839V38.6869C97.6369 37.8519 99.2329 37.3839 100.981 37.3839C106.8 37.3839 110.911 41.5649 110.911 47.4399ZM104.34 47.4399C104.34 44.9709 102.547 43.1279 100.109 43.1279C97.6709 43.1279 95.8779 44.9709 95.8779 47.4399C95.8779 49.8879 97.6709 51.7299 100.109 51.7299C102.533 51.7299 104.34 49.8879 104.34 47.4399Z" fill="white"/>
<path d="M113.891 37.9739H120.402V56.8749H113.891V37.9739Z" fill="white"/>
<path d="M146.41 48.9649H153.373C153.373 50.7149 154.724 51.5679 156.263 51.5679C157.677 51.5679 159.028 50.8149 159.028 49.4769C159.028 47.9399 157.121 47.4939 154.789 46.9289C151.247 46.0479 146.726 44.9629 146.726 39.3849C146.726 34.5599 150.272 31.7949 156.049 31.7949C161.923 31.7949 165.292 34.8109 165.292 39.7959H158.522C158.522 38.2459 157.367 37.5199 155.967 37.5199C154.765 37.5199 153.61 38.0409 153.61 39.1849C153.61 40.5769 155.457 41.0369 157.763 41.6169C161.369 42.5479 166.085 43.7519 166.085 49.3469C166.085 54.6989 161.973 57.4759 156.283 57.4759C150.286 57.4749 146.41 54.3049 146.41 48.9649Z" fill="white"/>
<path d="M190.252 47.425C190.252 53.314 186.12 57.516 180.34 57.516C178.631 57.516 177.067 57.066 175.733 56.26V63.701H169.296V37.974H173.724L174.539 39.476C176.094 38.131 178.094 37.355 180.34 37.355C186.12 37.355 190.252 41.537 190.252 47.425ZM183.7 47.425C183.7 44.942 181.908 43.099 179.47 43.099C177.031 43.099 175.239 44.942 175.239 47.425C175.239 49.907 177.031 51.75 179.47 51.75C181.892 51.751 183.7 49.908 183.7 47.425Z" fill="white"/>
<path d="M212.712 47.247C212.712 47.816 212.662 48.386 212.578 48.971H198.542C198.968 51.139 200.346 52.26 202.401 52.26C203.922 52.26 205.192 51.594 205.818 50.488H212.297C210.967 54.802 207.144 57.498 202.401 57.498C196.503 57.498 192.133 53.186 192.133 47.412C192.133 41.617 196.468 37.356 202.401 37.356C208.494 37.355 212.712 41.702 212.712 47.247ZM198.657 45.365H206.299C205.728 43.476 204.365 42.457 202.401 42.457C200.503 42.457 199.183 43.488 198.657 45.365Z" fill="white"/>
<path d="M235.146 47.247C235.146 47.816 235.096 48.386 235.012 48.971H220.976C221.402 51.139 222.78 52.26 224.835 52.26C226.356 52.26 227.626 51.594 228.252 50.488H234.731C233.401 54.802 229.577 57.498 224.835 57.498C218.937 57.498 214.567 53.186 214.567 47.412C214.567 41.617 218.902 37.356 224.835 37.356C230.928 37.355 235.147 41.702 235.146 47.247ZM221.091 45.365H228.733C228.162 43.476 226.799 42.457 224.836 42.457C222.937 42.457 221.618 43.488 221.091 45.365Z" fill="white"/>
<path d="M258.068 31.1489V56.8769H253.251L252.637 55.4729C251.099 56.7679 249.137 57.5169 246.936 57.5169C241.136 57.5169 237.004 53.2999 237.004 47.4259C237.004 41.5519 241.136 37.3559 246.936 37.3559C248.681 37.3559 250.278 37.8269 251.632 38.6679V31.1499H258.068V31.1489ZM252.037 47.4249C252.037 44.9569 250.245 43.0999 247.807 43.0999C245.368 43.0999 243.576 44.9569 243.576 47.4249C243.576 49.8939 245.368 51.7509 247.807 51.7509C250.245 51.7519 252.037 49.8939 252.037 47.4249Z" fill="white"/>
<path d="M113.92 52.0561L117.167 46.1431L120.415 52.0561" fill="white"/>
<path d="M254.644 28.1081V25.7571H255.678L261.806 31.5121V32.4211H258.051V35.6481H254.644V32.5331" fill="white"/>
<path d="M255.061 32.5321V35.6471H251.654V32.4201H247.899V31.5111L254.027 25.7561H255.061V28.1071" fill="white"/>
<path d="M132.552 37.9321H137.3V42.9471H132.716V48.9621C132.716 50.3161 133.532 51.1331 134.906 51.1331H137.405V56.8351H132.926C128.745 56.8351 126.205 54.2791 126.205 50.0791V42.9471H122.745V41.4251" fill="white"/>
<path d="M126.229 39.945V32.406H132.666V39.945" fill="white"/>
<path d="M127.801 42.9459H122.745V37.9309H127.493" fill="white"/>
<mask id="mask0_699_3" style="mask-type:luminance" maskUnits="userSpaceOnUse" x="117" y="-2" width="41" height="35">
<path d="M157.971 -1.78198H117.769V32.126H157.971V-1.78198Z" fill="white"/>
</mask>
<g mask="url(#mask0_699_3)">
<path d="M153.766 13.5739C153.987 13.5739 154.376 13.5789 154.764 13.5719C155.073 13.5669 155.286 13.6779 155.354 13.9999C155.416 14.2909 155.295 14.5609 155.022 14.7039C154.947 14.7439 154.863 14.7699 154.781 14.7939C152.976 15.3289 151.136 15.6769 149.259 15.8389C149.082 15.8539 148.819 15.9649 148.772 16.0949C148.723 16.2319 148.833 16.5059 148.963 16.6139C149.307 16.8999 149.689 17.1449 150.076 17.3719C150.286 17.4949 150.537 17.5499 150.77 17.6349C150.967 17.7069 151.267 17.7239 151.237 17.9899C151.215 18.1819 151.053 18.4309 150.884 18.5169C150.642 18.6399 150.314 18.7309 150.062 18.6719C149.152 18.4569 148.239 18.2239 147.363 17.8999C146.386 17.5389 145.534 17.6109 144.681 18.2289C143.243 19.2709 141.586 19.7709 139.849 20.0289C139.32 20.1079 138.909 20.3159 138.598 20.7809C137.803 21.9739 136.651 22.6769 135.29 23.0649C135.197 23.0919 135.102 23.1129 135.009 23.1389C134.52 23.2779 134.402 23.4529 134.427 23.9559C134.459 24.5899 134.486 25.2249 134.502 25.8599C134.507 26.0519 134.481 26.2469 134.45 26.4379C134.41 26.6949 134.259 26.8729 134.004 26.9379C133.732 27.0069 133.489 26.9419 133.302 26.7229C133.068 26.4489 133.027 26.1239 133.057 25.7809C133.102 25.2549 133.152 24.7299 133.191 24.2039C133.202 24.0659 133.222 23.9049 133.165 23.7909C133.108 23.6779 132.965 23.5519 132.849 23.5409C132.757 23.5319 132.604 23.6689 132.56 23.7749C132.506 23.9039 132.525 24.0699 132.532 24.2189C132.579 25.1439 132.648 26.0679 132.678 26.9939C132.7 27.6669 132.482 28.2479 131.873 28.6199C131.378 28.9219 130.956 28.7939 130.701 28.2709C130.436 27.7259 130.451 27.1589 130.512 26.5669C130.657 25.1549 130.752 23.7379 130.867 22.3229C130.874 22.2369 130.867 22.1499 130.873 22.0649C130.922 21.4309 131.019 21.3249 131.652 21.1999C132.376 21.0569 132.571 20.7879 132.406 20.0669C132.321 19.6929 132.189 19.3229 132.033 18.9709C131.711 18.2459 131.53 17.5089 131.678 16.7119C131.741 16.3719 131.641 16.0729 131.379 15.8349C131.331 15.7919 131.29 15.7409 131.247 15.6929C130.541 14.9049 130.467 14.2709 130.988 13.4769C131.521 12.6649 132.351 12.3629 133.264 12.6549C133.541 12.7429 133.808 12.8669 134.089 12.9379C134.839 13.1259 135.538 12.8979 136.233 12.6459C137.712 12.1109 139.173 11.5099 140.681 11.0729C141.812 10.7449 143.004 10.6149 144.173 10.4249C144.678 10.3429 145.155 10.2389 145.456 9.78093C145.745 9.33993 145.845 8.89793 145.249 8.51993C144.525 8.06193 143.88 7.50693 143.391 6.78993C142.988 6.19993 142.741 5.55393 142.671 4.84193C142.64 4.52593 142.789 4.37693 143.105 4.41393C143.606 4.47293 143.694 4.39593 143.699 3.88893C143.7 3.74893 143.692 3.60793 143.705 3.46893C143.744 3.05393 144.089 2.85093 144.408 3.11093C144.973 3.57093 145.52 4.06393 146.015 4.59693C146.63 5.25893 147.052 6.04893 147.315 6.91793C147.535 7.64193 147.813 7.86493 148.57 7.88093C149.743 7.90593 150.672 8.37693 151.34 9.34593C151.938 10.2139 151.818 11.2949 151.041 12.0109C150.827 12.2079 150.6 12.3909 150.388 12.5909C150.103 12.8599 150.176 13.1589 150.557 13.2649C151.55 13.5399 152.565 13.6529 153.766 13.5739Z" fill="white"/>
</g>
<mask id="mask1_699_3" style="mask-type:luminance" maskUnits="userSpaceOnUse" x="117" y="-2" width="41" height="35">
<path d="M157.971 -1.78198H117.769V32.126H157.971V-1.78198Z" fill="white"/>
</mask>
<g mask="url(#mask1_699_3)">
<path d="M131.341 18.0121C130.899 18.1071 130.573 18.3481 130.316 18.7311C129.482 19.9731 128.274 20.6801 126.852 21.0591C126.203 21.2321 126.126 21.3441 126.152 22.0001C126.18 22.6991 126.204 23.3991 126.202 24.0981C126.2 24.7191 125.825 25.0321 125.306 24.8821C124.998 24.7931 124.738 24.4231 124.754 24.0141C124.778 23.3911 124.837 22.7681 124.88 22.1461C124.885 22.0711 124.891 21.9951 124.889 21.9201C124.885 21.6821 124.814 21.4641 124.536 21.4781C124.272 21.4921 124.23 21.7231 124.238 21.9371C124.255 22.3781 124.299 22.8181 124.312 23.2591C124.333 23.9891 124.375 24.7221 124.335 25.4501C124.307 25.9751 123.976 26.3641 123.508 26.6111C123.046 26.8551 122.633 26.7161 122.403 26.2471C122.164 25.7581 122.079 25.2361 122.183 24.7051C122.476 23.2071 122.512 21.6891 122.559 20.1721C122.563 20.0321 122.579 19.8931 122.59 19.7541C122.616 19.3981 122.831 19.2231 123.162 19.1521C124.167 18.9371 124.337 18.6541 124.022 17.6661C123.911 17.3191 123.75 16.9881 123.612 16.6491C123.35 16.0071 123.238 15.3481 123.37 14.6591C123.432 14.3381 123.335 14.0641 123.117 13.8271C123.073 13.7791 123.025 13.7361 122.98 13.6891C122.249 12.9211 122.151 12.2181 122.665 11.4191C123.201 10.5861 124.064 10.2751 124.996 10.5831C125.272 10.6741 125.54 10.7961 125.821 10.8651C126.549 11.0451 127.228 10.8211 127.903 10.5771C129.392 10.0391 130.86 9.42413 132.381 8.99413C133.629 8.64213 134.94 8.51013 136.223 8.28513C136.734 8.19513 137.085 7.90213 137.291 7.44113C137.471 7.04013 137.393 6.82113 137.04 6.54613C136.582 6.18713 136.107 5.84613 135.685 5.44913C134.921 4.73113 134.472 3.83913 134.357 2.78813C134.321 2.45913 134.471 2.30113 134.803 2.33513C135.306 2.38713 135.386 2.31513 135.39 1.80513C135.391 1.67613 135.384 1.54613 135.392 1.41713C135.416 0.994127 135.775 0.769128 136.106 1.02413C136.632 1.43013 137.14 1.87113 137.594 2.35513C138.295 3.10213 138.798 3.97813 139.067 4.97813C139.196 5.45613 139.513 5.72713 140.008 5.78213C140.35 5.82013 140.698 5.82813 141.035 5.89313C142.245 6.12413 143.28 7.14313 143.417 8.23713C143.494 8.85013 143.291 9.38413 142.878 9.83713C142.553 10.1931 142.177 10.4071 141.672 10.5001C140.086 10.7921 138.599 11.4161 137.098 11.9851C136.594 12.1761 136.091 12.3691 135.581 12.5411C134.912 12.7671 134.257 12.7381 133.595 12.4581C132.304 11.9121 131.048 12.4411 130.504 13.7321C130.156 14.5571 130.424 15.2591 130.997 15.8591C131.299 16.1741 131.445 16.4721 131.355 16.9211C131.287 17.2621 131.341 17.6261 131.341 18.0121Z" fill="white"/>
</g>
<path d="M134.145 27.83C134.128 27.769 134.105 27.707 134.084 27.673C134.054 27.622 134.035 27.609 133.931 27.609H133.742V28.53C133.742 28.677 133.757 28.698 133.937 28.71V28.763H133.387V28.71C133.563 28.699 133.578 28.68 133.578 28.53V27.609H133.406C133.302 27.609 133.272 27.62 133.24 27.677C133.217 27.715 133.202 27.76 133.178 27.83H133.121C133.132 27.715 133.144 27.596 133.149 27.49H133.193C133.221 27.535 133.242 27.533 133.295 27.533H134.044C134.097 27.533 134.112 27.525 134.14 27.49H134.185C134.185 27.579 134.193 27.715 134.202 27.825L134.145 27.83ZM135.389 28.762V28.709C135.544 28.694 135.55 28.683 135.548 28.48L135.55 27.708C135.395 28.054 135.145 28.595 135.079 28.761H135.03C134.966 28.589 134.752 28.069 134.608 27.727C134.576 28.389 134.574 28.538 134.574 28.574C134.576 28.68 134.623 28.695 134.752 28.708V28.761H134.304V28.708C134.414 28.697 134.459 28.674 134.474 28.572C134.485 28.489 134.487 28.421 134.536 27.73C134.544 27.632 134.525 27.6 134.358 27.584V27.531H134.687L135.105 28.49L135.553 27.531H135.884V27.584C135.721 27.603 135.701 27.62 135.704 27.752L135.712 28.478C135.72 28.68 135.725 28.69 135.892 28.707V28.76H135.389V28.762Z" fill="white"/>
<path d="M24.742 68.7739H23.6852C23.6227 68.4699 23.5133 68.2029 23.3571 67.9728C23.2037 67.7427 23.0162 67.5495 22.7946 67.3932C22.5758 67.2342 22.3329 67.1148 22.0659 67.0353C21.7988 66.9557 21.5204 66.916 21.2307 66.916C20.7022 66.916 20.2236 67.0495 19.7946 67.3165C19.3684 67.5836 19.029 67.9771 18.7761 68.4969C18.5261 69.0168 18.4011 69.6546 18.4011 70.4103C18.4011 71.166 18.5261 71.8038 18.7761 72.3236C19.029 72.8435 19.3684 73.237 19.7946 73.504C20.2236 73.7711 20.7022 73.9046 21.2307 73.9046C21.5204 73.9046 21.7988 73.8648 22.0659 73.7853C22.3329 73.7057 22.5758 73.5878 22.7946 73.4316C23.0162 73.2725 23.2037 73.0779 23.3571 72.8478C23.5133 72.6148 23.6227 72.3478 23.6852 72.0467H24.742C24.6625 72.4927 24.5176 72.8918 24.3074 73.2441C24.0971 73.5964 23.8358 73.8961 23.5233 74.1432C23.2108 74.3876 22.8599 74.5736 22.4707 74.7015C22.0844 74.8293 21.671 74.8932 21.2307 74.8932C20.4863 74.8932 19.8244 74.7114 19.2449 74.3478C18.6653 73.9842 18.2094 73.4671 17.877 72.7967C17.5446 72.1262 17.3784 71.3307 17.3784 70.4103C17.3784 69.4898 17.5446 68.6944 17.877 68.0239C18.2094 67.3535 18.6653 66.8364 19.2449 66.4728C19.8244 66.1092 20.4863 65.9273 21.2307 65.9273C21.671 65.9273 22.0844 65.9913 22.4707 66.1191C22.8599 66.2469 23.2108 66.4344 23.5233 66.6816C23.8358 66.9259 24.0971 67.2242 24.3074 67.5765C24.5176 67.9259 24.6625 68.3251 24.742 68.7739ZM28.9725 74.9103C28.3816 74.9103 27.8631 74.7697 27.4171 74.4884C26.9739 74.2072 26.6273 73.8137 26.3773 73.308C26.1302 72.8023 26.0066 72.2114 26.0066 71.5353C26.0066 70.8535 26.1302 70.2583 26.3773 69.7498C26.6273 69.2413 26.9739 68.8464 27.4171 68.5651C27.8631 68.2839 28.3816 68.1432 28.9725 68.1432C29.5634 68.1432 30.0804 68.2839 30.5236 68.5651C30.9696 68.8464 31.3162 69.2413 31.5634 69.7498C31.8134 70.2583 31.9384 70.8535 31.9384 71.5353C31.9384 72.2114 31.8134 72.8023 31.5634 73.308C31.3162 73.8137 30.9696 74.2072 30.5236 74.4884C30.0804 74.7697 29.5634 74.9103 28.9725 74.9103ZM28.9725 74.0069C29.4214 74.0069 29.7907 73.8918 30.0804 73.6617C30.3702 73.4316 30.5847 73.129 30.7239 72.754C30.8631 72.379 30.9327 71.9728 30.9327 71.5353C30.9327 71.0978 30.8631 70.6901 30.7239 70.3123C30.5847 69.9344 30.3702 69.629 30.0804 69.3961C29.7907 69.1631 29.4214 69.0467 28.9725 69.0467C28.5236 69.0467 28.1543 69.1631 27.8645 69.3961C27.5748 69.629 27.3603 69.9344 27.2211 70.3123C27.0819 70.6901 27.0123 71.0978 27.0123 71.5353C27.0123 71.9728 27.0819 72.379 27.2211 72.754C27.3603 73.129 27.5748 73.4316 27.8645 73.6617C28.1543 73.8918 28.5236 74.0069 28.9725 74.0069ZM34.4792 70.8364V74.7739H33.4736V68.2285H34.4451V69.2512H34.5304C34.6838 68.9188 34.9167 68.6518 35.2292 68.4501C35.5417 68.2455 35.9451 68.1432 36.4395 68.1432C36.8826 68.1432 37.2704 68.2342 37.6028 68.416C37.9352 68.5949 38.1937 68.8677 38.3784 69.2342C38.563 69.5978 38.6554 70.058 38.6554 70.6148V74.7739H37.6497V70.683C37.6497 70.1688 37.5162 69.7682 37.2491 69.4813C36.9821 69.1915 36.6156 69.0467 36.1497 69.0467C35.8287 69.0467 35.5417 69.1163 35.2889 69.2555C35.0389 69.3947 34.8415 69.5978 34.6966 69.8648C34.5517 70.1319 34.4792 70.4557 34.4792 70.8364ZM41.4988 70.8364V74.7739H40.4931V68.2285H41.4647V69.2512H41.5499C41.7033 68.9188 41.9363 68.6518 42.2488 68.4501C42.5613 68.2455 42.9647 68.1432 43.459 68.1432C43.9022 68.1432 44.29 68.2342 44.6223 68.416C44.9547 68.5949 45.2133 68.8677 45.3979 69.2342C45.5826 69.5978 45.6749 70.058 45.6749 70.6148V74.7739H44.6692V70.683C44.6692 70.1688 44.5357 69.7682 44.2687 69.4813C44.0016 69.1915 43.6351 69.0467 43.1692 69.0467C42.8482 69.0467 42.5613 69.1163 42.3084 69.2555C42.0584 69.3947 41.861 69.5978 41.7161 69.8648C41.5712 70.1319 41.4988 70.4557 41.4988 70.8364ZM50.2569 74.9103C49.6263 74.9103 49.0822 74.7711 48.6248 74.4927C48.1703 74.2114 47.8194 73.8194 47.5723 73.3165C47.328 72.8109 47.2058 72.2228 47.2058 71.5523C47.2058 70.8819 47.328 70.291 47.5723 69.7796C47.8194 69.2654 48.1632 68.8648 48.6035 68.5779C49.0467 68.2881 49.5638 68.1432 50.1547 68.1432C50.4956 68.1432 50.8322 68.2001 51.1646 68.3137C51.497 68.4273 51.7995 68.612 52.0723 68.8677C52.345 69.1205 52.5623 69.4557 52.7243 69.8734C52.8862 70.291 52.9672 70.8052 52.9672 71.416V71.8421H47.9217V70.9728H51.9444C51.9444 70.6035 51.8706 70.2739 51.7228 69.9842C51.578 69.6944 51.3706 69.4657 51.1007 69.2981C50.8336 69.1305 50.5183 69.0467 50.1547 69.0467C49.7541 69.0467 49.4075 69.1461 49.1149 69.3449C48.8251 69.541 48.6021 69.7967 48.4459 70.112C48.2896 70.4273 48.2115 70.7654 48.2115 71.1262V71.7057C48.2115 72.2001 48.2967 72.6191 48.4672 72.9628C48.6405 73.3038 48.8805 73.5637 49.1873 73.7427C49.4942 73.9188 49.8507 74.0069 50.2569 74.0069C50.5211 74.0069 50.7598 73.9699 50.9728 73.8961C51.1888 73.8194 51.3748 73.7057 51.5311 73.5552C51.6873 73.4018 51.8081 73.2114 51.8933 72.9842L52.8649 73.2569C52.7626 73.5864 52.5907 73.8762 52.3493 74.1262C52.1078 74.3734 51.8095 74.5665 51.4544 74.7057C51.0993 74.8421 50.7001 74.9103 50.2569 74.9103ZM57.1561 74.9103C56.5424 74.9103 56.014 74.7654 55.5709 74.4756C55.1277 74.1859 54.7868 73.7867 54.5481 73.2782C54.3095 72.7697 54.1902 72.1887 54.1902 71.5353C54.1902 70.8705 54.3123 70.2839 54.5567 69.7753C54.8038 69.264 55.1476 68.8648 55.5879 68.5779C56.0311 68.2881 56.5481 68.1432 57.139 68.1432C57.5993 68.1432 58.014 68.2285 58.3834 68.3989C58.7527 68.5694 59.0552 68.808 59.291 69.1148C59.5268 69.4217 59.6731 69.7796 59.7299 70.1887H58.7243C58.6476 69.8904 58.4771 69.6262 58.2129 69.3961C57.9515 69.1631 57.5993 69.0467 57.1561 69.0467C56.764 69.0467 56.4203 69.1489 56.1248 69.3535C55.8322 69.5552 55.6035 69.8407 55.4388 70.21C55.2768 70.5765 55.1959 71.0069 55.1959 71.5012C55.1959 72.0069 55.2754 72.4472 55.4345 72.8222C55.5964 73.1972 55.8237 73.4884 56.1163 73.6958C56.4118 73.9032 56.7584 74.0069 57.1561 74.0069C57.4174 74.0069 57.6547 73.9614 57.8677 73.8705C58.0808 73.7796 58.2612 73.6489 58.4089 73.4785C58.5567 73.308 58.6618 73.1035 58.7243 72.8648H59.7299C59.6731 73.2512 59.5325 73.5992 59.3081 73.9089C59.0865 74.2157 58.7924 74.46 58.426 74.6418C58.0623 74.8208 57.639 74.9103 57.1561 74.9103ZM64.0467 68.2285V69.0807H60.6547V68.2285H64.0467ZM61.6433 66.6603H62.649V72.8989C62.649 73.183 62.6902 73.3961 62.7726 73.5381C62.8578 73.6773 62.9657 73.7711 63.0964 73.8194C63.2299 73.8648 63.3706 73.8876 63.5183 73.8876C63.6291 73.8876 63.72 73.8819 63.791 73.8705C63.862 73.8563 63.9189 73.8449 63.9615 73.8364L64.166 74.7398C64.0978 74.7654 64.0027 74.791 63.8805 74.8165C63.7584 74.8449 63.6035 74.8592 63.416 74.8592C63.1319 74.8592 62.8535 74.7981 62.5808 74.6759C62.3109 74.5538 62.0865 74.3677 61.9075 74.1177C61.7314 73.8677 61.6433 73.5523 61.6433 73.1717V66.6603ZM65.5595 74.7739V68.2285H66.5652V74.7739H65.5595ZM66.0709 67.1376C65.8748 67.1376 65.7058 67.0708 65.5638 66.9373C65.4245 66.8038 65.3549 66.6432 65.3549 66.4557C65.3549 66.2682 65.4245 66.1077 65.5638 65.9742C65.7058 65.8407 65.8748 65.7739 66.0709 65.7739C66.2669 65.7739 66.4345 65.8407 66.5737 65.9742C66.7157 66.1077 66.7868 66.2682 66.7868 66.4557C66.7868 66.6432 66.7157 66.8038 66.5737 66.9373C66.4345 67.0708 66.2669 67.1376 66.0709 67.1376ZM69.4128 70.8364V74.7739H68.4071V68.2285H69.3787V69.2512H69.464C69.6174 68.9188 69.8503 68.6518 70.1628 68.4501C70.4753 68.2455 70.8787 68.1432 71.3731 68.1432C71.8162 68.1432 72.204 68.2342 72.5364 68.416C72.8688 68.5949 73.1273 68.8677 73.312 69.2342C73.4966 69.5978 73.589 70.058 73.589 70.6148V74.7739H72.5833V70.683C72.5833 70.1688 72.4498 69.7682 72.1827 69.4813C71.9157 69.1915 71.5492 69.0467 71.0833 69.0467C70.7623 69.0467 70.4753 69.1163 70.2225 69.2555C69.9725 69.3947 69.775 69.5978 69.6302 69.8648C69.4853 70.1319 69.4128 70.4557 69.4128 70.8364ZM78.0687 77.3648C77.5829 77.3648 77.1653 77.3023 76.8159 77.1773C76.4665 77.0552 76.1753 76.8932 75.9423 76.6915C75.7122 76.4927 75.529 76.2796 75.3926 76.0523L76.1937 75.4898C76.2846 75.6092 76.3997 75.7455 76.5389 75.8989C76.6781 76.0552 76.8684 76.1901 77.1099 76.3038C77.3542 76.4202 77.6738 76.4785 78.0687 76.4785C78.5971 76.4785 79.0332 76.3506 79.377 76.0949C79.7207 75.8393 79.8926 75.4387 79.8926 74.8932V73.5637H79.8074C79.7335 73.683 79.6284 73.8307 79.492 74.0069C79.3585 74.1802 79.1653 74.335 78.9125 74.4714C78.6625 74.6049 78.3244 74.6717 77.8983 74.6717C77.3699 74.6717 76.8954 74.5467 76.475 74.2967C76.0574 74.0467 75.7264 73.683 75.4821 73.2057C75.2406 72.7285 75.1199 72.1489 75.1199 71.4671C75.1199 70.7967 75.2378 70.2128 75.4736 69.7157C75.7094 69.2157 76.0375 68.8293 76.4579 68.5566C76.8784 68.281 77.3642 68.1432 77.9153 68.1432C78.3415 68.1432 78.6795 68.2143 78.9295 68.3563C79.1824 68.4955 79.3755 68.6546 79.5091 68.8336C79.6454 69.0097 79.7505 69.1546 79.8244 69.2682H79.9267V68.2285H80.8983V74.9614C80.8983 75.5239 80.7704 75.9813 80.5147 76.3336C80.2619 76.6887 79.921 76.9486 79.492 77.1134C79.0659 77.281 78.5915 77.3648 78.0687 77.3648ZM78.0346 73.7682C78.438 73.7682 78.779 73.6759 79.0574 73.4913C79.3358 73.3066 79.5474 73.041 79.6923 72.6944C79.8372 72.3478 79.9096 71.933 79.9096 71.4501C79.9096 70.9785 79.8386 70.5623 79.6966 70.2015C79.5545 69.8407 79.3443 69.558 79.0659 69.3535C78.7875 69.1489 78.4437 69.0467 78.0346 69.0467C77.6085 69.0467 77.2534 69.1546 76.9693 69.3705C76.688 69.5864 76.4764 69.8762 76.3344 70.2398C76.1951 70.6035 76.1255 71.0069 76.1255 71.4501C76.1255 71.9046 76.1966 72.3066 76.3386 72.656C76.4835 73.0026 76.6966 73.2753 76.9778 73.4742C77.2619 73.6702 77.6142 73.7682 78.0346 73.7682ZM88.9608 68.2285V69.0807H85.5687V68.2285H88.9608ZM86.5574 66.6603H87.563V72.8989C87.563 73.183 87.6042 73.3961 87.6866 73.5381C87.7719 73.6773 87.8798 73.7711 88.0105 73.8194C88.144 73.8648 88.2846 73.8876 88.4324 73.8876C88.5432 73.8876 88.6341 73.8819 88.7051 73.8705C88.7761 73.8563 88.8329 73.8449 88.8755 73.8364L89.0801 74.7398C89.0119 74.7654 88.9167 74.791 88.7946 74.8165C88.6724 74.8449 88.5176 74.8592 88.3301 74.8592C88.046 74.8592 87.7676 74.7981 87.4949 74.6759C87.225 74.5538 87.0005 74.3677 86.8216 74.1177C86.6454 73.8677 86.5574 73.5523 86.5574 73.1717V66.6603ZM91.6199 70.8364V74.7739H90.6142V66.0467H91.6199V69.2512H91.7051C91.8585 68.9131 92.0886 68.6447 92.3954 68.4458C92.7051 68.2441 93.117 68.1432 93.6312 68.1432C94.0772 68.1432 94.4679 68.2327 94.8031 68.4117C95.1383 68.5878 95.3983 68.8592 95.5829 69.2256C95.7704 69.5893 95.8642 70.0523 95.8642 70.6148V74.7739H94.8585V70.683C94.8585 70.1631 94.7236 69.7611 94.4537 69.4771C94.1866 69.1901 93.8159 69.0467 93.3415 69.0467C93.0119 69.0467 92.7165 69.1163 92.4551 69.2555C92.1966 69.3947 91.992 69.5978 91.8415 69.8648C91.6937 70.1319 91.6199 70.4557 91.6199 70.8364ZM100.448 74.9103C99.8177 74.9103 99.2736 74.7711 98.8162 74.4927C98.3617 74.2114 98.0108 73.8194 97.7637 73.3165C97.5194 72.8109 97.3972 72.2228 97.3972 71.5523C97.3972 70.8819 97.5194 70.291 97.7637 69.7796C98.0108 69.2654 98.3546 68.8648 98.7949 68.5779C99.2381 68.2881 99.7552 68.1432 100.346 68.1432C100.687 68.1432 101.024 68.2001 101.356 68.3137C101.688 68.4273 101.991 68.612 102.264 68.8677C102.536 69.1205 102.754 69.4557 102.916 69.8734C103.078 70.291 103.159 70.8052 103.159 71.416V71.8421H98.1131V70.9728H102.136C102.136 70.6035 102.062 70.2739 101.914 69.9842C101.769 69.6944 101.562 69.4657 101.292 69.2981C101.025 69.1305 100.71 69.0467 100.346 69.0467C99.9455 69.0467 99.5989 69.1461 99.3063 69.3449C99.0165 69.541 98.7935 69.7967 98.6373 70.112C98.481 70.4273 98.4029 70.7654 98.4029 71.1262V71.7057C98.4029 72.2001 98.4881 72.6191 98.6586 72.9628C98.8319 73.3038 99.0719 73.5637 99.3787 73.7427C99.6856 73.9188 100.042 74.0069 100.448 74.0069C100.713 74.0069 100.951 73.9699 101.164 73.8961C101.38 73.8194 101.566 73.7057 101.722 73.5552C101.879 73.4018 101.999 73.2114 102.085 72.9842L103.056 73.2569C102.954 73.5864 102.782 73.8762 102.541 74.1262C102.299 74.3734 102.001 74.5665 101.646 74.7057C101.291 74.8421 100.892 74.9103 100.448 74.9103ZM109.546 74.7739L107.552 68.2285H108.609L110.024 73.2398H110.092L111.49 68.2285H112.563L113.944 73.2228H114.012L115.427 68.2285H116.484L114.49 74.7739H113.501L112.069 69.7455H111.967L110.535 74.7739H109.546ZM120.25 74.9103C119.659 74.9103 119.14 74.7697 118.694 74.4884C118.251 74.2072 117.905 73.8137 117.655 73.308C117.408 72.8023 117.284 72.2114 117.284 71.5353C117.284 70.8535 117.408 70.2583 117.655 69.7498C117.905 69.2413 118.251 68.8464 118.694 68.5651C119.14 68.2839 119.659 68.1432 120.25 68.1432C120.841 68.1432 121.358 68.2839 121.801 68.5651C122.247 68.8464 122.594 69.2413 122.841 69.7498C123.091 70.2583 123.216 70.8535 123.216 71.5353C123.216 72.2114 123.091 72.8023 122.841 73.308C122.594 73.8137 122.247 74.2072 121.801 74.4884C121.358 74.7697 120.841 74.9103 120.25 74.9103ZM120.25 74.0069C120.699 74.0069 121.068 73.8918 121.358 73.6617C121.648 73.4316 121.862 73.129 122.001 72.754C122.14 72.379 122.21 71.9728 122.21 71.5353C122.21 71.0978 122.14 70.6901 122.001 70.3123C121.862 69.9344 121.648 69.629 121.358 69.3961C121.068 69.1631 120.699 69.0467 120.25 69.0467C119.801 69.0467 119.432 69.1631 119.142 69.3961C118.852 69.629 118.638 69.9344 118.498 70.3123C118.359 70.6901 118.29 71.0978 118.29 71.5353C118.29 71.9728 118.359 72.379 118.498 72.754C118.638 73.129 118.852 73.4316 119.142 73.6617C119.432 73.8918 119.801 74.0069 120.25 74.0069ZM124.751 74.7739V68.2285H125.722V69.2171H125.791C125.91 68.8932 126.126 68.6305 126.438 68.4288C126.751 68.2271 127.103 68.1262 127.495 68.1262C127.569 68.1262 127.661 68.1276 127.772 68.1305C127.883 68.1333 127.967 68.1376 128.024 68.1432V69.166C127.99 69.1574 127.911 69.1447 127.789 69.1276C127.67 69.1077 127.544 69.0978 127.41 69.0978C127.092 69.0978 126.808 69.1646 126.558 69.2981C126.311 69.4288 126.115 69.6106 125.97 69.8435C125.828 70.0736 125.757 70.3364 125.757 70.6319V74.7739H124.751ZM130.221 66.0467V74.7739H129.216V66.0467H130.221ZM134.535 74.9103C133.99 74.9103 133.508 74.7725 133.09 74.4969C132.673 74.2185 132.346 73.8265 132.11 73.3208C131.874 72.8123 131.757 72.2114 131.757 71.5182C131.757 70.8307 131.874 70.2342 132.11 69.7285C132.346 69.2228 132.674 68.8322 133.095 68.5566C133.515 68.281 134.001 68.1432 134.552 68.1432C134.978 68.1432 135.315 68.2143 135.562 68.3563C135.812 68.4955 136.002 68.6546 136.133 68.8336C136.267 69.0097 136.37 69.1546 136.444 69.2682H136.529V66.0467H137.535V74.7739H136.563V73.7682H136.444C136.37 73.8876 136.265 74.0381 136.129 74.2199C135.992 74.3989 135.798 74.5594 135.545 74.7015C135.292 74.8407 134.955 74.9103 134.535 74.9103ZM134.671 74.0069C135.075 74.0069 135.416 73.9018 135.694 73.6915C135.972 73.4785 136.184 73.1844 136.329 72.8094C136.474 72.4316 136.546 71.9955 136.546 71.5012C136.546 71.0126 136.475 70.585 136.333 70.2185C136.191 69.8492 135.981 69.5623 135.703 69.3577C135.424 69.1503 135.08 69.0467 134.671 69.0467C134.245 69.0467 133.89 69.156 133.606 69.3748C133.325 69.5907 133.113 69.8847 132.971 70.2569C132.832 70.6262 132.762 71.041 132.762 71.5012C132.762 71.9671 132.833 72.3904 132.975 72.7711C133.12 73.1489 133.333 73.4501 133.615 73.6745C133.899 73.8961 134.251 74.0069 134.671 74.0069Z" fill="white"/>
<path d="M114 37.1129L117.247 31.2L120.495 37.1129" fill="white"/>
</g>
<defs>
<clipPath id="clip0_699_3">
<rect width="276.064" height="104.421" fill="white"/>
</clipPath>
</defs>
</svg>
