<svg width="100" height="100" viewBox="0 0 100 100" fill="none" xmlns="http://www.w3.org/2000/svg">
<circle cx="50" cy="50" r="50" fill="#100E3F" fill-opacity="0.05"/>
<path d="M33.5352 28.4961C32.5684 28.5254 32.4121 28.6523 32.3438 29.4434C32.3242 29.7363 32.2754 29.9805 32.2559 29.9805C32.2266 29.9805 31.3281 29.7363 30.2637 29.4434C29.1992 29.1504 28.2031 28.9062 28.0469 28.9062C27.7148 28.9062 27.4609 29.1504 27.3926 29.5508C27.2949 30.0586 25 55.0586 25 55.5469C25 55.8789 25.0488 56.0742 25.1758 56.1719C25.3223 56.2988 29.1016 57.6172 35.1562 59.6387C36.0449 59.9414 36.7969 60.2051 36.8359 60.2441C36.875 60.2734 36.1816 62.5977 35.3027 65.4102C34.4141 68.2227 33.6914 70.6641 33.6914 70.8398C33.6914 71.0449 33.7695 71.2305 33.8965 71.3477C34.0918 71.5234 34.2773 71.5332 36.5625 71.5332H39.0137L44.4629 68.1836C47.7246 66.1816 49.9805 64.8438 50.0781 64.873C50.1758 64.8926 52.666 66.4062 55.6152 68.2227L60.9863 71.5332H63.4375C65.7227 71.5332 65.9082 71.5234 66.1035 71.3477C66.2305 71.2305 66.3086 71.0449 66.3086 70.8301C66.3086 70.6543 65.5859 68.2129 64.6973 65.4102C63.8184 62.5977 63.125 60.2734 63.1641 60.2441C63.2031 60.2148 65.8008 59.3164 68.9453 58.252C72.0898 57.1875 74.7363 56.2598 74.8242 56.1719C74.9512 56.0742 75 55.8789 75 55.5469C75 55.0488 72.7051 30.0586 72.6074 29.5508C72.5391 29.1504 72.2852 28.9062 71.9531 28.9062C71.7969 28.9062 70.8008 29.1504 69.7363 29.4434C68.6719 29.7363 67.7734 29.9805 67.7441 29.9805C67.7246 29.9805 67.6758 29.7363 67.6562 29.4336C67.5781 28.5156 67.5586 28.5059 65.2734 28.5059C62.4316 28.5156 60.1562 28.7793 57.8516 29.3848C55.1855 30.0879 52.3926 31.4551 50.5664 32.9395L50 33.3984L49.4434 32.9395C46.2891 30.3809 41.416 28.7305 36.4746 28.5547C35.6738 28.5352 34.8535 28.4961 34.668 28.4863C34.4824 28.4766 33.9648 28.4766 33.5352 28.4961ZM36.377 29.9805C41.5234 30.3125 45.3516 31.6211 48.623 34.1797L49.3164 34.7168V45.8398V56.9531L49.1016 56.7969C44.7461 53.6523 40.8398 52.2266 36.1816 52.0801C35.2734 52.0508 34.0625 52.0703 33.4961 52.1289C32.9395 52.1875 32.4609 52.2266 32.4512 52.207C32.4219 52.1777 33.6719 31.1133 33.75 30.3906L33.7988 29.8828H34.3066C34.5898 29.8828 35.5176 29.9316 36.377 29.9805ZM66.25 30.3906C66.3281 31.1133 67.5781 52.1777 67.5488 52.207C67.5391 52.2266 67.0605 52.1875 66.5039 52.1289C65.9375 52.0703 64.7363 52.0508 63.8184 52.0801C59.1504 52.2266 55.2637 53.6523 50.9082 56.7969L50.6836 56.9531V45.8594V34.7656L51.0059 34.4727C51.4258 34.082 53.1152 32.9297 53.916 32.4902C56.8359 30.8691 60.7617 29.9805 65.4004 29.9023L66.2012 29.8828L66.25 30.3906ZM30.7031 31.0742L32.2461 31.4941L32.1973 32.0801C32.0117 34.0527 30.9375 53.125 30.9863 53.3496C31.1035 53.7988 31.3672 53.8477 32.7051 53.6719C38.3398 52.9395 43.8867 54.5605 48.5547 58.2812L49.3164 58.8867V60.8984C49.3164 62.5391 49.2969 62.9004 49.1895 62.8613C49.1113 62.832 43.9844 61.0938 37.793 58.9941C31.5918 56.8848 26.5039 55.1562 26.4844 55.1367C26.4746 55.1172 26.9629 49.6582 27.5879 43.0078C28.2031 36.3477 28.7109 30.8301 28.7109 30.7227C28.7109 30.5859 28.7598 30.5566 28.9355 30.5957C29.0527 30.6348 29.8438 30.8496 30.7031 31.0742ZM71.2891 30.7324C71.2891 30.8301 71.7969 36.3477 72.4121 43.0078C73.0371 49.6582 73.5254 55.1172 73.5156 55.1367C73.4863 55.166 50.7715 62.8906 50.7129 62.8906C50.6934 62.8906 50.6836 61.9922 50.6836 60.8984V58.9062L51.1523 58.5156C55.8301 54.6387 61.5332 52.9199 67.2949 53.6719C68.6328 53.8477 68.8965 53.7988 69.0137 53.3496C69.0625 53.125 67.9883 34.0527 67.8027 32.0801L67.7539 31.4941L69.4043 31.0352C71.3086 30.5078 71.2891 30.5176 71.2891 30.7324ZM43.2812 62.4023C45.9766 63.3203 48.1934 64.082 48.2129 64.0918C48.2227 64.1113 46.0352 65.4785 43.3398 67.1191L38.4473 70.1172L36.9043 70.0977L35.3711 70.0684L36.6797 65.918C37.4023 63.6328 38.0566 61.5332 38.1445 61.25C38.2227 60.9766 38.3105 60.7422 38.3398 60.7422C38.3691 60.7422 40.5859 61.4941 43.2812 62.4023ZM61.7578 60.9082C61.8848 61.3379 64.5605 69.8242 64.6094 69.9609C64.6582 70.0977 64.4824 70.1172 63.1055 70.1172H61.5527L56.8262 67.2266C54.2285 65.6348 52.0215 64.2773 51.9238 64.209C51.7773 64.1016 52.4707 63.8477 56.6602 62.4219C59.3652 61.5039 61.6016 60.752 61.6406 60.752C61.6797 60.7422 61.7285 60.8203 61.7578 60.9082Z" fill="#AF1E22"/>
<path d="M36.2305 32.6172C35.9766 32.8711 35.9766 33.4082 36.2305 33.6426C36.377 33.7696 36.7383 33.8575 37.5488 33.9454C40.625 34.3067 43.2031 35.1563 45.2246 36.4844C45.9961 36.9922 46.3672 37.0411 46.6699 36.6602C47.0801 36.1426 46.9434 35.8399 46.0059 35.2344C43.9746 33.9063 41.2305 32.959 38.2422 32.5684C36.7285 32.3731 36.4648 32.3829 36.2305 32.6172Z" fill="#AF1E22"/>
<path d="M35.918 37.8614C35.3418 38.5157 35.8203 39.1602 36.875 39.1602C37.0996 39.1602 37.6367 39.209 38.0566 39.2579C40.8398 39.629 43.0566 40.3516 45.4102 41.6504C46.1035 42.0313 46.4063 42.0411 46.709 41.6797C46.9238 41.4161 46.9238 41.1036 46.6895 40.8008C46.416 40.459 44.1895 39.3458 42.8516 38.8868C41.4941 38.4083 39.9121 38.0469 38.3496 37.8418C36.7871 37.6465 36.1035 37.6465 35.918 37.8614Z" fill="#AF1E22"/>
<path d="M35.5566 43.1542C35.3027 43.4082 35.293 43.75 35.5469 44.0722C35.7227 44.2871 35.8398 44.3261 36.6016 44.3847C39.7559 44.6191 42.4023 45.2832 44.8047 46.4355C46.0742 47.041 46.3769 47.0898 46.6699 46.7187C47.0898 46.1816 46.8945 45.8105 45.8984 45.3125C43.291 43.9941 39.9902 43.1347 37.0508 42.998C35.8301 42.9394 35.7617 42.9492 35.5566 43.1542Z" fill="#AF1E22"/>
<path d="M35.332 48.3398C34.9805 48.6133 34.9609 49.0918 35.2832 49.3848C35.459 49.5508 35.6836 49.5996 36.6699 49.6484C39.6094 49.8145 42.5684 50.5176 45.1172 51.6699C45.5859 51.875 46.0644 52.0508 46.1816 52.0508C46.4551 52.0508 46.875 51.6309 46.875 51.3672C46.875 50.8398 46.4941 50.5859 44.5898 49.8535C42.041 48.877 39.6582 48.3789 36.6699 48.1934C35.6641 48.1348 35.5762 48.1445 35.332 48.3398Z" fill="#AF1E22"/>
<path d="M61.6699 32.5782C58.75 32.9688 55.9863 33.9258 53.9941 35.2344C53.0566 35.8399 52.9199 36.1426 53.3301 36.6602C53.6328 37.0411 54.0039 36.9922 54.7754 36.4844C56.7969 35.1563 59.375 34.3067 62.4512 33.9454C63.2617 33.8575 63.6231 33.7696 63.7695 33.6426C64.0234 33.4082 64.0234 32.8711 63.7695 32.6172C63.5352 32.3829 63.125 32.3731 61.6699 32.5782Z" fill="#AF1E22"/>
<path d="M61.5234 37.8516C60.0684 38.0567 58.4668 38.4278 57.1484 38.8868C55.8106 39.3458 53.584 40.459 53.3106 40.8008C53.0762 41.1036 53.0762 41.4161 53.3008 41.6797C53.6035 42.0411 53.8965 42.0313 54.5898 41.6504C57.2266 40.1856 59.7656 39.4336 62.9297 39.17C63.8281 39.0918 63.9258 39.0626 64.1406 38.8184C64.3945 38.5254 64.375 38.1836 64.0918 37.8614C63.8965 37.6563 63.0273 37.6465 61.5234 37.8516Z" fill="#AF1E22"/>
<path d="M62.0605 43.0371C59.043 43.4082 56.9043 44.0039 54.5312 45.1172C53.4473 45.625 53.125 45.8789 53.125 46.2305C53.125 46.582 53.4863 46.9727 53.7988 46.9727C53.9551 46.9727 54.5801 46.7285 55.1953 46.4355C57.5977 45.2832 60.2441 44.6191 63.3984 44.3848C64.1602 44.3262 64.2773 44.2871 64.4531 44.0723C64.6973 43.75 64.6973 43.4082 64.4531 43.1641C64.2773 42.9883 64.1406 42.9687 63.3105 42.9785C62.7832 42.9883 62.2266 43.0176 62.0605 43.0371Z" fill="#AF1E22"/>
<path d="M62.8906 48.2129C60.0977 48.3887 57.0117 49.1309 54.4434 50.2539C53.3984 50.7129 53.125 50.9375 53.125 51.3477C53.125 51.6309 53.5352 52.0508 53.8184 52.0508C53.9355 52.0508 54.4141 51.875 54.8926 51.6602C57.4512 50.5078 60.3711 49.8145 63.3301 49.6484C64.3164 49.5996 64.541 49.5508 64.7266 49.3848C65.0391 49.1016 65.0195 48.6133 64.6875 48.3496C64.4238 48.1445 64.2773 48.125 62.8906 48.2129Z" fill="#AF1E22"/>
</svg>
