<svg width="100" height="100" viewBox="0 0 100 100" fill="none" xmlns="http://www.w3.org/2000/svg">
<circle cx="50" cy="50" r="50" fill="#100E3F" fill-opacity="0.05"/>
<path d="M47.9005 26.6211C46.8653 26.7773 45.4591 27.0996 44.5509 27.3926C43.1935 27.8418 41.2013 28.8379 40.0392 29.668C38.8478 30.5078 36.7579 32.5977 35.9181 33.7891C34.6486 35.5762 33.5841 38.0469 33.0958 40.332C32.9005 41.2012 32.8712 41.6602 32.8712 43.4082C32.8614 45.3516 32.8712 45.5078 33.1349 46.4355C34.3946 51.0156 38.047 56.7773 43.9747 63.5742C44.2775 63.916 44.5118 64.209 44.5021 64.2285C44.4825 64.2383 43.7696 64.3457 42.9103 64.4531C37.715 65.1074 34.3849 66.377 33.7306 67.9199C33.545 68.3789 33.5548 69.1797 33.7599 69.6094C34.6486 71.4844 39.0626 72.8516 45.7521 73.3398C47.5294 73.4668 52.4513 73.4668 54.2775 73.3398C60.84 72.8711 65.3614 71.4648 66.2403 69.6094C66.4454 69.1797 66.4552 68.3789 66.2696 67.9199C65.9376 67.1289 64.6095 66.2402 62.9396 65.6836C61.2501 65.1172 59.0138 64.6777 55.879 64.2969L55.4591 64.248L55.7325 63.916C55.879 63.7402 56.67 62.8125 57.4708 61.8457C62.5978 55.7617 65.6935 50.6836 66.8653 46.4355C67.129 45.5078 67.1388 45.3516 67.129 43.4082C67.129 41.6602 67.0997 41.2012 66.9044 40.332C65.5958 34.209 61.2794 29.3359 55.4689 27.4023C53.5841 26.7773 52.7345 26.6406 50.3419 26.6113C49.1603 26.5918 48.0665 26.6016 47.9005 26.6211ZM52.0997 28.3301C58.4571 29.1504 63.7111 33.9844 65.1954 40.3809C65.4396 41.4355 65.4689 41.7383 65.4689 43.3594C65.4786 44.9414 65.4493 45.2734 65.254 46.0156C64.1505 50.1758 60.5079 55.8496 54.6486 62.5488C53.4474 63.916 50.7521 66.8164 50.254 67.2754L50.0001 67.5195L49.6486 67.1777C49.0333 66.6016 46.6017 63.9746 45.3419 62.5391C42.0021 58.7207 39.0431 54.7656 37.2657 51.7383C35.9864 49.5605 34.9708 47.1191 34.6193 45.4102C34.3946 44.3164 34.463 41.8848 34.756 40.5566C35.4786 37.2754 37.3341 34.1113 39.7755 32.0312C43.2618 29.0527 47.5978 27.7441 52.0997 28.3301ZM47.754 67.6758L49.5607 69.541L50.0001 69.5312H50.4396L52.2462 67.666L54.0626 65.8008L55.2736 65.9082C59.7657 66.3379 63.5548 67.3535 64.5411 68.3984C64.8732 68.75 64.7657 69.0234 64.1212 69.4531C62.2657 70.6641 57.3927 71.6113 52.1583 71.7578C45.9767 71.9434 40.7228 71.3574 37.295 70.1172C36.2306 69.7363 35.3712 69.209 35.2931 68.8867C35.0294 67.8516 39.0431 66.5137 44.0431 65.9766C46.1232 65.752 45.6935 65.5566 47.754 67.6758Z" fill="#AF1E22"/>
<path d="M47.7441 31.4062C45.2539 31.8555 43.0371 33.0176 41.1816 34.8438C40.1562 35.8594 39.4336 36.8457 38.8281 38.0371C37.8906 39.9023 37.5 41.5918 37.5 43.75C37.5 45.8887 37.8711 47.5098 38.7695 49.3457C39.9609 51.748 42.1191 53.8965 44.5117 55.0391C46.2891 55.8887 47.9395 56.25 50 56.25C53.418 56.25 56.2793 55.1074 58.7012 52.7637C59.7852 51.709 60.5469 50.6934 61.1719 49.4629C62.1094 47.5977 62.5 45.9082 62.5 43.75C62.5 41.0938 61.8359 38.8965 60.3711 36.6699C59.7852 35.791 57.959 33.9648 57.0801 33.3789C55.5859 32.3926 53.8379 31.6895 52.207 31.3965C51.1328 31.2109 48.7793 31.2109 47.7441 31.4062ZM51.3281 32.959C52.1973 33.0371 53.623 33.4473 54.541 33.877C57.1387 35.0879 59.1992 37.3145 60.1855 39.9609C60.6934 41.3184 60.791 41.9238 60.791 43.7988C60.791 45.4102 60.7617 45.6348 60.5176 46.5137C59.3555 50.7031 55.9082 53.8086 51.6602 54.502C50.7227 54.6484 48.877 54.6191 47.9883 54.4434C45.7617 53.9844 43.8965 52.9883 42.3242 51.4258C38.0664 47.1582 38.0664 40.332 42.3242 36.0742C44.1406 34.2578 46.5137 33.1445 49.0234 32.9102C49.834 32.8418 50.1172 32.8516 51.3281 32.959Z" fill="#AF1E22"/>
<path d="M43.9648 36.8945C43.8477 37.0117 43.6328 37.6953 43.3789 38.7012L42.9688 40.332V45.3613C42.9688 50.2637 42.9785 50.4004 43.1641 50.5859C43.3594 50.7812 43.4863 50.7812 50 50.7812C56.5137 50.7812 56.6406 50.7812 56.8359 50.5859C57.0215 50.4004 57.0312 50.2637 57.0312 45.3613V40.332L56.6211 38.7012C56.3672 37.6953 56.1523 37.0117 56.0352 36.8945C55.8691 36.7285 55.5566 36.7188 50 36.7188C44.4434 36.7188 44.1309 36.7285 43.9648 36.8945ZM47.6562 39.0625V39.8438H46.2402C45.459 39.8438 44.8242 39.8145 44.8242 39.7852C44.8242 39.7168 45.1074 38.584 45.166 38.3984C45.1953 38.3105 45.5371 38.2812 46.4355 38.2812H47.6562V39.0625ZM50.7812 39.0625V39.8438H50H49.2188V39.0625V38.2812H50H50.7812V39.0625ZM55 39.0137C55.0879 39.3848 55.1758 39.7266 55.1758 39.7656C55.1758 39.8145 54.541 39.8438 53.7598 39.8438H52.3438V39.0625V38.2715L53.584 38.3008L54.8242 38.3301L55 39.0137ZM47.6562 42.7734C47.6562 44.6484 47.5 44.5312 50 44.5312C52.5 44.5312 52.3438 44.6484 52.3438 42.7734V41.4062H53.9062H55.4688V45.3125V49.2188H50H44.5312V45.3125V41.4062H46.0938H47.6562V42.7734ZM50.7812 42.1875V42.9688H50H49.2188V42.1875V41.4062H50H50.7812V42.1875Z" fill="#AF1E22"/>
<path d="M50.9766 47.0703C50.8496 47.1973 50.7812 47.3926 50.7812 47.6562C50.7812 47.9199 50.8496 48.1152 50.9766 48.2422C51.1523 48.418 51.2988 48.4375 52.7344 48.4375C54.1699 48.4375 54.3164 48.418 54.4922 48.2422C54.6191 48.1152 54.6875 47.9199 54.6875 47.6562C54.6875 47.3926 54.6191 47.1973 54.4922 47.0703C54.3164 46.8945 54.1699 46.875 52.7344 46.875C51.2988 46.875 51.1523 46.8945 50.9766 47.0703Z" fill="#AF1E22"/>
</svg>
