<svg width="300" height="102" viewBox="0 0 300 102" fill="none" xmlns="http://www.w3.org/2000/svg">
<path d="M303 102L302.06 96.3035L297.597 99.9656L303 102ZM167 78L167.245 78.4361L167 78ZM3 0L0.416351 5.16315L6.1796 4.81908L3 0ZM300.523 98.1931C300.481 98.1442 300.438 98.0952 300.395 98.0462L299.642 98.7037C299.684 98.7522 299.726 98.8006 299.768 98.849L300.523 98.1931ZM293.804 91.2345C291.606 89.1704 289.203 87.0955 286.608 85.0555L285.99 85.8417C288.562 87.8634 290.942 89.9193 293.12 91.9636L293.804 91.2345ZM278.932 79.5275C276.361 77.8352 273.65 76.202 270.807 74.6586L270.33 75.5374C273.147 77.0669 275.834 78.6855 278.382 80.3628L278.932 79.5275ZM262.293 70.5033C259.448 69.2661 256.496 68.1299 253.444 67.1189L253.13 68.0682C256.152 69.0694 259.075 70.1947 261.894 71.4204L262.293 70.5033ZM244.323 64.5615C241.297 63.8645 238.188 63.2969 235.002 62.8784L234.872 63.8699C238.026 64.2841 241.103 64.846 244.098 65.5359L244.323 64.5615ZM225.564 62.1006C222.469 61.996 219.312 62.0361 216.095 62.2366L216.157 63.2346C219.342 63.0361 222.467 62.9965 225.53 63.1001L225.564 62.1006ZM206.675 63.2705C203.626 63.7495 200.531 64.3757 197.391 65.1611L197.634 66.1312C200.744 65.353 203.811 64.7327 206.83 64.2584L206.675 63.2705ZM188.325 67.8424C185.409 68.8378 182.459 69.9731 179.478 71.2571L179.874 72.1755C182.831 70.9016 185.757 69.7756 188.648 68.7888L188.325 67.8424ZM170.945 75.3039C169.555 76.024 168.158 76.7771 166.755 77.5639L167.245 78.4361C168.638 77.6546 170.025 76.9068 171.405 76.1919L170.945 75.3039ZM166.755 77.5639C165.301 78.3799 163.847 79.1624 162.394 79.912L162.853 80.8007C164.316 80.0457 165.78 79.2577 167.245 78.4361L166.755 77.5639ZM153.511 84.0973C150.447 85.4053 147.392 86.5709 144.349 87.5995L144.67 88.5468C147.737 87.5099 150.816 86.3351 153.904 85.017L153.511 84.0973ZM134.914 90.3682C131.682 91.1731 128.471 91.8267 125.284 92.336L125.442 93.3234C128.657 92.8097 131.896 92.1503 135.156 91.3386L134.914 90.3682ZM115.537 93.4561C112.23 93.6879 108.956 93.7663 105.722 93.6993L105.701 94.6991C108.966 94.7667 112.27 94.6876 115.607 94.4537L115.537 93.4561ZM95.9214 93.0455C92.6421 92.6744 89.4116 92.1544 86.2367 91.4945L86.0332 92.4736C89.2379 93.1397 92.4988 93.6646 95.809 94.0391L95.9214 93.0455ZM76.7186 89.0527C73.5694 88.0881 70.4865 86.9844 67.4773 85.7515L67.0981 86.6768C70.1354 87.9212 73.247 89.0352 76.4257 90.0088L76.7186 89.0527ZM58.566 81.6168C55.6475 80.0979 52.8139 78.4541 50.0729 76.6959L49.533 77.5377C52.2992 79.312 55.1589 80.9709 58.1043 82.5039L58.566 81.6168ZM42.052 71.024C39.455 69.0055 36.9626 66.879 34.5835 64.6559L33.9007 65.3866C36.302 67.6303 38.8174 69.7764 41.4384 71.8136L42.052 71.024ZM27.721 57.6262C25.5337 55.1678 23.4731 52.6205 21.5482 49.9962L20.7419 50.5876C22.6855 53.2375 24.7659 55.8093 26.974 58.2909L27.721 57.6262ZM16.1317 41.8067C14.4532 38.976 12.926 36.0775 11.5596 33.124L10.652 33.5439C12.033 36.5288 13.576 39.4574 15.2715 42.3167L16.1317 41.8067ZM7.91986 24.0164C6.86752 20.9046 5.99228 17.7491 5.30399 14.5634L4.32654 14.7746C5.02298 17.9981 5.90842 21.19 6.97256 24.3367L7.91986 24.0164ZM3.80524 4.87772C3.79187 4.7346 3.77887 4.59145 3.76627 4.44827L2.77011 4.536C2.7829 4.68097 2.79605 4.82591 2.8096 4.97082L3.80524 4.87772Z" fill="#AF1E22"/>
</svg>
