<svg width="100" height="100" viewBox="0 0 100 100" fill="none" xmlns="http://www.w3.org/2000/svg">
<circle cx="50" cy="50" r="50" fill="#100E3F" fill-opacity="0.05"/>
<path d="M50.0488 26.9824C48.9844 27.3438 48.1445 28.0762 47.6855 29.0528C47.4512 29.5703 47.4121 29.7559 47.4219 30.5664C47.4219 32.0899 47.5 32.2071 50.4492 35.1563L52.9297 37.6465V40.459C52.9297 42.002 52.9102 43.2617 52.8809 43.2617C52.8516 43.2617 52.5781 43.1348 52.2656 42.9785C51.5332 42.6172 50.6348 42.3047 49.5605 42.0606C48.7207 41.8653 48.3496 41.8555 41.2305 41.8262C33.1348 41.7871 33.1055 41.7871 32.1777 42.3242C31.6016 42.666 30.9863 43.3301 30.6836 43.9453C30.4492 44.4239 30.4199 44.5899 30.4199 45.5078C30.4199 46.4746 30.4395 46.5821 30.7324 47.1778C31.1133 47.9492 31.7285 48.5449 32.5 48.9063L33.0566 49.1699L40.5273 49.2188C47.8906 49.2676 48.0078 49.2676 48.5059 49.4824C49.7656 49.9903 50.5859 50.7324 51.1035 51.836C51.3965 52.4512 51.416 52.5489 51.416 53.6133C51.416 54.6778 51.3965 54.7656 51.1035 55.3809C50.5371 56.5332 49.6777 57.2949 48.4766 57.7246C48.0078 57.8906 47.7246 57.9199 46.9727 57.8906C45.5762 57.8321 45.0195 57.5293 43.5059 56.0352C41.8945 54.4336 40.8789 53.8574 39.1895 53.6133C38.3008 53.4864 36.5039 53.4864 35.791 53.6231C32.9395 54.1504 31.7676 57.5879 33.7109 59.7266C34.4238 60.5078 35.127 60.8301 36.3184 60.9473C37.9785 61.1035 37.8906 61.0352 42.1973 65.5469C44.2676 67.7149 46.2207 69.7266 46.5332 70.0293C47.4219 70.8692 48.5059 71.5821 48.8965 71.5821C49.3359 71.5821 49.6094 71.2891 49.6094 70.8203C49.6094 70.4102 49.4922 70.2735 48.7305 69.7656C48.0469 69.3164 47.1094 68.3887 43.252 64.3457C41.2793 62.2754 39.4922 60.4688 39.2871 60.3223C38.5645 59.8242 37.8418 59.5703 36.7871 59.4239C35.6836 59.2871 35.3516 59.1504 34.9512 58.7207C34.1113 57.8321 34.1211 56.6016 34.9609 55.7617C35.4785 55.2442 36.084 55.0781 37.3926 55.0781C38.7793 55.0781 39.541 55.2149 40.4004 55.6153C41.0156 55.8985 41.3281 56.1524 42.4219 57.2071C43.5449 58.3106 43.8184 58.5254 44.541 58.8672C45.5078 59.336 46.123 59.4727 47.168 59.4727C48.2129 59.4727 48.8281 59.336 49.7949 58.8672C51.2598 58.1641 52.4609 56.6992 52.8711 55.1172C53.0664 54.3457 53.0762 52.8516 52.8809 52.0996C52.3828 50.1953 50.8887 48.6231 48.9746 47.9688L48.1934 47.7051L40.7715 47.6563C32.6172 47.5977 33.1055 47.6367 32.5 47.002C31.377 45.8301 32.0117 43.8086 33.6035 43.4571C33.9941 43.3789 36.0742 43.3496 41.3574 43.3789L48.584 43.418L49.5215 43.6719C51.3574 44.1699 51.6992 44.3653 57.666 48.3496C60.7812 50.4297 63.4961 52.2949 63.6914 52.5C64.1895 53.0274 64.5312 53.7598 64.6484 54.5508C64.7656 55.4102 64.7754 60.6348 64.6484 62.1094C64.2969 66.3574 61.5039 69.8633 57.4707 71.1231C55.8398 71.6309 54.1504 71.6992 52.2754 71.3281C51.4355 71.1719 51.3672 71.1621 51.1328 71.3184C50.6934 71.6114 50.6738 72.3242 51.1035 72.5977C51.7969 73.0469 55.1465 73.2715 56.6895 72.959C60.8984 72.1192 64.2676 69.1797 65.6445 65.1367C66.0938 63.8184 66.2109 62.8906 66.2109 60.7031L66.2207 58.7403L69.6875 54.6875C71.6309 52.4219 73.3691 50.293 73.6328 49.8633C73.8965 49.4434 74.248 48.7207 74.4141 48.252C74.9316 46.836 75 46.2598 75 43.2813C75 40.6739 74.9902 40.5567 74.7656 40.0196C74.1602 38.5352 72.9395 37.7442 71.2793 37.7442C70.4883 37.7442 70.3906 37.7735 69.668 38.1348C68.7793 38.5938 68.2129 39.209 67.8711 40.1074C67.666 40.625 67.6465 40.8789 67.5977 43.0664C67.5488 45.7813 67.5586 45.7227 66.709 46.709L66.2109 47.2852V38.7989V30.3223L65.9766 29.7656C65.3711 28.2813 64.1504 27.4903 62.4902 27.4903C61.6992 27.4903 61.6016 27.5196 60.8789 27.8809C59.9902 28.3399 59.4141 28.9551 59.0918 29.8242C58.916 30.293 58.8867 30.5957 58.8867 31.7188V33.0567L56.123 30.3028C53.623 27.8125 53.3008 27.5196 52.6855 27.2364C52.1289 26.9727 51.8652 26.9141 51.2207 26.8848C50.752 26.8653 50.2832 26.9043 50.0488 26.9824ZM51.9531 28.6231C52.627 28.916 57.7539 34.1114 58.1738 34.9121C58.7695 36.0547 58.7695 36.1035 58.8281 41.5625C58.8574 44.3067 58.9062 46.6114 58.9258 46.6895C59.1602 47.4219 59.1992 47.4414 56.7871 45.8399L54.4922 44.3067V40.6446V36.9727L51.8262 34.2871C49.6094 32.0508 49.1406 31.5235 49.043 31.1914C48.8184 30.4102 48.9648 29.7656 49.4922 29.1797C50.166 28.4375 51.084 28.2324 51.9531 28.6231ZM63.6328 29.3457C64.1797 29.668 64.5215 30.1758 64.6484 30.8496C64.707 31.1817 64.7461 34.9903 64.7461 41.3379V51.3086L64.4824 51.0547C64.3262 50.918 63.7402 50.4883 63.1543 50.0977C61.9727 49.3067 61.377 48.6817 60.9473 47.8028C60.3906 46.6797 60.4004 46.7871 60.4004 38.4278V30.7129L60.6348 30.2442C61.1914 29.1114 62.5488 28.711 63.6328 29.3457ZM72.4219 39.5996C73.4082 40.1758 73.584 40.8692 73.5059 43.8477C73.457 45.5176 73.4082 46.1035 73.2422 46.7285C73.0078 47.6465 72.5 48.7598 72.002 49.4531C71.7188 49.8438 66.8652 55.586 66.3477 56.1524C66.2305 56.2696 66.2109 55.791 66.2109 53.0176V49.7461L67.373 48.3789C68.0176 47.6367 68.6621 46.7774 68.8184 46.4844C69.0918 45.9473 69.0918 45.9375 69.1406 43.4571C69.1895 41.1035 69.209 40.9375 69.4238 40.4981C69.9707 39.3653 71.3281 38.9649 72.4219 39.5996Z" fill="#AF1E22"/>
<path d="M26.25 49.7754C25.0586 50.957 25 51.0352 25 51.4063C25 51.7773 25.0684 51.8652 26.2012 52.998C27.3438 54.1406 27.4219 54.1992 27.793 54.1992C28.291 54.1992 28.5547 53.9355 28.5547 53.457C28.5547 53.1836 28.4668 53.0273 28.0762 52.6367L27.5977 52.1484H30.7422C33.7598 52.1484 33.8965 52.1387 34.082 51.9531C34.3359 51.6992 34.3359 51.1719 34.0918 50.8691L33.9062 50.6348L30.8008 50.6055L27.7051 50.5762L28.1055 50.166C28.3301 49.9316 28.5352 49.6191 28.5742 49.4434C28.623 49.1797 28.584 49.082 28.3398 48.8281C27.8223 48.3105 27.666 48.3789 26.25 49.7754Z" fill="#AF1E22"/>
<path d="M35.9276 50.8691C35.6737 51.1328 35.6347 51.2305 35.6835 51.4941C35.7616 51.8945 36.0644 52.1484 36.4843 52.1484C36.914 52.1484 37.2069 51.8555 37.2069 51.4258C37.2069 51.0059 36.953 50.7031 36.5526 50.625C36.289 50.5762 36.1913 50.6152 35.9276 50.8691Z" fill="#AF1E22"/>
<path d="M38.8573 50.8692C38.6034 51.1329 38.5644 51.2305 38.6132 51.4942C38.6425 51.67 38.7694 51.8848 38.8769 51.9727C39.1601 52.2071 39.6972 52.1973 39.9413 51.9532C40.1855 51.7091 40.1952 51.172 39.9706 50.8887C39.873 50.7813 39.6581 50.6544 39.4823 50.6251C39.2187 50.5762 39.121 50.6153 38.8573 50.8692Z" fill="#AF1E22"/>
<path d="M41.787 50.8692C41.5331 51.1329 41.494 51.2305 41.5429 51.4942C41.5722 51.67 41.6991 51.8848 41.8065 51.9727C42.0897 52.2071 42.6269 52.1973 42.871 51.9532C43.1151 51.7091 43.1249 51.172 42.9003 50.8887C42.8026 50.7813 42.5878 50.6544 42.412 50.6251C42.1483 50.5762 42.0507 50.6153 41.787 50.8692Z" fill="#AF1E22"/>
</svg>
