<svg width="100" height="100" viewBox="0 0 100 100" fill="none" xmlns="http://www.w3.org/2000/svg">
<circle cx="50" cy="50" r="50" fill="#100E3F" fill-opacity="0.05"/>
<g clip-path="url(#clip0_533_8990)">
<path d="M32.168 25.2441C30.5176 25.7324 29.1309 26.5527 27.9395 27.7441C26.7383 28.9453 25.9473 30.2832 25.4199 32.0215C25.1758 32.8027 25.1563 32.998 25.1563 34.668C25.1465 36.2793 25.1758 36.5625 25.3711 37.2558C26.1914 40.0781 28.2227 42.4902 30.7422 43.623C31.0449 43.7597 31.3086 43.8867 31.3184 43.8965C31.3379 43.9062 31.2207 44.414 31.0645 45.0293C30.2735 48.1445 30.2735 51.5918 31.0547 54.7265C31.2207 55.3711 31.3379 55.8984 31.3281 55.9082C31.3086 55.918 31.0449 56.0449 30.7422 56.1816C28.2422 57.3047 26.1914 59.7265 25.3906 62.5C25.0879 63.5351 25.0098 65.8594 25.2344 66.9824C25.4492 68.0273 25.9375 69.3652 26.1817 69.5898C26.4356 69.8242 26.9824 69.8144 27.2461 69.5801C27.5293 69.3262 27.4707 68.8086 27.041 67.6269C26.7578 66.8457 26.7188 66.6113 26.6797 65.4297C26.6504 64.3262 26.6699 63.9746 26.8457 63.2617C27.7832 59.3262 31.3086 56.6601 35.293 56.8652C36.582 56.9336 37.2559 57.0996 38.4278 57.6562C40.1367 58.4668 41.5235 59.8535 42.3438 61.5722C42.8906 62.7344 43.0567 63.3984 43.1348 64.6972C43.3203 68.0957 41.377 71.2402 38.2129 72.6758C36.4942 73.457 34.1895 73.5742 32.3731 72.9785C31.543 72.7148 30.4297 72.1094 29.7266 71.543C29.043 70.9863 28.7793 70.9082 28.3887 71.1035C28.0957 71.2597 28.0274 71.3769 28.0274 71.7969C28.0274 72.0996 28.0957 72.2168 28.5352 72.6074C29.668 73.623 31.3184 74.4238 33.0176 74.7656C34.1406 74.9902 36.4649 74.9121 37.5 74.6094C40.2735 73.8086 42.6953 71.7578 43.8184 69.2578C43.9551 68.9551 44.082 68.6816 44.1016 68.6621C44.1211 68.6426 44.5606 68.7402 45.0879 68.8867C46.9043 69.3652 47.8418 69.4726 50.0977 69.4726C52.3535 69.4726 53.291 69.3652 55.1074 68.8867C55.6348 68.7402 56.0742 68.6426 56.084 68.6621C56.0938 68.6816 56.25 69.0039 56.4356 69.3847C56.8945 70.3515 57.3731 71.0351 58.1445 71.8555C59.375 73.1543 60.8203 74.043 62.5684 74.5801C63.3789 74.8242 63.5449 74.8437 65.2832 74.8437C67.0313 74.8437 67.1875 74.834 68.0078 74.5801C69.7559 74.0332 71.1524 73.1836 72.3731 71.9043C73.2813 70.9472 73.6328 70.4394 74.1699 69.3066C74.8633 67.8418 75 67.1484 75 65.1074C75 63.3008 74.9219 62.7832 74.5117 61.6406C73.6621 59.3359 71.6699 57.1777 69.4727 56.1816C69.1504 56.0449 68.877 55.918 68.8574 55.8984C68.8379 55.8789 68.9356 55.4394 69.082 54.9121C69.5606 53.0762 69.668 52.1582 69.668 49.9023C69.668 47.6562 69.5606 46.709 69.0918 44.9414C68.9551 44.4336 68.8477 43.9941 68.8477 43.9551C68.8477 43.916 69.0918 43.7793 69.3848 43.6621C70.7422 43.0957 72.5293 41.5918 73.4375 40.2441C74.0137 39.3848 74.5606 38.1836 74.7949 37.2363C74.961 36.582 75 36.1426 75 34.6875C75 32.6367 74.8633 31.9629 74.1797 30.5176C73.6231 29.3359 73.2715 28.8379 72.3731 27.8906C71.1035 26.582 69.707 25.7324 67.9981 25.2441C67.1387 25 67.0215 24.9902 65.0684 25.0195L63.0371 25.0488L62.0606 25.3906C61.5235 25.5859 60.7129 25.957 60.2637 26.2207C59.3164 26.7773 57.9004 28.0762 57.2754 28.9551C56.9629 29.3945 56.2695 30.664 56.0938 31.1328C56.0938 31.1426 55.5664 31.0254 54.9219 30.8594C51.7871 30.0781 48.3399 30.0781 45.2246 30.8691C44.6094 31.0254 44.1016 31.1426 44.0918 31.123C44.082 31.1133 43.9551 30.8496 43.8184 30.5469C42.6953 28.0469 40.2246 25.957 37.5 25.2051C36.875 25.0293 36.5039 25 34.8633 25.0098C33.1445 25.0098 32.8809 25.0293 32.168 25.2441ZM36.7969 26.6699C39.9414 27.3926 42.3633 29.9219 43.0274 33.2031C43.2227 34.1797 43.1738 35.8398 42.9199 36.7676C42.7051 37.5683 42.002 39.0039 41.5625 39.5898C41.0742 40.2246 41.0059 40.625 41.3477 40.9668C41.5528 41.1719 41.6797 41.2207 41.9629 41.1914C42.2754 41.1621 42.3926 41.0742 42.7832 40.5957C43.6524 39.5215 44.3848 37.7441 44.6387 36.1328C44.7363 35.5078 44.7168 33.6523 44.6094 32.8613C44.5801 32.6953 44.6973 32.6367 45.4102 32.4512C47.1778 31.9726 47.8906 31.8945 50.0977 31.8945C52.3047 31.8945 52.9981 31.9726 54.7852 32.4512L55.6153 32.666L55.5664 33.0078C55.5371 33.1933 55.5176 34.0527 55.5274 34.9121C55.5371 36.2988 55.5664 36.5723 55.8008 37.334C56.8555 40.8496 59.3652 43.3008 62.8711 44.2578C63.4668 44.4238 63.9258 44.4629 65.1367 44.4726C65.9668 44.4824 66.7871 44.4531 66.9629 44.414L67.2754 44.3457L67.4805 44.9902C68.3692 47.8613 68.3594 51.7676 67.4707 54.8047L67.2754 55.459L66.9629 55.3906C66.7871 55.3515 65.9668 55.3222 65.1367 55.332C63.4766 55.3418 62.7832 55.4785 61.3965 56.0547C59.2969 56.9238 57.334 58.8281 56.3477 60.9668C55.791 62.168 55.5469 63.2031 55.4981 64.6972C55.4688 65.4492 55.4883 66.2988 55.5469 66.5722L55.6348 67.0898L54.9903 67.2754C53.4278 67.7246 51.6895 67.9687 50.0977 67.9687C48.4961 67.9687 46.3086 67.6465 45 67.2265C44.5508 67.0801 44.541 67.0703 44.6094 66.7676C44.6485 66.5918 44.6778 65.791 44.6778 64.9902C44.668 63.789 44.6289 63.3789 44.4531 62.7051C43.4766 59.082 40.8985 56.5137 37.2949 55.5469C36.6406 55.3808 36.2012 55.332 35.1074 55.332C34.3555 55.3222 33.5449 55.3418 33.3106 55.3711L32.8809 55.4199L32.6465 54.5898C32.1778 52.8613 32.0899 52.1191 32.0899 49.9023C32.0899 47.6953 32.168 47.0019 32.6465 45.2148L32.8613 44.3847L33.3008 44.4336C33.5449 44.4629 34.3555 44.4824 35.1074 44.4726C36.25 44.4629 36.6211 44.4238 37.4024 44.2187C38.4082 43.9453 39.7168 43.3789 39.9121 43.1445C40.1465 42.8613 40.166 42.4414 39.9512 42.168C39.6192 41.748 39.3457 41.748 38.3887 42.1777C37.1973 42.7148 36.5528 42.8711 35.293 42.9394C33.4766 43.0371 31.8848 42.5976 30.3418 41.5723C28.5645 40.3808 27.3438 38.6328 26.8457 36.543C26.5528 35.332 26.6211 33.4082 26.9922 32.2754C28.3692 28.0762 32.5391 25.6836 36.7969 26.6699ZM66.3281 26.5137C69.0527 26.7383 71.8067 28.8574 72.9297 31.5723C73.4863 32.9101 73.6914 34.7656 73.4277 36.1816C72.9199 38.9258 70.8203 41.4551 68.252 42.4219C66.6406 43.0273 64.6582 43.125 63.1055 42.6855C58.9063 41.4746 56.3184 37.2558 57.1875 33.0273C57.7832 30.1074 60.0488 27.6465 62.9492 26.7676C63.6231 26.5625 64.9707 26.3769 65.4297 26.4258C65.5664 26.4453 65.9668 26.4844 66.3281 26.5137ZM66.875 56.9922C68.5156 57.3242 69.8828 58.0664 71.0938 59.2773C72.0801 60.2637 72.7149 61.2793 73.1543 62.5976C73.5547 63.7988 73.6524 65.4297 73.3887 66.709C72.4707 71.2597 67.9004 74.209 63.4277 73.1445C59.6582 72.2558 57.0313 68.9453 57.0313 65.0976C57.0313 61.0449 60 57.5879 64.0625 56.9043C64.668 56.8066 66.1914 56.8457 66.875 56.9922Z" fill="#AF1E22"/>
<path d="M35.6738 30.3515C34.7656 30.6738 34.209 31.2597 33.9356 32.1582C33.8281 32.5097 33.7793 32.5683 33.584 32.539C33.0469 32.4707 32.1192 31.914 31.5235 31.289C31.0352 30.791 30.8594 30.664 30.6153 30.664C30.1465 30.664 29.9121 30.8984 29.6875 31.6015C29.1113 33.4668 29.4727 35.3906 30.625 36.6211C30.9082 36.9238 31.0254 37.1191 30.9571 37.1582C30.8985 37.1972 30.4883 37.2558 30.0586 37.2949C29.4043 37.3535 29.2383 37.4023 29.0918 37.5879C28.6817 38.0859 28.8965 38.5644 29.6875 38.9648C30.6738 39.4629 31.6504 39.6875 32.8613 39.6875C34.1406 39.6972 34.7266 39.5703 35.8399 39.0429C36.5137 38.7207 36.8164 38.4961 37.4512 37.8515C38.6133 36.6797 39.1699 35.4199 39.3262 33.6328C39.375 33.0469 39.4434 32.7832 39.6485 32.4804C40.4102 31.3281 40.4102 30.3906 39.6485 30.2246C39.4238 30.1758 39.2285 30.2246 38.8281 30.4492L38.3106 30.7422L37.8125 30.498C37.1485 30.1758 36.3379 30.1172 35.6738 30.3515ZM37.3926 32.1094C37.7051 32.3633 37.7442 32.4511 37.7735 32.9101C37.8223 33.7011 37.6172 34.6777 37.2559 35.4492C36.5137 36.9726 35.0977 37.959 33.3692 38.1445L32.7637 38.2031L33.125 37.9492C33.8477 37.4414 33.7403 36.8652 32.8125 36.3086C31.6016 35.5761 31.1035 34.8535 30.9863 33.6621L30.9278 33.0078L31.4942 33.3496C32.4024 33.8965 33.0567 34.1015 34.043 34.1504C34.8731 34.1992 34.9414 34.1894 35.1367 33.9746C35.3028 33.8086 35.3516 33.6328 35.3516 33.2519C35.3516 31.9629 36.4551 31.3476 37.3926 32.1094Z" fill="#AF1E22"/>
<path d="M54.7949 42.5391C54.6777 42.6856 54.5898 42.9297 54.5898 43.0762C54.5898 43.3496 54.5117 43.3985 53.1054 44.0918C51.2695 44.9805 49.3554 45.6446 48.7304 45.6055C48.4863 45.586 47.4121 45.5664 46.3379 45.5664C44.0722 45.5567 43.8769 45.6153 43.4765 46.3867C43.2617 46.8164 43.2519 46.8946 43.2812 49.1407C43.3105 51.2989 43.3203 51.4649 43.5156 51.7188C43.8672 52.1973 44.1992 52.3731 44.8144 52.4219L45.4004 52.461L45.4492 53.0664C45.4785 53.3887 45.5468 54.541 45.6054 55.6153C45.7031 57.5293 45.7031 57.5684 45.957 57.7832C46.3672 58.1543 46.9922 58.0371 47.1679 57.5684C47.2461 57.3535 47.1679 54.9903 47.0215 53.0957L46.9726 52.4414H47.666C48.0371 52.4414 48.4375 52.4024 48.5351 52.3438C48.6621 52.2754 48.9746 52.3242 49.6972 52.5391C50.7617 52.8614 51.0156 52.8418 51.3086 52.4219C51.7285 51.8262 51.3574 51.3672 50.1562 51.0254C49.6875 50.8887 49.2285 50.7813 49.1601 50.7813C49.0429 50.7813 49.0234 50.4785 49.0429 49.0137L49.0722 47.2461L50.1953 46.9239C51.4258 46.5723 52.3242 46.2305 53.6523 45.6153C54.1308 45.3907 54.5312 45.2149 54.5508 45.2149C54.5703 45.2149 54.5898 46.9336 54.5898 49.0235V52.8321L54.1015 52.5879C53.1543 52.1094 52.539 52.3926 52.6367 53.2715C52.666 53.5742 52.7929 53.6719 53.7207 54.17C54.414 54.541 54.5898 54.6778 54.5898 54.8535C54.5898 55.4297 55.0781 55.8399 55.6054 55.7032C56.1718 55.5664 56.1523 55.791 56.1523 48.9551C56.1523 42.8028 56.1523 42.6758 55.957 42.4805C55.6543 42.1778 55.0488 42.2168 54.7949 42.5391ZM47.4609 48.9746V50.8789H46.1426H44.8242V48.9746V47.0703H46.1426H47.4609V48.9746Z" fill="#AF1E22"/>
<path d="M65.8203 29.0918C65.3321 29.248 64.9512 29.4922 64.5606 29.9414C64.0137 30.5664 63.8672 31.1133 63.8672 32.5879V33.7891H63.2032C62.627 33.7891 62.5 33.8184 62.3243 34.0137C62.0606 34.2969 62.0508 34.7656 62.295 35.0684C62.4512 35.2539 62.5879 35.3027 63.1739 35.332L63.8672 35.3711V37.666V39.9512L64.1114 40.1855C64.2578 40.3418 64.4629 40.4297 64.6485 40.4297C64.834 40.4297 65.0391 40.3418 65.1856 40.1855L65.4297 39.9512V37.666V35.3711L66.1719 35.332C66.8067 35.3027 66.9434 35.2637 67.0996 35.0684C67.3438 34.7754 67.334 34.3652 67.0801 34.043C66.8946 33.8086 66.8262 33.7891 66.1524 33.7891H65.4297V32.666C65.4297 30.918 65.6348 30.6641 67.0606 30.5664C67.8809 30.5078 68.0176 30.4785 68.1739 30.2832C68.418 29.9805 68.4082 29.4434 68.1641 29.1992C67.9981 29.0332 67.8418 29.0039 67.0215 29.0137C66.4942 29.0137 65.9571 29.0527 65.8203 29.0918Z" fill="#AF1E22"/>
<path d="M61.2793 60.0488C60.791 60.2637 60.2929 60.8203 60.1562 61.2988C60.0781 61.5527 60.0586 62.8516 60.0781 65.3516L60.1074 69.0234L60.4004 69.4434C60.5664 69.668 60.8886 69.9609 61.123 70.0879C61.5527 70.3125 61.5722 70.3125 65.2832 70.3125C68.9941 70.3125 69.0136 70.3125 69.4433 70.0879C69.6777 69.9609 70.0097 69.668 70.166 69.4434L70.4589 69.0234L70.4882 65.3516C70.5078 62.8711 70.4882 61.5527 70.4101 61.2988C70.2734 60.8203 69.7754 60.2637 69.2871 60.0488C68.9355 59.8828 68.5742 59.8633 65.2832 59.8633C61.9922 59.8633 61.6308 59.8828 61.2793 60.0488ZM68.7695 61.5918C68.9355 61.7383 68.9453 61.9727 68.9453 65.0977C68.9453 68.0078 68.9257 68.4668 68.789 68.5938C68.6621 68.7305 68.2031 68.75 65.2832 68.75C62.3632 68.75 61.9043 68.7305 61.7773 68.5938C61.6406 68.4668 61.6211 68.0078 61.6211 65.1172C61.6211 62.1484 61.6406 61.7676 61.7871 61.6016C61.9336 61.4355 62.1679 61.4258 65.2636 61.4258C68.2226 61.4258 68.6035 61.4453 68.7695 61.5918Z" fill="#AF1E22"/>
<path d="M64.3555 63.0469C62.5293 63.8379 62.6368 66.582 64.502 67.2266C65.0977 67.4219 65.4688 67.4219 66.0645 67.2266C67.9004 66.5918 68.0469 63.9844 66.2891 63.0762C65.8399 62.8516 64.8536 62.832 64.3555 63.0469ZM65.8497 64.7656C66.0157 64.9902 66.0254 65.0684 65.9278 65.3125C65.7715 65.6934 65.3907 65.8691 65.0391 65.7227C64.3262 65.4297 64.5606 64.4043 65.3125 64.4727C65.5469 64.4922 65.7129 64.5801 65.8497 64.7656Z" fill="#AF1E22"/>
<path d="M32.7539 61.1914C32.1875 61.4648 32.1777 61.543 32.1777 64.9316C32.1777 66.6309 32.207 68.1445 32.2559 68.291C32.3438 68.6133 32.8418 68.9453 33.2422 68.9453C33.584 68.9453 38.6914 66.0547 39.043 65.6641C39.2969 65.3809 39.3262 64.873 39.1211 64.4727C39.0234 64.2773 38.2812 63.7988 36.416 62.7246C33.2324 60.8887 33.3008 60.918 32.7539 61.1914ZM35.625 64.1113C36.8262 64.7949 37.0996 64.9902 36.9922 65.0879C36.8848 65.1855 34.5117 66.5723 33.916 66.8848L33.6914 67.002V64.9805V62.9687L33.916 63.1055C34.0332 63.1836 34.8047 63.6328 35.625 64.1113Z" fill="#AF1E22"/>
</g>
<defs>
<clipPath id="clip0_533_8990">
<rect width="50" height="50" fill="white" transform="translate(25 25)"/>
</clipPath>
</defs>
</svg>
